<svg xmlns="http://www.w3.org/2000/svg" width="540" height="270" version="1.1">
 <g>
  <title>Layer 1</title>
  <g id="svg_13">
   <g stroke="null" id="g102">
    <path stroke="null" fill="#00AEC3" id="path94" d="m199.09994,190.14273l0,-108.75372l23.74201,0l0,108.75372l-23.74201,0z" class="st0"/>
    <path stroke="null" fill="#00AEC3" id="path96" d="m242.7546,82.92075c11.48807,-2.29761 22.21027,-3.06348 32.93246,-3.06348c16.0833,0 28.33724,3.06348 36.76182,9.19045c8.42458,6.12697 12.25394,16.0833 12.25394,29.86898c0,13.01981 -3.82936,22.97614 -12.25394,29.10311c-7.65871,6.89284 -19.91265,9.95633 -35.23008,9.95633c-2.29761,0 -6.12697,0 -10.7222,0l0,32.16659l-23.74201,0l0,-107.22197zm52.84512,52.84512c3.82936,-3.06348 5.3611,-8.42458 5.3611,-16.0833c0,-7.65871 -1.53174,-13.01981 -5.3611,-16.84917c-3.82936,-3.82936 -9.95633,-5.3611 -17.61504,-5.3611c-3.82936,0 -7.65871,0 -11.48807,0.76587l0,41.35705c3.82936,0.76587 6.89284,0.76587 10.7222,0.76587c8.42458,0 14.55155,-1.53174 18.38091,-4.59523z" class="st0"/>
    <path stroke="null" fill="#00AEC3" id="path98" d="m403.58756,190.14273l-9.19045,-29.10311l-40.59118,0l-9.19045,29.10311l-23.74201,0l35.23008,-108.75372l35.23008,0l35.23008,108.75372l-22.97614,0zm-43.65466,-48.24989l29.10311,0l-14.55155,-45.95227l-14.55155,45.95227z" class="st0"/>
    <path stroke="null" fill="#00AEC3" id="path100" d="m438.05177,82.92075c11.48807,-2.29761 22.21027,-3.06348 32.93246,-3.06348c16.0833,0 28.33724,3.06348 36.76182,9.19045c8.42458,6.12697 12.25394,16.0833 12.25394,29.86898c0,13.01981 -3.82936,22.97614 -12.25394,29.10311c-8.42458,6.12697 -19.91265,9.95633 -35.23008,9.95633c-2.29761,0 -6.12697,0 -10.7222,0l0,32.16659l-23.74201,0l0,-107.22197zm52.84512,52.84512c3.82936,-3.06348 5.3611,-8.42458 5.3611,-16.0833c0,-7.65871 -1.53174,-13.01981 -5.3611,-16.84917c-3.82936,-3.82936 -9.95633,-5.3611 -17.61504,-5.3611c-3.82936,0 -7.65871,0 -11.48807,0.76587l0,41.35705c3.82936,0.76587 6.89284,0.76587 10.7222,0.76587c8.42458,0 14.55155,-1.53174 18.38091,-4.59523z" class="st0"/>
   </g>
   <g stroke="null" id="svg_12">
    <path stroke="null" id="svg_2" fill="#00adc1" d="m58.90348,59.32891l1.78518,0l0,7.47755l-1.78518,0l0,-7.47755zm4.49664,0l1.78518,0l0,7.47755l-1.78518,0l0,-7.47755z" class="b"/>
    <path stroke="null" id="svg_3" fill="#00adc1" d="m63.98956,55.75854l-8.42067,0a0.94311,0.94311 0 0 0 -0.89259,0.89259l0,1.48204l-4.12613,0a2.67777,2.67777 0 0 0 -2.69461,2.69461l-0.30314,4.47979l-0.89259,0.90943a3.16617,3.16617 0 0 0 -0.60629,2.08833l0,4.78294a0.95996,0.95996 0 0 0 0.90943,0.89259l0.89259,0a3.23354,3.23354 0 0 0 3.36827,2.39147a3.5872,3.5872 0 0 0 0,-7.17441a3.94087,3.94087 0 0 0 -2.98092,1.78518l0,-1.48204l0.2863,0a0.90943,0.90943 0 1 0 0,-1.80202l-0.2863,0l0,-0.30314l0.89259,-0.89259l5.67553,0l0,6.28182a0.94311,0.94311 0 0 0 0.89259,0.89259l1.19573,0a30.98805,30.98805 0 0 1 3.36827,-2.08833l-3.75562,0l0,-2.08833l8.08384,0a52.94915,52.94915 0 0 1 7.46071,-2.10517l-15.54455,0l0,-10.1048l10.45847,0c-0.89259,0 -1.78518,-0.89259 -2.98092,-1.48204m-13.15308,16.134a1.49888,1.49888 0 1 1 -1.48204,1.48204c0.2863,-0.89259 0.89259,-1.48204 1.48204,-1.48204m3.89035,-7.17441l-5.0524,0l0.2863,-3.94087a0.63997,0.63997 0 0 1 0.60629,-0.58945l4.17665,0l-0.01684,4.53032z" class="b"/>
    <path stroke="null" id="svg_4" fill="#00adc1" d="m69.36195,59.32891l-1.19573,0l0,7.47755l1.80202,0l0,-6.87126c-0.30314,-0.30314 -0.30314,-0.60629 -0.60629,-0.60629m3.5872,2.39147l0,4.78294l1.80202,0l0,-3.5872a5.87763,5.87763 0 0 1 -1.80202,-1.19573m-49.93456,28.98394l0,-8.42067l5.0524,5.0524l2.08833,-0.89259l0,-23.81365l5.0524,-2.69461a15.74665,15.74665 0 0 0 -1.19573,3.5872a18.28969,18.28969 0 0 0 2.08833,12.24365a5.91131,5.91131 0 0 0 1.78518,4.19349l0.60629,0.89259a0.89259,0.89259 0 0 0 1.19573,0l0.58945,-0.60629l1.19573,1.19573a0.89259,0.89259 0 0 0 1.19573,0a1.83571,1.83571 0 0 1 2.39147,0a1.56624,1.56624 0 0 1 -0.15157,2.39147a1.78518,1.78518 0 0 1 -2.37463,0a0.94311,0.94311 0 0 0 -1.19573,0a0.89259,0.89259 0 0 0 0,1.19573a3.60405,3.60405 0 1 0 5.2545,-4.78294a3.25038,3.25038 0 0 0 -4.17665,-0.58945l-0.60629,-0.60629l0.60629,-0.89259a0.94311,0.94311 0 0 0 0,-1.19573l-0.60629,-0.89259a7.76386,7.76386 0 0 0 -3.36827,-2.08833a13.47307,13.47307 0 0 1 3.89035,-18.22232l2.98092,-1.49888l-0.40419,-2.08833l-14.93826,0.2863l0,-3.5872l-1.19573,-1.19573l-6.92179,0l-1.19573,1.19573l0,43.38328l1.49888,-0.89259l0.85891,-0.65681zm17.32973,-13.47307l-1.19573,1.19573a5.38923,5.38923 0 0 1 -1.19573,-2.69461a6.50075,6.50075 0 0 1 2.39147,1.49888m-0.89259,-22.70212l-0.89259,0.89259l-2.96407,1.4652l-3.28406,-2.37463l7.14073,0.01684zm-9.56588,1.19573l3.36827,2.37463l-3.36827,1.80202l0,-4.17665zm-2.39147,27.7882l-4.14297,-4.15981l4.17665,-3.94087l-0.03368,8.10068zm0,-13.15308l-3.87351,-2.99776l3.87351,-3.36827l0,6.36602zm0,-17.02659l0,5.96183l-4.14297,-3.25038l4.17665,-3.87351l-0.03368,1.16205zm-4.47979,-3.18301l3.5872,0l-3.5872,3.503l0,-3.503zm0,8.67329l3.89035,3.28406l-3.89035,3.19985l0,-6.48391zm0,11.35106l3.89035,2.99776l-3.89035,3.7893l0,-6.78706zm14.68564,51.31555a6.13025,6.13025 0 0 0 5.97867,-5.37239a6.16393,6.16393 0 0 0 -1.19573,-4.49664a6.58496,6.58496 0 0 0 -4.19349,-2.39147a6.1134,6.1134 0 0 0 -4.47979,1.19573a6.58496,6.58496 0 0 0 -2.37463,4.19349a6.09656,6.09656 0 0 0 5.37239,6.87126l0.90943,0m-1.80202,-4.78294a4.14297,4.14297 0 0 1 -0.58945,-1.78518a2.54304,2.54304 0 0 1 2.39147,-2.10517l0.2863,0a1.68413,1.68413 0 0 1 1.49888,0.90943a4.17665,4.17665 0 0 1 0.60629,1.78518a1.68413,1.68413 0 0 1 -0.90943,1.49888a4.14297,4.14297 0 0 1 -1.78518,0.58945a1.68413,1.68413 0 0 1 -1.49888,-0.89259m141.31563,2.08833c-0.2863,0.30314 -0.2863,0.60629 -0.58945,0.60629l-2.39147,2.39147l-0.30314,0.2863a6.73653,6.73653 0 0 1 -2.08833,1.19573a6.55128,6.55128 0 0 0 -3.89035,4.49664a5.47343,5.47343 0 0 1 -0.2863,-2.99776a12.26049,12.26049 0 0 1 2.39147,-5.37239c0.2863,-0.30314 0.58945,-0.90943 0.89259,-1.19573a0.89259,0.89259 0 0 0 0,-1.19573a1.56624,1.56624 0 0 0 -1.19573,-0.60629a15.74665,15.74665 0 0 0 -6.56812,2.39147a8.2691,8.2691 0 0 1 2.39147,-3.5872l0.2863,-0.58945a1.33047,1.33047 0 0 0 0,-1.49888a1.31362,1.31362 0 0 0 -1.48204,-0.30314c-1.49888,0.90943 -2.99776,1.49888 -4.49664,2.39147a20.37801,20.37801 0 0 1 -3.87351,1.49888a11.99103,11.99103 0 0 0 -2.69461,1.49888a4.37875,4.37875 0 0 1 0.89259,-1.19573a7.05652,7.05652 0 0 1 2.08833,-2.08833c0.30314,-0.30314 0.90943,-0.60629 1.19573,-1.19573a20.96746,20.96746 0 0 0 3.89035,-5.0524a0.55576,0.55576 0 0 0 0,-0.89259a0.65681,0.65681 0 0 0 -0.58945,-0.60629a15.6456,15.6456 0 0 0 -3.5872,-0.58945a2.34095,2.34095 0 0 0 -1.49888,0.58945l0,-0.2863c0.30314,-0.90943 0.58945,-1.49888 1.19573,-1.80202l0.30314,-0.30314a3.06512,3.06512 0 0 0 0.2863,-1.19573c0,-0.2863 -0.2863,-0.58945 -1.19573,-0.58945l-0.25262,0a4.10929,4.10929 0 0 1 -2.69461,0a17.80129,17.80129 0 0 0 -5.67553,0l0.30314,-0.30314a7.84806,7.84806 0 0 1 4.47979,-2.08833a15.79717,15.79717 0 0 0 3.36827,-1.49888c0.30314,-0.30314 0.58945,-0.30314 0.89259,-0.58945a1.12837,1.12837 0 0 0 0.89259,-1.19573a1.56624,1.56624 0 0 0 -0.89259,-1.19573a5.30502,5.30502 0 0 0 -2.98092,-0.60629a5.0524,5.0524 0 0 0 1.49888,-1.19573c0.2863,-0.58945 0.89259,-0.58945 1.78518,-0.89259c0.30314,0 0.58945,-0.58945 0.89259,-0.89259a1.19573,1.19573 0 0 0 -0.58945,-1.19573c-0.30314,0 -0.30314,-0.30314 -0.60629,-0.30314c-0.30314,-0.30314 -0.58945,-0.30314 -0.89259,-0.58945a7.73017,7.73017 0 0 1 -3.14933,-3.25038a4.71557,4.71557 0 0 0 -2.10517,-2.08833a5.65869,5.65869 0 0 0 -2.08833,-0.58945a6.73653,6.73653 0 0 1 4.19349,0.30314a22.51686,22.51686 0 0 1 5.37239,2.67777s0.58945,0.60629 1.19573,0.30314a0.95996,0.95996 0 0 0 0.89259,-0.89259a8.42067,8.42067 0 0 0 -2.08833,-6.58496a14.97195,14.97195 0 0 1 4.47979,2.10517a1.39783,1.39783 0 0 0 1.49888,0a2.2399,2.2399 0 0 0 0.30314,-1.49888c-0.60629,-0.89259 -0.60629,-0.89259 -0.60629,-1.19573s-0.30314,-0.30314 -0.30314,-0.89259c-0.2863,-0.30314 0,-0.90943 0,-1.49888l0,-0.89259a7.71333,7.71333 0 0 1 0.90943,-3.36827a8.42067,8.42067 0 0 1 -1.80202,-1.49888a13.47307,13.47307 0 0 0 -1.49888,4.47979l0,2.39147a14.70248,14.70248 0 0 0 -5.96183,-1.49888c-0.60629,0 -0.90943,0.30314 -0.90943,0.60629c-0.2863,0.2863 0,0.89259 0.30314,1.19573c1.80202,1.78518 3.5872,3.28406 3.89035,5.37239a30.46597,30.46597 0 0 0 -4.47979,-2.08833c-3.5872,-1.49888 -6.88811,-0.30314 -9.56588,0.89259c-0.30314,0.30314 -0.60629,0.60629 -0.60629,0.89259s0.30314,0.90943 0.60629,0.90943a1.51572,1.51572 0 0 0 0.89259,0.2863a23.37577,23.37577 0 0 1 4.78294,1.19573a4.66505,4.66505 0 0 1 1.19573,0.89259a9.85218,9.85218 0 0 0 3.36827,3.89035c-0.30314,0.30314 -0.89259,0.60629 -1.19573,1.19573a1.33047,1.33047 0 0 1 -1.78518,0.60629c-0.90943,-0.30314 -1.19573,0.2863 -1.49888,0.58945a1.33047,1.33047 0 0 0 0,1.49888a3.62089,3.62089 0 0 0 3.5872,1.78518a5.0524,5.0524 0 0 1 -1.49888,0.60629a13.03519,13.03519 0 0 0 -5.37239,2.67777a2.27358,2.27358 0 0 1 -1.49888,0.60629a1.97044,1.97044 0 0 0 -1.78518,0.89259a2.20621,2.20621 0 0 0 0.58945,2.08833c0.30314,0.60629 0.89259,0.60629 1.49888,0.90943l1.78518,0a15.98243,15.98243 0 0 1 5.38923,0a1.88623,1.88623 0 0 1 1.19573,0.2863a1.11153,1.11153 0 0 0 -0.30314,0.90943a2.79566,2.79566 0 0 1 -1.19573,1.78518a1.11153,1.11153 0 0 0 -0.89259,1.19573a1.95359,1.95359 0 0 0 0.58945,1.49888c0.89259,0.89259 2.08833,0.2863 2.69461,0a14.11304,14.11304 0 0 0 2.08833,-1.19573c0.30314,0 0.30314,-0.30314 0.58945,-0.30314l0.30314,-0.30314l1.19573,0c-0.89259,1.19573 -1.78518,2.08833 -2.67777,3.36827a4.31138,4.31138 0 0 1 -1.19573,0.90943a16.01611,16.01611 0 0 0 -2.47568,2.30726a8.08384,8.08384 0 0 0 -1.80202,5.0524c0,0.30314 0.30314,0.60629 0.30314,0.89259a1.07785,1.07785 0 0 0 0.89259,0.30314a1.58309,1.58309 0 0 0 1.19573,-0.58945l0.30314,0a22.09583,22.09583 0 0 1 3.5872,-2.10517a22.06215,22.06215 0 0 0 3.87351,-1.78518a0.30314,0.30314 0 0 0 0.30314,-0.30314a5.72605,5.72605 0 0 0 -0.58945,3.89035c0,0.30314 0.2863,0.58945 0.58945,0.89259l1.19573,0a21.2706,21.2706 0 0 1 5.0524,-2.69461a14.14672,14.14672 0 0 0 -2.08833,5.38923a13.87726,13.87726 0 0 0 2.37463,8.42067a1.88623,1.88623 0 0 0 1.19573,0.2863c0.30314,-0.2863 0.60629,-0.58945 0.60629,-0.89259c0,-1.19573 0.30314,-2.39147 0.30314,-3.36827a3.57036,3.57036 0 0 1 2.39147,-3.36827a13.74253,13.74253 0 0 0 2.98092,-1.49888l0.30314,-0.30314l1.19573,-1.19573l0.58945,-0.58945a4.17665,4.17665 0 0 0 -0.30314,-2.69461m-97.61237,-82.33728l2.39147,0l0,2.39147l-2.39147,0l0,-2.39147zm8.95959,0l2.39147,0l0,2.39147l-2.39147,0l0,-2.39147z" class="b"/>
    <path stroke="null" id="svg_5" fill="#00adc1" d="m76.90687,33.30904l7.47755,-5.38923l0,4.78294c0,0.30314 0,0.60629 0.2863,0.60629a0.89259,0.89259 0 0 0 1.19573,0l0.30314,0l7.17441,-5.38923l0,4.49664a1.09469,1.09469 0 0 0 0.30314,0.89259a0.89259,0.89259 0 0 0 1.19573,0l0.58945,0l7.17441,-5.38923l0,2.39147l1.78518,0l0,-4.14297a1.12837,1.12837 0 0 0 -0.2863,-0.89259a0.89259,0.89259 0 0 0 -1.19573,0l-0.30314,0.30314l-7.17441,5.37239l0,-4.78294a1.07785,1.07785 0 0 0 -0.30314,-0.89259a0.89259,0.89259 0 0 0 -1.19573,0l-0.2863,0.30314l-7.24177,5.37239l0,-4.78294a1.07785,1.07785 0 0 0 -0.30314,-0.89259a0.89259,0.89259 0 0 0 -1.19573,0l-9.56588,6.87126a1.07785,1.07785 0 0 0 -0.30314,0.89259l0,10.76161c0.60629,0.30314 1.19573,0.89259 1.80202,1.19573l0.06737,-11.68789zm-8.74065,16.84133l0.90943,0.60629l1.19573,-2.08833l-0.90943,-0.60629c-1.19573,-0.58945 -2.08833,-1.19573 -3.28406,-1.78518l-1.19573,-0.60629l-1.19573,2.08833l1.49888,0.60629c0.89259,0.58945 2.08833,1.19573 2.98092,1.78518m43.6359,18.15496l1.19573,-0.30314l-0.60629,-2.39147l-1.19573,0.30314c-1.19573,0.30314 -2.08833,0.30314 -3.36827,0.58945l-1.11153,0l0.30314,2.39147l1.19573,0a14.78669,14.78669 0 0 1 3.5872,-0.58945m-26.89561,-6.58496l1.49888,-2.08833l-2.76198,-1.78518a5.37239,5.37239 0 0 1 -1.19573,-0.90943l-1.19573,-0.58945l-1.49888,2.08833l0.90943,0.60629a5.17029,5.17029 0 0 0 1.19573,0.89259l3.04828,1.78518zm-10.45847,-7.46071c0.30314,0.30314 0.89259,0.58945 1.49888,1.19573l0.89259,0.58945l1.49888,-1.78518l-0.90943,-0.60629c-0.58945,-0.58945 -1.19573,-0.89259 -1.48204,-1.19573s-0.90943,-0.58945 -1.19573,-0.89259l-0.89259,-0.58945l-1.49888,1.78518l0.89259,0.60629a4.66505,4.66505 0 0 0 1.19573,0.89259m28.68079,14.63512l0.30314,-2.39147l-1.2631,0a12.49627,12.49627 0 0 1 -3.36827,-0.58945l-1.19573,-0.30314l-0.4884,2.39147l1.19573,0.30314a15.6456,15.6456 0 0 0 3.5872,0.58945l1.22942,0zm-9.85218,-2.39147l0.89259,-2.08833l-0.89259,-0.58945a33.0427,33.0427 0 0 1 -2.99776,-1.49888l-1.19573,-0.60629l-1.19573,2.10517l1.19573,0.58945c1.19573,0.60629 2.10517,1.19573 3.36827,1.80202l0.82523,0.2863zm69.31893,34.07002c1.80202,9.56588 11.06476,14.93826 11.6542,15.54455c0.30314,0 1.19573,0.58945 2.69461,1.19573a11.53631,11.53631 0 0 1 -1.80202,-3.89035c-1.78518,-1.19573 -8.65645,-5.97867 -9.85218,-13.15308c-0.89259,-4.78294 0.89259,-9.85218 4.78294,-15.1572l0,-1.27994a8.10068,8.10068 0 0 0 -0.30314,-2.67777l-0.60629,0.58945c-5.67553,6.28182 -7.76386,12.54679 -6.56812,18.82861m-8.37014,60.35934l-0.58945,0a40.4192,40.4192 0 0 1 -3.5872,-5.37239c-1.80202,-2.69461 -3.5872,-5.38923 -5.0524,-7.47755a4.42927,4.42927 0 0 0 1.49888,-4.47979s-0.58945,-4.78294 -2.69461,-5.0524a1.68413,1.68413 0 0 0 -1.48204,0.89259a5.55764,5.55764 0 0 1 -2.10517,3.5872a1.83571,1.83571 0 0 0 -1.19573,-0.2863a5.0524,5.0524 0 0 0 -0.58945,-5.67553a1.19573,1.19573 0 0 0 -1.19573,-0.60629a2.25674,2.25674 0 0 0 -1.19573,0.60629c0,0.2863 -0.30314,0.58945 -0.30314,0.89259c-0.2863,0.89259 -0.58945,1.78518 -2.98092,2.98092a5.70921,5.70921 0 0 0 -3.36827,4.19349c-0.60629,-0.30314 -1.49888,-0.60629 -2.10517,-0.90943a4.73241,4.73241 0 0 0 -3.87351,0.90943a2.25674,2.25674 0 0 0 -1.19573,2.08833a4.05876,4.05876 0 0 0 1.49888,2.67777c-1.19573,0.30314 -2.10517,0.30314 -3.36827,0.60629a16.84133,16.84133 0 0 1 -2.08833,2.69461a45.4716,45.4716 0 0 0 8.42067,-1.49888a0.95996,0.95996 0 0 0 0.89259,-0.89259a1.5494,1.5494 0 0 0 -0.58945,-1.19573a7.19125,7.19125 0 0 1 -2.69461,-2.08833a2.22306,2.22306 0 0 1 2.08833,-0.60629a6.28182,6.28182 0 0 1 3.36827,2.08833a1.3372,1.3372 0 1 0 2.39147,-1.19573c-1.19573,-3.36827 0.90943,-4.17665 1.49888,-4.47979a8.42067,8.42067 0 0 0 2.98092,-2.39147a4.12613,4.12613 0 0 1 -1.78518,2.99776c-0.58945,0.2863 -0.58945,1.19573 -0.30314,1.78518s1.19573,0.60629 1.80202,0.30314a2.49252,2.49252 0 0 1 2.39147,-0.30314a1.48204,1.48204 0 0 0 1.48204,0.30314a6.43339,6.43339 0 0 0 2.99776,-3.36827a5.0524,5.0524 0 0 1 0,2.98092c-0.30314,0.60629 -0.60629,0.89259 -0.89259,0.89259s-0.90943,0.30314 -1.19573,1.19573a1.85255,1.85255 0 0 0 0.2863,1.19573c1.49888,1.80202 3.89035,5.38923 5.97867,8.42067c2.69461,4.17665 3.5872,5.67553 4.47979,5.97867c0.30314,0.30314 0.60629,0.30314 1.19573,0.30314l0.60629,0a6.34918,6.34918 0 0 1 -0.60629,3.36827a0.63997,0.63997 0 0 0 -0.58945,0.58945a20.79905,20.79905 0 0 1 -2.08833,2.39147c-0.90943,0.60629 -1.80202,0.30314 -3.36827,-0.30314a4.29454,4.29454 0 0 0 -1.78518,-0.58945a18.7444,18.7444 0 0 0 -9.26273,-0.30314a17.24553,17.24553 0 0 0 -5.0524,1.80202c-2.08833,0.89259 -2.98092,5.67553 -3.5872,7.46071a1.68413,1.68413 0 0 0 0.90943,1.49888l0.2863,0c0.60629,0 1.19573,-0.30314 1.19573,-0.89259c0.60629,-2.69461 1.49888,-5.38923 2.10517,-5.67553a12.9173,12.9173 0 0 1 4.47979,-1.49888a17.32973,17.32973 0 0 1 8.067,0.30314a2.22306,2.22306 0 0 1 1.19573,0.58945c1.48204,0.60629 3.87351,1.80202 5.97867,0a9.24589,9.24589 0 0 0 2.08833,-2.69461l0.30314,0c0.2863,0 0.58945,-0.2863 0.89259,-0.58945s2.39147,-4.17665 0.58945,-6.56812c0.30314,-1.19573 -0.2863,-1.19573 -1.19573,-1.49888" class="b"/>
    <path stroke="null" id="svg_6" fill="#00adc1" d="m159.00837,134.03706a12.47943,12.47943 0 0 0 -9.56588,4.17665c-0.2863,0.30314 -0.58945,0.60629 -0.58945,0.90943l0.30314,1.19573c2.98092,0.2863 5.97867,3.5872 6.26498,3.5872l0.63997,0.55576l0.58945,-0.30314a3.5872,3.5872 0 0 1 2.39147,0.30314l-3.36827,6.28182l-5.97867,0l2.39147,2.98092l4.47979,0c1.19573,0 2.08833,0.30314 3.36827,0.30314a33.17743,33.17743 0 0 1 7.7807,1.78518l1.81886,-2.64409a45.03373,45.03373 0 0 0 -11.04792,-2.39147l2.98092,-5.38923a3.03144,3.03144 0 0 1 1.19573,1.49888l0.30314,1.19573l1.19573,-0.30314a5.89447,5.89447 0 0 1 4.78294,2.08833l0.89259,0.90943l0.89259,0.2863a10.72793,10.72793 0 0 0 1.80202,-5.96183a14.07936,14.07936 0 0 0 -13.47307,-11.06476m9.56588,14.04567a9.41431,9.41431 0 0 0 -5.37239,-2.39147a8.52172,8.52172 0 0 0 -7.19125,-3.5872a45.72422,45.72422 0 0 0 -4.47979,-3.28406a10.18901,10.18901 0 0 1 7.15757,-2.69461a9.73429,9.73429 0 0 1 10.1048,9.26273a3.7893,3.7893 0 0 1 -0.30314,2.69461m-39.71187,17.63288a6.73653,6.73653 0 0 1 2.08833,-0.30314c0.60629,0 1.19573,0 1.49888,-0.58945a2.2399,2.2399 0 0 0 0.30314,-1.49888a3.09881,3.09881 0 0 0 -1.49888,-1.80202a2.86303,2.86303 0 0 0 -2.69461,-0.58945c-2.08833,-2.39147 -4.7661,-4.47979 -6.56812,-4.78294a3.36827,3.36827 0 0 0 -1.78518,0a8.58908,8.58908 0 0 0 -5.38923,2.08833a10.23953,10.23953 0 0 0 -3.28406,5.0524a22.58423,22.58423 0 0 0 -0.58945,2.39147a11.1658,11.1658 0 0 0 1.19573,5.97867l0.58945,1.19573a24.9757,24.9757 0 0 0 3.89035,5.0524a4.88399,4.88399 0 0 0 2.67777,1.19573a1.11153,1.11153 0 0 0 0.90943,-0.30314c1.48204,-0.58945 2.08833,-2.67777 1.78518,-5.67553c0,-0.58945 -0.58945,-3.36827 -0.58945,-4.17665a18.52547,18.52547 0 0 0 -0.67365,-2.0378s-0.30314,-2.99776 1.19573,-3.5872a2.55988,2.55988 0 0 1 2.99776,0.89259c0,0.30314 -0.30314,0.60629 -0.30314,1.19573a3.77246,3.77246 0 0 0 1.19573,3.5872a1.31362,1.31362 0 0 0 1.48204,0.30314a1.68413,1.68413 0 0 0 0.90943,-1.19573c-0.30314,-1.49888 0,-2.08833 0.58945,-2.39147m-9.26273,11.04792a2.94723,2.94723 0 0 1 -1.78518,-0.58945a13.96147,13.96147 0 0 1 -3.36827,-3.89035a5.60816,5.60816 0 0 1 5.0524,-1.78518a8.2691,8.2691 0 0 1 0.30314,2.39147c0.30314,2.08833 0,3.87351 -0.30314,3.87351m-4.47979,-9.26273a0.94311,0.94311 0 0 1 0.58945,-0.2863l0.90943,0l0,1.78518c-0.30314,0 -0.30314,0 -0.60629,0.30314c-0.58945,-0.89259 -0.58945,-1.49888 -0.89259,-1.80202m11.04792,-1.78518a3.63773,3.63773 0 0 1 0.30314,-1.49888a0.55576,0.55576 0 0 0 0,-0.89259a4.71557,4.71557 0 0 0 -1.91991,-2.02096a4.10929,4.10929 0 0 0 -3.36827,0a5.2545,5.2545 0 0 0 -2.08833,1.48204a8.5554,8.5554 0 0 0 -0.30314,5.69237l-0.60629,0l0,-2.12201a0.79154,0.79154 0 0 0 -0.89259,-0.89259a6.13025,6.13025 0 0 0 -2.39147,0a3.36827,3.36827 0 0 0 -1.78518,1.19573a2.13885,2.13885 0 0 0 0.30314,2.39147a1.07785,1.07785 0 0 1 0.2863,0.58945c0,0.30314 0.30314,0.30314 0.30314,0.60629c-0.30314,0.30314 -0.58945,0.30314 -0.89259,0.58945a11.19949,11.19949 0 0 1 -0.89259,-4.7661c0,-0.30314 0.2863,-1.19573 0.2863,-1.49888l0,-0.30314a8.5554,8.5554 0 0 1 2.69461,-4.17665a8.77434,8.77434 0 0 1 4.47979,-1.80202c2.39147,-0.2863 5.97867,2.99776 7.17441,4.47979a1.07785,1.07785 0 0 0 0.89259,0.30314a2.79566,2.79566 0 0 1 2.08833,0.60629a4.09244,4.09244 0 0 0 -2.39147,0.58945c-0.2863,0 -0.89259,0.60629 -1.19573,1.49888" class="b"/>
    <path stroke="null" id="svg_7" fill="#00adc1" d="m118.06709,173.17632a0.57261,0.57261 0 0 0 -0.89259,0a0.63997,0.63997 0 0 0 -0.58945,0.60629a0.55576,0.55576 0 0 0 0,0.89259a0.63997,0.63997 0 0 0 0.58945,0.60629c0.30314,0 0.30314,0.2863 0.60629,0.2863l0.2863,0a0.63997,0.63997 0 0 0 0.60629,-0.58945a0.55576,0.55576 0 0 0 0,-0.89259c-0.30314,-0.30314 -0.30314,-0.60629 -0.60629,-0.90943m-26.28932,-125.78792l6.56812,0l0,2.39147l-6.56812,0l0,-2.39147zm0,4.17665l6.56812,0l0,2.39147l-6.56812,0l0,-2.39147zm18.52547,-14.88774l-2.39147,0c-0.30314,0 -0.30314,0 -0.30314,0.30314l0,2.08833l-2.37463,0c-0.30314,0 -0.30314,0 -0.30314,0.30314l0,2.35779c0,0.2863 0,0.2863 0.30314,0.2863l2.08833,0l0,2.10517c0,0.2863 0,0.2863 0.2863,0.2863l2.39147,0c0.30314,0 0.30314,0 0.30314,-0.2863l0,-1.81886l2.08833,0c0.30314,0 0.30314,0 0.30314,-0.30314l0,-2.67777c0,-0.30314 0,-0.30314 -0.30314,-0.30314l-2.08833,0l0,-2.08833c0.2863,-0.25262 0.2863,-0.25262 0,-0.25262m2.39147,21.16956l0,-5.0524l1.49888,0l0,-1.49888l-9.86902,0l0,1.49888l1.49888,0l0,6.28182l1.49888,0l0,-6.3155l4.17665,0l0,5.37239a3.06512,3.06512 0 0 0 1.19573,-0.2863" class="b"/>
    <path stroke="null" id="svg_8" fill="#00adc1" d="m99.84476,32.73644l0,10.76161l-10.76161,0a0.95996,0.95996 0 0 0 -0.89259,0.89259l0,8.67329a8.067,8.067 0 0 0 2.08833,1.19573l0,-8.95959l9.86902,0l0,13.13624a5.0524,5.0524 0 0 0 2.02096,0.30314l0,-25.09359l14.04567,0l0,22.11267l2.08833,-1.49888l0,-8.67329l9.86902,0l0,4.19349l0.2863,0.2863a1.68413,1.68413 0 0 1 1.49888,-0.89259l0,-4.78294a0.94311,0.94311 0 0 0 -0.89259,-0.89259l-10.69425,0l0,-10.76161a0.94311,0.94311 0 0 0 -0.89259,-0.89259l-16.134,0a1.04416,1.04416 0 0 0 -1.49888,0.89259m8.37014,96.56821l0,7.7807a1.85255,1.85255 0 0 1 1.19573,0.2863a2.25674,2.25674 0 0 1 1.19573,0.60629l3.5872,-6.98915a5.99551,5.99551 0 0 0 -5.97867,-1.68413m-2.08833,8.01648l-2.39147,-7.46071a5.50712,5.50712 0 0 0 -5.0524,2.98092l5.38923,5.67553a3.7893,3.7893 0 0 1 2.08833,-1.19573m-11.38474,4.78294l7.76386,0a1.78518,1.78518 0 0 1 0.30314,-1.19573c0,-0.30314 0.2863,-0.89259 0.2863,-1.19573l-6.87126,-3.36827a5.77658,5.77658 0 0 0 -1.48204,5.67553m3.57036,9.34694l5.69237,-5.37239a4.66505,4.66505 0 0 1 -1.19573,-2.08833l-7.41019,2.39147a5.47343,5.47343 0 0 0 2.98092,5.0524m3.51984,2.71145l0.30314,0.30314l4.47979,0l0,-7.7807a1.85255,1.85255 0 0 1 -1.19573,-0.2863c-0.30314,0 -0.89259,-0.30314 -1.19573,-0.30314l-2.98092,5.67553l0.58945,2.39147m14.93826,-2.08833l-5.37239,-5.67553a4.90083,4.90083 0 0 1 -2.08833,1.19573l2.39147,7.46071a5.47343,5.47343 0 0 0 5.0524,-2.98092m4.21033,-9.19537l-7.76386,0a1.80202,1.80202 0 0 1 -0.30314,1.19573a2.30726,2.30726 0 0 1 -0.60629,1.19573l6.87126,3.57036a5.94499,5.94499 0 0 0 1.80202,-5.96183m-0.60629,-4.564a5.47343,5.47343 0 0 0 -2.98092,-5.0524l-5.67553,5.37239a5.0524,5.0524 0 0 1 1.19573,2.08833l7.46071,-2.40831zm-8.65645,4.19349a3.89035,3.89035 0 1 0 -3.89035,3.89035a3.97455,3.97455 0 0 0 3.89035,-3.89035m-3.5872,-43.02961l2.39147,0l0,2.39147l-2.39147,0l0,-2.39147zm0,3.89035l2.39147,0l0,2.39147l-2.39147,0l0,-2.39147zm25.69988,-3.89035l2.39147,0l0,2.39147l-2.39147,0l0,-2.39147zm0,3.89035l2.39147,0l0,2.39147l-2.39147,0l0,-2.39147zm5.37239,-39.1561l2.39147,0l0,2.39147l-2.39147,0l0,-2.39147zm-14.33198,-7.46071l2.39147,0l0,2.39147l-2.39147,0l0,-2.39147zm-79.4911,75.60075c8.067,1.78518 16.134,5.96183 20.61379,11.04792l2.69461,-0.89259c-4.47979,-5.67553 -13.74253,-10.76161 -22.71896,-12.84994a40.4192,40.4192 0 0 0 -25.68303,2.08833l0,2.99776a35.21523,35.21523 0 0 1 25.09359,-2.39147" class="b"/>
    <path stroke="null" id="svg_9" fill="#00adc1" d="m49.0513,127.46894a46.63365,46.63365 0 0 1 22.70212,13.47307l2.69461,-0.89259c-4.17665,-5.67553 -13.74253,-11.95735 -22.41582,-14.63512a16.97606,16.97606 0 0 0 1.49888,-0.90943c0.30314,-0.2863 0.89259,-0.58945 1.19573,-0.89259c8.42067,2.39147 18.52547,9.86902 22.41582,15.54455l2.67777,-0.90943c0,-0.2863 -0.2863,-0.2863 -0.2863,-0.58945a39.76239,39.76239 0 0 0 -3.36827,-3.89035c0.60629,-0.58945 2.39147,-1.48204 2.69461,-1.78518c6.28182,-3.5872 23.30841,-8.95959 31.99853,-6.56812l0.2863,0.2863a19.01387,19.01387 0 0 0 9.56588,3.36827l2.39147,0a14.68564,14.68564 0 0 0 5.0524,-1.17889a0.2863,0.2863 0 0 0 0.2863,-0.30314a8.42067,8.42067 0 0 1 4.78294,-0.30314a7.88174,7.88174 0 0 1 2.10517,1.19573a0.2863,0.2863 0 0 1 0.2863,0.30314c0.30314,0.2863 0.60629,0.58945 0.89259,0.58945a24.06627,24.06627 0 0 0 9.56588,4.78294a17.98654,17.98654 0 0 0 6.87126,-0.58945c0.30314,0 0.90943,-0.30314 1.19573,-0.30314a14.61828,14.61828 0 0 1 3.89035,-1.19573a17.4813,17.4813 0 0 1 6.87126,0a10.98055,10.98055 0 0 1 -1.19573,-3.28406l-1.78518,0a14.61828,14.61828 0 0 0 -7.7807,1.19573a3.14933,3.14933 0 0 1 -1.19573,0.2863a12.22681,12.22681 0 0 1 -4.78294,0.60629l-0.2863,0a18.35705,18.35705 0 0 1 -8.42067,-3.36827c-0.30314,0 -0.30314,-0.30314 -0.60629,-0.30314c-0.89259,-0.58945 -1.78518,-1.49888 -2.67777,-2.08833c-0.60629,-0.30314 -0.89259,-0.60629 -1.49888,-0.89259a9.16169,9.16169 0 0 0 -7.47755,0.2863a10.72793,10.72793 0 0 1 -6.26498,0.90943c-4.19349,0 -9.26273,-3.5872 -9.26273,-3.5872a35.18155,35.18155 0 0 0 -10.76161,-6.28182a44.91584,44.91584 0 0 1 12.54679,-4.47979a6.53444,6.53444 0 0 1 2.5262,-0.2863c0.89259,0 1.80202,-0.30314 2.99776,-0.30314l9.26273,0a42.28859,42.28859 0 0 1 21.50638,7.47755a8.58908,8.58908 0 0 1 1.80202,-2.69461a52.20814,52.20814 0 0 0 -10.76161,-5.37239l0,-13.79305a1.061,1.061 0 0 0 -0.30314,-0.89259a1.07785,1.07785 0 0 0 -0.89259,-0.30314l-6.56812,0l0,-0.60629c0,-0.2863 -0.30314,-0.89259 -0.60629,-0.89259l-8.42067,-5.37239l0,-1.19573l6.58496,0a1.09469,1.09469 0 0 0 0.89259,-0.30314a1.07785,1.07785 0 0 0 0.30314,-0.89259l0,-3.89035a1.07785,1.07785 0 0 0 -0.30314,-0.89259a1.09469,1.09469 0 0 0 -0.89259,-0.30314l-7.73017,0a1.09469,1.09469 0 0 0 -0.89259,0.30314a1.07785,1.07785 0 0 0 -0.30314,0.89259l0,6.28182l-8.42067,5.37239c-0.30314,0.30314 -0.60629,0.60629 -0.60629,0.89259l0,0.60629l-6.21445,0a1.04416,1.04416 0 0 0 -1.17889,1.19573l0,14.04567s-0.30314,0 -0.30314,0.2863l-1.80202,0.90943c-0.2863,0 -0.2863,0.2863 -0.58945,0.2863a24.58835,24.58835 0 0 1 -2.39147,-3.5872a8.60592,8.60592 0 0 1 -0.89259,-2.98092a9.98691,9.98691 0 0 1 -0.30314,-2.98092a13.35518,13.35518 0 0 1 0.58945,-3.36827l0.94311,-3.21669c-1.19573,0 -2.69461,-0.2863 -3.89035,-0.2863l0,-3.89035c0,-0.30314 0.30314,-0.89259 0.30314,-1.19573s0,-0.30314 0.2863,-0.60629l0,-0.62313c0.30314,-0.30314 0.30314,-0.60629 0.60629,-1.19573a0.30314,0.30314 0 0 1 0.30314,-0.30314l0,-0.18525c0,-0.30314 0.2863,-0.30314 0.2863,-0.60629l0.90943,-0.89259l0.2863,-0.30314l0.30314,0c0.30314,-0.30314 0.60629,-0.30314 0.89259,-0.58945l0.30314,-0.30314l0.60629,0c0.58945,-0.30314 1.19573,-0.30314 1.78518,-0.60629l2.98092,0a5.5408,5.5408 0 0 1 2.10517,0.60629c0.2863,0 0.2863,0 0.58945,0.30314l0.30314,0c0.30314,0 0.30314,0.2863 0.58945,0.2863c0.30314,0.30314 0.90943,0.30314 1.19573,0.60629c2.39147,0.89259 4.78294,0 7.17441,-0.60629c0.30314,0 0.89259,-0.2863 1.19573,-0.2863l0,-2.45883a1.12837,1.12837 0 0 0 -0.89259,0.2863c-0.89259,0.30314 -1.80202,0.30314 -2.99776,0.60629a1.09469,1.09469 0 0 0 -0.89259,0.30314l-3.31774,0c-0.30314,0 -0.30314,-0.30314 -0.58945,-0.30314a7.14073,7.14073 0 0 1 -1.49888,-0.89259a11.88998,11.88998 0 0 0 -4.47979,-0.90943a12.78257,12.78257 0 0 0 -8.42067,3.36827a9.8185,9.8185 0 0 0 -2.98092,5.0524a32.15011,32.15011 0 0 0 -0.30314,5.38923l-3.36827,0a23.13999,23.13999 0 0 1 1.19573,-7.7807c0.2863,-0.58945 0.2863,-1.19573 0.89259,-1.78518c0.30314,-0.30314 0.30314,-0.60629 0.58945,-0.89259l0.30314,-0.30314l0.30314,-0.30314c0.30314,-0.58945 0.89259,-0.89259 1.19573,-1.49888l0.30314,-0.2863l0.2863,0c0.30314,-0.30314 0.60629,-0.30314 0.89259,-0.60629l1.80202,-0.89259a0.30314,0.30314 0 0 0 0.30314,-0.30314l0.2863,0c0.30314,0 0.60629,-0.30314 0.90943,-0.30314c1.19573,-0.2863 2.39147,-0.58945 3.87351,-0.89259a8.70697,8.70697 0 0 0 3.89035,-1.49888a21.20324,21.20324 0 0 1 2.69461,-2.67777l0.58945,-0.60629c0.30314,-0.2863 0.60629,-0.2863 0.89259,-0.58945s0.60629,-0.30314 0.90943,-0.60629l0.2863,0c0.30314,0 0.30314,-0.2863 0.60629,-0.2863c1.19573,-0.30314 2.39147,-0.90943 3.5872,-1.19573l0.2863,0a44.44428,44.44428 0 0 1 6.58496,-0.60629a66.82641,66.82641 0 0 1 13.47307,2.39147a79.60899,79.60899 0 0 0 12.26049,2.08833l1.19573,0a18.98018,18.98018 0 0 0 11.94051,-4.47979c-0.58945,-0.58945 -1.19573,-0.89259 -1.78518,-1.49888a17.22868,17.22868 0 0 1 -9.86902,3.5872l0,-8.11752a1.14521,1.14521 0 0 0 -0.2863,-0.89259l-1.80202,-1.19573l0,-4.47979a0.79154,0.79154 0 0 0 -0.89259,-0.89259l-2.98092,0a0.79154,0.79154 0 0 0 -0.90943,0.89259l0,1.19573l-2.67777,-1.80202a0.94311,0.94311 0 0 0 -1.19573,0l-3.5872,2.69461l0,-2.39147a1.07785,1.07785 0 0 0 -0.30314,-0.89259l-1.73466,-1.19573l0,-4.51348a0.79154,0.79154 0 0 0 -0.90943,-0.89259l-2.98092,0a0.7747,0.7747 0 0 0 -0.89259,0.89259l0,1.19573l-2.69461,-1.80202a0.94311,0.94311 0 0 0 -1.19573,0l-9.26273,6.58496c-0.30314,0 -0.30314,0.2863 -0.30314,0.58945c-6.87126,2.39147 -12.54679,2.99776 -17.63288,1.49888a49.02512,49.02512 0 0 1 -16.72344,-9.56588l-0.25262,-0.18525a69.04947,69.04947 0 0 0 -13.74253,-9.26273a13.47307,13.47307 0 0 1 -2.08833,1.80202a87.44021,87.44021 0 0 1 14.04567,8.95959c5.37239,4.19349 11.04792,8.42067 17.91918,10.45847c5.38923,1.80202 11.6542,1.19573 18.52547,-1.19573l0,6.56812l1.80202,-0.58945l0,-7.84806l8.42067,-5.97867l3.5872,2.39147a0.57261,0.57261 0 0 0 0.90943,0c0.2863,-0.30314 0.58945,-0.60629 0.58945,-0.89259l0,-2.10517l0.89259,0l0,4.19349a1.09469,1.09469 0 0 0 0.30314,0.89259l1.80202,1.19573l0,3.28406l-3.5872,2.69461a1.07785,1.07785 0 0 0 -0.30314,0.89259l0,4.47979a35.61942,35.61942 0 0 0 -13.74253,-0.30314l-0.30314,0a30.70175,30.70175 0 0 0 -4.78294,1.49888a28.10819,28.10819 0 0 1 -20.31065,-1.78518c-6.93863,-2.99776 -12.32786,-8.067 -18.30653,-12.61416c-6.56812,-4.7661 -14.04567,-9.26273 -22.39897,-9.54904c-5.69237,-0.30314 -11.6542,0.2863 -17.32973,0.2863l0,2.5262c5.37239,0 10.74477,-0.2863 16.134,-0.2863a24.15047,24.15047 0 0 1 9.26273,1.48204a60.30882,60.30882 0 0 1 13.47307,7.7807c4.78294,3.28406 9.26273,7.46071 14.34882,10.45847a45.92632,45.92632 0 0 0 -11.06476,0.2863a38.46561,38.46561 0 0 0 -14.04567,4.19349a24.52098,24.52098 0 0 0 -6.3155,4.71557l1.78518,1.78518l1.19573,-1.19573l0.60629,-0.58945l0.2863,-0.30314l0.30314,0l2.69461,-1.78518a13.74253,13.74253 0 0 1 2.98092,-1.49888a0.30314,0.30314 0 0 0 0.30314,-0.30314l0.30314,0c0.2863,0 0.58945,-0.30314 0.89259,-0.30314c0.58945,-0.2863 1.19573,-0.2863 1.49888,-0.58945a49.96824,49.96824 0 0 1 14.93826,-2.08833c2.98092,0 5.97867,0.2863 9.26273,0.58945l0.30314,0a35.61942,35.61942 0 0 0 14.63512,2.39147l-0.89259,0.89259l-0.60629,0.60629l-0.2863,0c-0.30314,0 -0.30314,0.30314 -0.60629,0.30314s-0.30314,0 -0.58945,0.2863c-0.30314,0 -0.60629,0.30314 -0.90943,0.30314a18.92966,18.92966 0 0 0 -3.87351,0.89259a20.52959,20.52959 0 0 0 -3.89035,1.49888a14.46671,14.46671 0 0 0 -5.67553,6.28182a33.91845,33.91845 0 0 0 -1.80202,9.26273l-0.85891,0c-0.89259,0 -1.78518,0.2863 -2.67777,0.2863l0.89259,3.28406a9.70061,9.70061 0 0 1 0.2863,2.99776a12.37838,12.37838 0 0 1 -1.49888,5.62501a18.84545,18.84545 0 0 1 -2.05464,3.0146c-0.30314,0.60629 -0.90943,0.90943 -1.49888,1.49888l-5.0524,0a2.62725,2.62725 0 0 0 -1.48204,0.30314l0,-5.0524l2.67777,0a8.89222,8.89222 0 0 0 2.39147,-0.58945l0.89259,-0.89259a5.92815,5.92815 0 0 0 1.80202,-4.19349a0.79154,0.79154 0 0 0 -0.89259,-0.89259l-3.36827,0a5.18713,5.18713 0 0 0 -3.57036,1.19573l0,-2.12201a2.94723,2.94723 0 0 0 2.67777,-0.30314a3.19985,3.19985 0 0 0 1.80202,-2.07148a3.36827,3.36827 0 0 0 4.17665,-4.19349a3.23354,3.23354 0 0 0 2.39147,-2.39147a3.36827,3.36827 0 0 0 -0.89259,-3.28406a3.36827,3.36827 0 0 0 0.89259,-3.36827a3.25038,3.25038 0 0 0 -2.39147,-2.39147a3.36827,3.36827 0 0 0 -4.17665,-4.17665a3.25038,3.25038 0 0 0 -2.39147,-2.39147a3.36827,3.36827 0 0 0 -3.36827,0.89259a3.36827,3.36827 0 0 0 -3.36827,-0.89259a3.25038,3.25038 0 0 0 -2.39147,2.39147a3.36827,3.36827 0 0 0 -4.17665,4.17665a3.25038,3.25038 0 0 0 -2.39147,2.39147a3.36827,3.36827 0 0 0 0.89259,3.36827a3.36827,3.36827 0 0 0 -0.89259,3.28406a3.23354,3.23354 0 0 0 2.39147,2.39147a3.36827,3.36827 0 0 0 4.32822,4.19349a3.19985,3.19985 0 0 0 1.80202,2.08833a4.10929,4.10929 0 0 0 2.69461,0l0,2.69461a5.17029,5.17029 0 0 0 -3.5872,-1.19573l-3.36827,0a0.79154,0.79154 0 0 0 -0.90943,0.89259a5.87763,5.87763 0 0 0 1.80202,4.17665a4.44611,4.44611 0 0 0 2.08833,1.49888a16.7066,16.7066 0 0 0 3.89035,0l0,5.37239a40.4192,40.4192 0 0 0 -13.47307,4.78294l0,-1.19573c0.60629,-0.2863 0.89259,-0.2863 1.49888,-0.58945a14.43302,14.43302 0 0 1 2.98092,-1.19573a3.04828,3.04828 0 0 0 1.49888,-1.19573a3.77246,3.77246 0 0 0 0.30314,-1.80202l0,-0.85891a1.07785,1.07785 0 0 0 -0.30314,-0.89259c0,-0.30314 -0.30314,-0.60629 -0.30314,-0.89259l0,-0.30314l-0.15157,-0.65681a3.97455,3.97455 0 0 0 -0.90943,-1.17889l-0.2863,-0.30314l-0.30314,0c-0.89259,-1.49888 -1.49888,-1.49888 -1.80202,-1.19573c-0.58945,0 -1.78518,0.30314 -3.36827,0.30314c-0.58945,0 -0.89259,0.2863 -1.49888,0.2863a0.2863,0.2863 0 0 0 -0.25262,-0.21894l-0.30314,-0.30314l-0.58945,-0.60629c0.2863,-0.2863 0.58945,-0.89259 0.89259,-1.19573c0.89259,-1.19573 1.48204,-2.39147 1.78518,-2.67777a4.24402,4.24402 0 0 0 0.60629,-1.80202a2.55988,2.55988 0 0 0 -0.89259,-1.83571l-0.2863,-0.30314a0.30314,0.30314 0 0 1 -0.30314,-0.30314c-0.30314,-0.2863 -0.60629,-0.58945 -0.89259,-0.58945l-1.49888,-1.19573a5.55764,5.55764 0 0 0 -2.39147,-0.60629a1.68413,1.68413 0 0 0 -1.49888,0.90943a18.42442,18.42442 0 0 0 -2.39147,2.37463l-1.19573,1.19573c-0.2863,0 -0.2863,0 -0.58945,-0.2863c-0.30314,0 -0.30314,0 -0.30314,-0.30314l-0.58945,-0.30314l-0.60629,0l0,-1.48204a7.69649,7.69649 0 0 0 -0.2863,-2.47568l0,-0.84207c0,-0.58945 0,-1.19573 -0.60629,-1.48204a2.50936,2.50936 0 0 0 -2.08833,-1.19573l-4.49664,0a2.69461,2.69461 0 0 0 -2.10517,0.89259a2.34095,2.34095 0 0 0 -0.58945,1.49888a1.09469,1.09469 0 0 1 -0.30314,0.89259c0,0.58945 -0.2863,1.49888 -0.2863,2.39147c0,0.58945 0,1.19573 -0.30314,1.48204l-0.89259,0c-0.30314,0 -0.30314,0 -0.60629,0.30314l-0.30314,0c-0.2863,-0.30314 -0.58945,-0.89259 -0.89259,-1.19573a22.02847,22.02847 0 0 0 -2.13885,-2.39147a1.68413,1.68413 0 0 0 -1.49888,-0.89259a3.36827,3.36827 0 0 0 -2.39147,0.30314l-1.78518,0.89259l-1.80202,1.19573c-0.2863,0 -0.2863,0.30314 -0.58945,0.60629l0,2.67777a16.47082,16.47082 0 0 0 1.33047,2.39147a2.25674,2.25674 0 0 1 0.58945,1.49888l-0.2863,0.30314c-0.30314,0.2863 -0.30314,0.2863 -0.30314,0.58945l-0.30314,0.30314l-0.30314,0.30314c-0.2863,0 -0.2863,0 -0.58945,-0.30314l0,3.5872a1.01048,1.01048 0 0 1 0.58945,0.2863l1.19573,0.30314l0.90943,-1.48204c0,-0.30314 0.2863,-0.30314 0.58945,-0.60629l0.30314,-0.30314l0.30314,-0.2863l0,-0.30314l0.89259,-0.89259l1.19573,-1.19573l-0.67365,-0.90943l0,-0.58945a6.19761,6.19761 0 0 0 -1.19573,-1.80202a20.61379,20.61379 0 0 1 -1.22942,-2.66093l1.19573,-0.89259l1.19573,-0.90943a15.83085,15.83085 0 0 1 1.80202,2.08833a4.68189,4.68189 0 0 1 1.19573,1.80202s0,0.30314 0.2863,0.30314l0.60629,1.19573l1.19573,-0.30314l0.30314,0a2.20621,2.20621 0 0 1 1.19573,-0.30314l1.19573,0a1.09469,1.09469 0 0 0 0.89259,-0.30314l1.48204,-0.2863l0,-1.49888a13.00151,13.00151 0 0 1 0.30314,-2.69461c0,-0.58945 0.30314,-1.48204 0.30314,-2.08833l0,-0.58945l3.0146,0l0,0.58945a4.34506,4.34506 0 0 0 0.30314,2.08833l0,3.89035l1.80202,0.58945l0.89259,0l0.58945,0.30314a0.94311,0.94311 0 0 1 0.60629,0.30314a1.061,1.061 0 0 0 0.58945,0.30314c0.30314,0 0.30314,0.2863 0.60629,0.2863l0.33683,0l1.19573,0.60629l0.90943,-1.19573l0.2863,-0.30314a3.77246,3.77246 0 0 1 1.49888,-1.49888c0.89259,-0.89259 1.80202,-1.48204 2.08833,-2.08833l1.19573,0.89259c0.30314,0 0.30314,0.30314 0.60629,0.60629l0.30314,0.30314l0.2863,0.2863a24.41993,24.41993 0 0 1 -1.48204,2.39147c-0.60629,0.90943 -1.19573,1.49888 -1.49888,2.10517l-0.89259,1.19573l0.89259,0.89259a4.31138,4.31138 0 0 0 0.89259,1.19573c0,0.30314 0.30314,0.58945 0.60629,1.19573l0,0.2863l0.58945,1.19573l1.19573,-0.2863a14.85406,14.85406 0 0 0 2.69461,-0.60629a12.19313,12.19313 0 0 1 2.98092,-0.30314l0,0.30314l0.30314,1.19573c0,0.60629 0.30314,0.89259 0.30314,1.19573l0,0.30314c-0.60629,0.30314 -1.49888,0.58945 -2.69461,1.19573a20.36117,20.36117 0 0 0 -2.39147,0.89259l-1.19573,0.30314l0,2.98092a8.28594,8.28594 0 0 1 -0.30314,1.80202l0,1.19573a16.10032,16.10032 0 0 0 -2.67777,2.08833a26.76088,26.76088 0 0 1 -5.0524,2.39147a54.54908,54.54908 0 0 0 -23.89785,1.19573l0.2863,0c-0.2863,-0.30314 -0.2863,-0.60629 -0.58945,-1.19573l0,-0.31999l0.58945,-0.58945l-1.19573,0.2863l0,6.58496c8.42067,-4.47979 20.91694,-4.19349 28.39449,-2.39147m88.65278,-30.16283l0,11.6542a36.74779,36.74779 0 0 0 -5.0524,-1.19573l0,-10.45847l5.0524,0zm-14.63512,9.85218l-2.98092,0l0,-3.87351a2.08833,2.08833 0 1 1 4.17665,0l0,3.87351l-1.19573,0m5.37239,-24.50414l0,1.49888l-5.0524,0l0,-1.49888l5.0524,0zm-6.26498,7.17441l7.76386,4.78294l0,12.54679a5.27134,5.27134 0 0 1 -2.08833,-0.2863l-1.80202,0l0,-3.90719a3.5872,3.5872 0 1 0 -7.15757,0l0,3.89035l-0.30314,0c-1.19573,0 -2.39147,0.2863 -3.5872,0.2863l0,-12.54679l7.17441,-4.7661zm-10.15532,7.47755l0,10.74477l-0.30314,0c-1.80202,0.30314 -3.36827,0.90943 -4.78294,1.19573l0,-11.94051l5.08608,0zm20.37801,-31.39225l8.42067,-5.97867l3.5872,2.39147a0.55576,0.55576 0 0 0 0.89259,0c0.30314,-0.30314 0.60629,-0.60629 0.60629,-0.89259l0,-2.10517l0.89259,0l0,4.19349a1.12837,1.12837 0 0 0 0.2863,0.89259l1.80202,1.19573l0,7.47755a68.30845,68.30845 0 0 1 -11.43527,-2.10517c-1.49888,-0.2863 -3.36827,-0.89259 -5.0524,-1.19573l0,-3.87351zm-63.40762,62.14452a27.65347,27.65347 0 0 0 -2.99776,-1.78518c0.60629,-0.60629 1.19573,-0.89259 1.80202,-1.49888c5.67553,-3.89035 17.02659,-7.46071 24.79044,-8.42067a1.11153,1.11153 0 0 1 0.90943,0.30314l3.57036,0.89259l0.30314,0a68.24109,68.24109 0 0 0 -25.98618,8.72381c-0.60629,0.30314 -1.19573,0.89259 -1.80202,1.19573l-0.58945,0.58945m34.05318,-8.42067c1.19573,0.60629 2.39147,1.49888 3.5872,2.10517c-8.65645,-0.25262 -23.07263,3.63773 -29.80916,7.81438c-0.60629,0.30314 -1.19573,0.89259 -1.80202,1.19573a5.70921,5.70921 0 0 1 -1.17889,0.89259c-0.90943,-0.58945 -1.49888,-1.49888 -2.39147,-2.08833a12.4289,12.4289 0 0 1 2.00412,-1.49888c6.26498,-3.87351 21.22008,-8.65645 29.57338,-8.42067m-17.90234,-8.85854a9.16169,9.16169 0 0 0 1.48204,-2.98092a12.81626,12.81626 0 0 0 1.19573,-5.67553a15.1572,15.1572 0 0 0 -0.2863,-3.5872a43.36644,43.36644 0 0 1 6.26498,-0.30314l1.56624,0a14.78669,14.78669 0 0 0 -0.58945,3.5872a25.78408,25.78408 0 0 0 0.58945,4.73241a20.2096,20.2096 0 0 0 1.19573,2.98092c0,0.30314 0.30314,0.30314 0.30314,0.60629c0.58945,0.89259 1.19573,2.08833 1.78518,2.98092a6.50075,6.50075 0 0 0 -1.78518,1.19573l-0.30314,0c-0.30314,0 -0.60629,-0.30314 -1.19573,-0.30314a32.75639,32.75639 0 0 0 -5.67553,-1.19573a15.1572,15.1572 0 0 0 -3.65457,-0.35367l-2.08833,0a15.29193,15.29193 0 0 1 1.19573,-1.68413m-7.7807,-8.067l2.10517,0a3.89035,3.89035 0 0 1 -3.89035,3.0146l-2.10517,0l0,-0.67365a5.45659,5.45659 0 0 1 3.87351,-2.39147m-1.17889,-5.35554c0,0.2863 -0.2863,0.58945 -0.89259,0.58945a1.78518,1.78518 0 0 1 -1.19573,-0.30314c-0.2863,-0.2863 -0.58945,-0.58945 -0.58945,-0.89259l0,-2.10517c0.30314,0 0.89259,-0.30314 1.19573,-0.30314l0.89259,1.80202c0.58945,0.58945 0.58945,0.89259 0.58945,1.19573m3.89035,-1.80202c-0.30314,0.30314 -0.58945,0.30314 -1.19573,0.30314c-0.30314,0 -0.58945,-0.30314 -0.89259,-0.58945l-0.89259,-1.80202l0.89259,-0.89259l1.78518,0.89259c0.30314,0.30314 0.60629,0.60629 0.60629,0.89259a1.68413,1.68413 0 0 1 -0.30314,1.19573m2.69461,-4.78294c0,0.30314 -0.30314,0.60629 -0.60629,0.90943l-1.19573,0l-1.78518,-0.90943a1.68413,1.68413 0 0 0 0.30314,-1.19573l2.08833,0c0.30314,0 0.58945,0.30314 0.89259,0.60629c0.30314,-0.30314 0.30314,0.30314 0.30314,0.58945m-2.08833,-5.96183a0.89259,0.89259 0 0 1 1.19573,0c0.2863,0 0.58945,0.2863 0.58945,0.89259a1.78518,1.78518 0 0 1 -0.30314,1.19573c-0.2863,0.30314 -0.58945,0.58945 -0.89259,0.58945l-2.08833,0c0,-0.2863 -0.30314,-0.89259 -0.30314,-1.19573l1.80202,-1.48204zm-2.69461,-3.89035c0.30314,-0.30314 0.58945,-0.60629 0.89259,-0.60629s0.89259,0 0.89259,0.30314a1.09469,1.09469 0 0 1 0.30314,0.89259c0,0.30314 -0.30314,0.60629 -0.58945,0.90943l-1.80202,0.89259l-0.82523,-0.89259l1.12837,-1.49888zm-4.17665,-1.49888c0,-0.30314 0.2863,-0.58945 0.58945,-0.89259s0.58945,-0.30314 1.19573,-0.30314c0.30314,0 0.58945,0.30314 0.89259,0.60629l0,1.19573l-0.89259,1.78518a1.78518,1.78518 0 0 0 -1.19573,-0.30314l0,-2.08833l-0.58945,0zm-4.78294,-0.57261c0,-0.30314 0.2863,-0.60629 0.89259,-0.60629a1.78518,1.78518 0 0 1 1.19573,0.30314c0.30314,0.30314 0.58945,0.58945 0.58945,0.89259l0,2.08833c-0.2863,0 -0.89259,0.30314 -1.19573,0.30314l-1.19573,-1.78518a1.88623,1.88623 0 0 1 -0.2863,-1.19573m-3.5872,2.08833c0.2863,-0.30314 0.58945,-0.30314 1.19573,-0.30314c0.2863,0 0.58945,0.30314 0.89259,0.60629l0.90943,1.76834l-0.89259,0.89259l-1.80202,-0.89259c-0.2863,-0.30314 -0.58945,-0.58945 -0.58945,-0.89259c-0.30314,-0.60629 0,-0.89259 0.30314,-1.19573m-2.69461,4.47979c0,-0.30314 0.30314,-0.58945 0.60629,-0.89259l1.19573,0l1.78518,0.89259a1.78518,1.78518 0 0 0 -0.30314,1.19573l-2.10517,0c-0.30314,0 -0.58945,-0.30314 -0.89259,-0.58945c-0.30314,0.2863 -0.60629,-0.30314 -0.30314,-0.60629m1.80202,6.28182c-0.30314,0.2863 -0.60629,0.2863 -1.19573,0c-0.30314,0 -0.60629,-0.30314 -0.60629,-0.90943a1.80202,1.80202 0 0 1 0.30314,-1.19573c0.30314,-0.2863 0.58945,-0.58945 0.89259,-0.58945l2.08833,0c0,0.30314 0.30314,0.89259 0.30314,1.19573l-1.78518,1.49888zm2.67777,3.5872c-0.30314,0.2863 -0.58945,0.58945 -0.89259,0.58945s-0.89259,0 -0.89259,-0.30314a1.061,1.061 0 0 1 -0.30314,-0.89259c0,-0.30314 0.30314,-0.58945 0.58945,-0.89259l1.80202,-0.89259l0.89259,0.89259l-1.19573,1.49888zm0.89259,-7.17441a4.49664,4.49664 0 1 1 4.49664,4.47979a4.24402,4.24402 0 0 1 -4.49664,-4.47979m2.99776,9.85218c-0.30314,0.30314 -0.60629,0.30314 -1.19573,0.30314c-0.30314,0 -0.60629,-0.30314 -0.89259,-0.60629s0,-0.89259 0,-1.17889l0.89259,-1.80202a1.78518,1.78518 0 0 0 1.19573,0.30314l0,2.08833a0.55576,0.55576 0 0 1 0,0.89259m-1.80202,7.84806a4.10929,4.10929 0 0 1 -3.87351,-2.99776l2.08833,0a3.60405,3.60405 0 0 1 3.5872,2.69461l0,0.30314l-1.80202,0zm-8.65645,14.02883a37.37092,37.37092 0 0 1 13.15308,-3.92403a12.00787,12.00787 0 0 1 3.36827,-0.30314l7.0902,0a53.89227,53.89227 0 0 0 -18.23916,7.47755c-0.58945,0.58945 -1.19573,0.89259 -1.78518,1.48204l-0.30314,0.30314a31.49329,31.49329 0 0 0 -6.56812,-2.98092a12.19313,12.19313 0 0 1 3.36827,-2.10517m-14.73617,111.74225l-1.14521,1.80202a13.47307,13.47307 0 0 1 -3.57036,-1.80202l1.78518,-2.39147l1.19573,-1.48204c-0.30314,0 -1.19573,-0.90943 -1.49888,-1.19573c-3.87351,-3.36827 -11.6542,-7.7807 -17.63288,-8.42067c-0.58945,0 -3.57036,-0.30314 -4.17665,-0.30314l0,6.28182c0.89259,0 1.80202,0.2863 2.69461,0.2863a27.67031,27.67031 0 0 1 14.88774,7.81438l0.58945,0.58945a13.18676,13.18676 0 0 0 5.38923,2.69461a8.03332,8.03332 0 0 1 -2.39147,4.47979a3.04828,3.04828 0 0 0 -1.49888,-1.19573a7.19125,7.19125 0 0 0 -4.78294,-1.19573a14.70248,14.70248 0 0 1 -4.17665,-0.58945a10.52583,10.52583 0 0 1 -4.47979,-3.5872c-0.90943,-0.90943 -1.19573,-2.10517 -2.39147,-2.99776a7.05652,7.05652 0 0 0 -3.89035,-1.48204l0,1.78518a4.90083,4.90083 0 0 1 2.69461,0.89259c0.58945,0.30314 2.08833,2.69461 2.98092,3.5872a17.54867,17.54867 0 0 0 3.89035,2.99776a17.8855,17.8855 0 0 0 5.97867,1.19573l0.2863,0a6.56812,6.56812 0 0 1 3.36827,0.58945c0.2863,0 0.58945,0.58945 1.19573,1.19573l0.89259,1.49888a0.30314,0.30314 0 0 0 0.30314,-0.30314l0.2863,-0.30314c0.30314,-0.30314 0.90943,-0.58945 1.19573,-0.89259l-0.2863,-0.30314a10.89634,10.89634 0 0 0 2.84619,-5.28818l0,-0.60629a7.02284,7.02284 0 0 1 0.30314,-1.19573l-0.90943,0l0.90943,-1.19573l0.89259,-0.89259l0.89259,-1.19573l-4.47979,-0.89259l1.85255,2.02096zm-22.11267,-9.26273c-0.58945,0 -1.48204,-0.30314 -2.08833,-0.30314l1.80202,-2.39147l0.89259,0a5.62501,5.62501 0 0 1 2.39147,0.60629l-2.08833,2.39147a2.34095,2.34095 0 0 1 -0.90943,-0.30314m2.99776,0.89259l2.08833,-2.39147c1.49888,0.60629 2.69461,1.19573 4.19349,1.80202l-1.78518,2.08833a27.43453,27.43453 0 0 0 -4.47979,-1.49888m5.67553,2.39147l1.78518,-2.39147a12.37838,12.37838 0 0 0 2.69461,1.49888l-1.80202,2.40831a11.51947,11.51947 0 0 0 -2.69461,-1.49888m4.17665,2.39147l1.80202,-2.39147a10.69425,10.69425 0 0 1 2.69461,2.10517l-1.80202,2.67777c-0.89259,-0.89259 -1.78518,-1.48204 -2.69461,-2.39147m3.3009,-23.91469a17.76761,17.76761 0 0 1 9.86902,4.78294l1.19573,-2.39147a16.84133,16.84133 0 0 0 -9.85218,-4.78294l-1.21258,2.39147zm-5.38923,9.54904a20.2096,20.2096 0 0 1 9.86902,4.78294l1.19573,-2.39147a16.84133,16.84133 0 0 0 -9.86902,-4.78294l-1.19573,2.39147zm2.69461,-4.7661a20.04119,20.04119 0 0 1 9.85218,4.7661l1.19573,-2.39147a16.84133,16.84133 0 0 0 -9.85218,-4.78294l-1.19573,2.40831zm-4.17665,-5.3387a31.5775,31.5775 0 0 0 -5.97867,-3.5872c0.2863,-0.2863 0.89259,-1.17889 0.58945,-1.48204s-0.89259,0 -1.49888,0.30314c0,-0.60629 -0.2863,-1.19573 -0.58945,-1.19573s-0.89259,1.19573 -0.89259,1.48204a11.97419,11.97419 0 0 0 -4.19349,-0.89259l0,2.69461a26.94613,26.94613 0 0 1 11.3679,4.78294l1.19573,-2.10517zm-12.56364,3.25038l0.30314,0a28.15871,28.15871 0 0 1 8.067,4.17665l1.19573,-2.39147a31.20699,31.20699 0 0 0 -9.56588,-4.78294l0,2.99776m15.83085,-8.97643c-0.30314,0 -0.30314,0 -0.30314,-0.2863c-0.60629,-0.30314 -0.89259,-0.60629 -1.49888,-0.90943a1.07785,1.07785 0 0 0 0.60629,-0.2863c0.2863,-0.30314 0.89259,-1.19573 0.58945,-1.49888s-1.19573,0 -1.49888,0.30314c0,-0.60629 -0.2863,-1.19573 -0.58945,-1.19573s-0.89259,1.19573 -0.89259,1.48204l0,0.60629a39.8466,39.8466 0 0 0 -8.42067,-2.69461c0.30314,0 0.30314,-0.30314 0.30314,-0.58945s0.2863,-1.80202 0,-1.80202s-0.90943,0.60629 -1.19573,1.19573c-0.30314,-0.58945 -0.89259,-1.19573 -1.19573,-1.19573s-0.30314,1.49888 0,1.80202l0,0.2863c-0.60629,0 -1.19573,-0.2863 -1.80202,-0.2863l0,2.67777a43.16434,43.16434 0 0 1 14.34882,5.0524l1.5494,-2.66093z" class="b"/>
    <path stroke="null" id="svg_10" fill="#00adc1" d="m40.09171,242.5121c-0.60629,-0.60629 -0.90943,-1.19573 -1.49888,-1.49888a7.19125,7.19125 0 0 0 -4.78294,-1.19573a14.63512,14.63512 0 0 1 -4.17665,-0.58945a10.57636,10.57636 0 0 1 -4.49664,-3.5872c-0.89259,-0.90943 -1.19573,-2.10517 -2.37463,-2.99776c-0.60629,-0.30314 -1.19573,-0.89259 -1.80202,-0.89259l0,1.78518c0.30314,0 0.30314,0.30314 0.60629,0.30314c0.58945,0.30314 2.08833,2.69461 2.98092,3.5872a17.12764,17.12764 0 0 0 3.89035,3.03144a17.06027,17.06027 0 0 0 5.96183,1.19573l0.30314,0a6.34918,6.34918 0 0 1 3.36827,0.60629c0.30314,0 0.60629,0.58945 1.19573,1.19573l0.90943,1.49888a0.2863,0.2863 0 0 0 0.2863,-0.30314a7.14073,7.14073 0 0 0 1.49888,-0.89259l-0.30314,-0.30314a3.23354,3.23354 0 0 1 -1.48204,-0.89259m16.94238,-76.20704a1.29678,1.29678 0 0 0 -1.19573,-1.19573a1.27994,1.27994 0 0 0 -1.19573,1.19573a1.27994,1.27994 0 0 0 1.19573,1.19573c0.58945,0.30314 1.19573,-0.2863 1.19573,-1.19573m-5.08608,-0.33683a1.27994,1.27994 0 0 0 1.19573,-1.19573a1.27994,1.27994 0 0 0 -1.19573,-1.19573a1.27994,1.27994 0 0 0 -1.19573,1.19573c-0.2863,0.58945 0.30314,1.19573 1.19573,1.19573m19.21259,-0.19873l3.57878,-6.56812l1.56624,0.85554l-3.5771,6.56644l-1.56793,-0.85386zm4.09581,2.48578l3.57878,-6.56644l1.56793,0.85554l-3.57878,6.56475l-1.56793,-0.85386zm4.04024,2.10348l3.5771,-6.56475l1.56793,0.85386l-3.57878,6.56644l-1.56624,-0.85554zm22.26593,13.2255a10.71109,10.71109 0 0 0 -2.99776,-0.2863c-1.78518,0.2863 -3.5872,0.89259 -5.37239,1.19573l-3.5872,0.89259a12.49627,12.49627 0 0 1 -3.36827,0.58945l-1.19573,0c-0.60629,0 -1.19573,-0.2863 -1.80202,-0.2863a9.14484,9.14484 0 0 1 -2.98092,-1.19573c-0.89259,-0.60629 -2.08833,-1.19573 -2.99776,-1.80202a9.75113,9.75113 0 0 0 -2.98092,-1.78518a8.18489,8.18489 0 0 0 -3.89035,-0.90943a17.16132,17.16132 0 0 0 -3.87351,0.60629c-0.90943,0.30314 -2.08833,0.58945 -2.99776,0.89259c-0.2863,0 -0.89259,0.30314 -1.19573,0.30314l-5.28818,0l-2.69461,-0.89259l-0.58945,0c-0.30314,0 -0.60629,-0.30314 -0.89259,-0.30314c-0.60629,-0.30314 -0.90943,-0.60629 -1.49888,-0.89259c-0.30314,-0.30314 -0.60629,-0.30314 -0.89259,-0.60629c-0.30314,0 -0.30314,-0.30314 -0.60629,-0.30314a42.47384,42.47384 0 0 0 -14.04567,-7.44387a55.07116,55.07116 0 0 0 -12.54679,-2.39147l-2.39147,0l0,2.39147l1.80202,0a5.65869,5.65869 0 0 1 2.37463,0.30314a2.77882,2.77882 0 0 1 1.49888,0.2863l1.19573,0a49.96824,49.96824 0 0 1 6.28182,1.49888a10.98055,10.98055 0 0 1 3.28406,1.19573c0.30314,0 0.58945,0.30314 0.89259,0.30314l0.60629,0l1.78518,0.89259c1.19573,0.60629 2.69461,1.49888 3.89035,2.08833l3.5872,2.69461l-2.69461,2.69461a13.74253,13.74253 0 0 0 -2.98092,-1.49888a1.09469,1.09469 0 0 0 0.89259,-0.30314c0.30314,-0.30314 1.19573,-1.19573 0.58945,-1.49888c-0.2863,-0.2863 -0.89259,0 -1.48204,0.30314c0,-0.58945 -0.30314,-1.19573 -0.60629,-1.19573s-0.89259,1.19573 -0.89259,1.49888l0,0.58945a41.1939,41.1939 0 0 0 -8.67329,-2.67777l0.30314,-0.30314c0.30314,-0.30314 0.89259,-1.49888 0.30314,-1.78518c-0.30314,-0.30314 -0.89259,0.2863 -1.49888,0.58945c-0.30314,-0.58945 -0.30314,-0.89259 -0.89259,-1.19573c-0.30314,0 -0.60629,1.19573 -0.60629,1.49888l0,0.58945c-1.78518,-0.2863 -3.87351,-0.58945 -5.97867,-0.89259a0.30314,0.30314 0 0 1 0.30314,-0.30314c0,-0.2863 0.30314,-1.78518 0,-1.78518s-0.89259,0.58945 -1.19573,1.19573c-0.2863,-0.60629 -0.89259,-1.19573 -1.19573,-1.19573s-0.2863,1.49888 0,1.78518l0,0.30314l-1.48204,0l0,3.36827l1.19573,0a50.7261,50.7261 0 0 1 21.50638,5.38923c-0.58945,0.89259 -1.19573,2.08833 -1.78518,2.98092a16.84133,16.84133 0 0 0 -3.36827,-1.49888l0.30314,-0.2863c0.30314,-0.30314 1.19573,-1.19573 0.60629,-1.49888c-0.30314,-0.30314 -0.90943,0 -1.49888,0.30314c0,-0.60629 -0.30314,-1.19573 -0.60629,-1.19573s-0.89259,1.19573 -0.89259,1.48204l0,0.30314a32.47009,32.47009 0 0 0 -5.67553,-1.49888c0.30314,-0.2863 0.89259,-1.48204 0.30314,-1.78518c-0.30314,-0.30314 -0.89259,0.30314 -1.49888,0.58945c-0.30314,-0.58945 -0.30314,-0.89259 -0.89259,-1.19573c-0.30314,0 -0.60629,1.19573 -0.60629,1.49888c-1.19573,-0.30314 -2.67777,-0.30314 -3.87351,-0.58945c0,0 0,-0.30314 0.2863,-0.30314c0,-0.30314 0.30314,-1.80202 0,-1.80202s-0.89259,0.60629 -1.17889,1.19573c-0.30314,-0.58945 -0.90943,-1.19573 -1.19573,-1.19573s-0.30314,1.49888 0,1.80202l0,0.30314l-0.84207,0l0,2.98092l0.90943,0c11.35106,0.30314 21.89373,5.0524 27.48506,11.95735c-3.36827,-1.49888 -7.76386,-2.99776 -7.76386,-2.99776l-1.19573,-0.2863l-11.06476,19.41806a19.41806,19.41806 0 0 0 -8.65645,-3.89035l0,2.39147a16.15084,16.15084 0 0 1 7.69649,4.09244l1.49888,0.58945s5.96183,2.39147 7.76386,3.36827a40.60446,40.60446 0 0 1 6.56812,4.47979l1.19573,0.90943l11.6542,-22.11267l-0.89259,-0.60629l-0.89259,-0.89259l-0.30314,-0.60629a24.87465,24.87465 0 0 0 -6.56812,-8.42067a33.91845,33.91845 0 0 1 4.17665,-5.0524l0,-3.5872a28.17555,28.17555 0 0 0 -6.56812,6.87126c-0.60629,-0.58945 -1.49888,-0.89259 -2.08833,-1.49888l0.2863,-0.2863a21.43902,21.43902 0 0 1 1.49888,-2.69461a20.07487,20.07487 0 0 1 2.39147,-2.69461a19.21596,19.21596 0 0 1 2.69461,-2.39147a17.90234,17.90234 0 0 0 8.72381,2.39147a13.79305,13.79305 0 0 0 5.0524,-0.89259l3.5872,-0.89259l1.48204,0a2.64409,2.64409 0 0 1 1.49888,0.30314c2.39147,0.58945 3.89035,2.08833 5.97867,3.36827a24.94202,24.94202 0 0 0 6.56812,2.67777a14.36566,14.36566 0 0 0 3.5872,0.30314a23.25788,23.25788 0 0 0 3.89035,-0.89259c1.19573,-0.30314 2.08833,-0.58945 3.36827,-0.89259c0.89259,-0.30314 1.78518,-0.60629 2.39147,-0.89259c0.58945,0 0.89259,-0.30314 1.49888,-0.30314l1.78518,0c0.30314,0 0.60629,0 0.60629,0.30314a0.2863,0.2863 0 0 1 0.2863,0.2863c0.30314,0 0.30314,0.30314 0.60629,0.30314l0.30314,0.30314a19.46858,19.46858 0 0 0 4.17665,-0.30314c-0.89259,-0.58945 -1.49888,-0.89259 -2.39147,-1.49888c-0.30314,-1.78518 -0.89259,-2.08833 -1.78518,-2.39147m-50.55768,17.80129c1.49888,0.89259 2.69461,2.08833 3.5872,2.69461l-9.8185,18.81177a38.85296,38.85296 0 0 0 -6.56812,-4.17665c-1.19573,-0.58945 -5.67553,-2.39147 -7.46071,-3.36827l10.45847,-18.52547c1.48204,0.58945 4.7661,1.78518 7.15757,2.67777l2.69461,1.80202" class="b"/>
    <path stroke="null" id="svg_11" fill="#00adc1" d="m120.17225,180.65388c-0.90943,0.30314 -1.80202,0.30314 -2.39147,0.58945a3.77246,3.77246 0 0 1 -1.80202,0.30314l-2.39147,0c-0.58945,0 -0.89259,-0.30314 -1.48204,-0.30314a7.42703,7.42703 0 0 0 -2.39147,-0.58945a2.18937,2.18937 0 0 1 -1.19573,-0.60629l-0.30314,0c-0.30314,0 -0.30314,-0.2863 -0.60629,-0.2863c-0.2863,-0.30314 -0.58945,-0.30314 -1.19573,-0.60629l1.49888,-22.11267a4.34506,4.34506 0 0 1 -2.08833,0.30314l-0.2863,0l-0.58945,10.1048l-2.08833,-0.58945l2.39147,-9.56588a7.22493,7.22493 0 0 1 -2.39147,-0.58945l-2.37463,9.65008l-2.10517,-0.58945l4.19349,-9.26273c-0.89259,-0.60629 -1.80202,-1.19573 -1.80202,-1.49888l-10.74477,23.57787c-0.30314,0.2863 -0.30314,0.89259 -0.60629,1.19573l-3.92403,0c-0.89259,-0.30314 -2.08833,-0.60629 -2.98092,-0.90943l-0.30314,0a1.07785,1.07785 0 0 1 -0.58945,-0.2863c-0.60629,-0.30314 -0.89259,-0.60629 -1.49888,-0.89259l-2.69461,-1.80202a14.78669,14.78669 0 0 0 -5.96183,-2.39147a23.57787,23.57787 0 0 0 -6.28182,1.19573c-0.58945,0.30314 -1.49888,0.30314 -2.08833,0.60629l-4.71557,0a20.36117,20.36117 0 0 0 4.78294,-11.3679l0,-2.99776l-2.15569,0a13.1194,13.1194 0 0 1 -4.19349,-1.19573l31.99853,-17.32973l-2.69461,5.0524c-0.30314,0.58945 0,0.89259 0.30314,1.17889l0.2863,0.30314a2.40831,2.40831 0 1 1 -3.36827,0.89259l-1.38099,-0.85891a4.93451,4.93451 0 0 0 -0.30314,3.5872l-8.95959,1.49888l-0.60629,-0.30314c-0.58945,-0.30314 -0.89259,0 -1.19573,0.30314l-6.26498,11.35106c-0.30314,0.60629 0,0.89259 0.2863,1.19573l17.63288,9.56588c0.60629,0.30314 0.89259,0 1.19573,-0.30314l6.28182,-11.35106c0.2863,-0.60629 0,-0.89259 -0.30314,-1.19573l-1.49888,-0.89259l-2.39147,-7.47755a4.2777,4.2777 0 0 0 4.19349,-4.17665a3.73878,3.73878 0 0 0 -1.80202,-3.36827l3.83982,-6.8039l-1.19573,-3.87351l-40.9076,14.63512l1.49888,-2.69461a2.42515,2.42515 0 0 0 -0.89259,-0.2863c-0.60629,-0.30314 -1.19573,-0.89259 -1.80202,-1.19573a34.86156,34.86156 0 0 0 -5.67553,-2.99776l1.49888,-2.98092l1.48204,-2.69461l1.80202,-2.98092l-10.1048,-0.60629l5.67553,5.0524l-1.90307,3.62089a48.03148,48.03148 0 0 0 -16.134,-2.99776l-3.25038,0l-1.78518,3.36827l0,7.15757l6.01236,0a40.18342,40.18342 0 0 1 23.91469,9.56588a11.51947,11.51947 0 0 0 1.19573,0.89259a22.85369,22.85369 0 0 0 8.65645,3.36827a14.68564,14.68564 0 0 1 -5.0524,10.45847c-0.30314,-0.30314 -0.89259,-0.30314 -1.49888,-0.60629a25.78408,25.78408 0 0 1 -2.98092,-1.78518a42.52437,42.52437 0 0 0 -14.12988,-7.61228a55.23958,55.23958 0 0 0 -12.52995,-2.42515l-3.89035,0l0,2.39147l3.36827,0a5.77658,5.77658 0 0 1 2.39147,0.30314a2.71145,2.71145 0 0 1 1.49888,0.30314l1.19573,0a46.88627,46.88627 0 0 1 6.26498,1.48204a10.98055,10.98055 0 0 1 3.36827,1.19573c0.30314,0 0.60629,0.30314 0.90943,0.30314l0.58945,0l1.80202,0.89259c1.19573,0.60629 2.67777,1.49888 3.87351,2.08833a39.76239,39.76239 0 0 1 3.5872,2.69461l0.30314,0.30314a21.08535,21.08535 0 0 0 10.1048,3.87351a23.47682,23.47682 0 0 0 4.47979,-0.2863a6.85442,6.85442 0 0 0 2.39147,-0.60629c1.19573,-0.2863 2.08833,-0.58945 3.28406,-0.89259a6.93863,6.93863 0 0 1 5.38923,1.19573a17.31289,17.31289 0 0 1 2.39147,1.78518a11.90682,11.90682 0 0 0 2.67777,1.49888a22.1632,22.1632 0 0 0 6.28182,1.80202a16.74029,16.74029 0 0 0 5.37239,-0.60629c0.30314,0 0.60629,-0.30314 1.19573,-0.30314l2.64409,-0.89259c0.30314,0 0.30314,0 0.58945,-0.30314l0.30314,0c0.30314,0 0.89259,-0.2863 1.19573,-0.2863l3.89035,0a4.14297,4.14297 0 0 1 1.78518,0.58945l0.30314,0c0.30314,0.30314 0.89259,0.30314 1.19573,0.60629c0.30314,0 0.30314,0.2863 0.60629,0.2863l0.58945,0c0.58945,0.30314 1.49888,0.60629 2.08833,0.90943a22.38213,22.38213 0 0 0 4.78294,1.48204a9.70061,9.70061 0 0 0 4.17665,0c0.60629,-0.2863 1.19573,-0.2863 2.10517,-0.58945c0.2863,0 0.89259,-0.30314 1.19573,-0.30314l1.78518,0c0.30314,0 0.89259,0.30314 1.19573,0.30314c0.89259,-0.30314 2.08833,-0.60629 2.98092,-0.89259a7.67965,7.67965 0 0 0 -3.87351,-1.80202c-0.60629,-1.19573 -1.49888,-1.19573 -2.08833,-0.89259m-36.59622,-25.66619l2.39147,6.56812l-9.80166,-5.67553l7.41019,-0.89259zm4.78294,9.86902l-5.37239,9.85218l-16.08347,-8.65645l5.38923,-9.86902l16.06663,8.67329zm-0.23578,-24.21784l-11.95735,6.58496l-3.57036,-0.89259l15.52771,-5.69237zm-18.82861,7.22493l3.5872,0.89259l-4.78294,2.69461l1.19573,-3.5872zm-2.39147,0.30314l-1.19573,4.17665l-5.37239,-1.83571l6.56812,-2.34095zm-20.91694,4.74926l-0.2863,0a46.61681,46.61681 0 0 0 -18.52547,-5.37239a31.99853,31.99853 0 0 0 -5.38923,0l2.39147,-4.49664l1.49888,0a40.28447,40.28447 0 0 1 22.41582,6.50075l-2.10517,3.36827zm7.47755,5.37239a2.0378,2.0378 0 0 1 -1.19573,-0.89259l-3.5872,-2.69461l0,-0.2863l6.56812,-2.39147l-1.78518,6.26498zm4.17665,-6.26498l5.72605,1.76834l-7.51124,4.17665l1.78518,-5.94499zm40.04869,25.98618a10.44163,10.44163 0 0 1 -2.98092,0.60629a7.42703,7.42703 0 0 1 -2.39147,0.58945l5.0524,-11.35106l2.39147,0.60629l-2.07148,9.54904zm6.56812,0.30314a17.34657,17.34657 0 0 0 -4.17665,-0.58945l2.08833,-8.42067l2.39147,0.58945l-0.30314,8.42067zm40.04869,-57.68157a16.84133,16.84133 0 0 0 -0.89259,-2.10517a1.11153,1.11153 0 0 0 0.2863,-0.89259c0,-0.2863 -0.2863,-0.58945 -0.89259,-0.89259a0.30314,0.30314 0 0 1 -0.30314,-0.30314c0,-0.2863 0,-0.2863 -0.2863,-0.58945c-0.60629,-0.60629 -0.90943,-1.19573 -1.49888,-1.49888a0.55576,0.55576 0 0 0 -0.89259,0c-0.30314,0 -0.30314,0.30314 -0.30314,0.60629s0,0.2863 0.30314,0.58945l0.2863,0.30314l0.90943,0.89259l0,0.30314c-0.30314,0.30314 -0.30314,0.30314 -0.30314,0.58945s0,0.60629 0.30314,0.60629c0.2863,0.2863 0.2863,0.2863 0.58945,0.2863a4.24402,4.24402 0 0 1 0.60629,1.80202l0.2863,0.30314l1.80202,0zm-4.78294,6.26498a2.25674,2.25674 0 0 0 1.19573,0.60629l0,-0.60629a7.15757,7.15757 0 0 1 1.78518,-3.36827l0,-0.30314l0.30314,0l5.0524,0.30314l0.2863,0l0,0.30314a9.83534,9.83534 0 0 1 1.49888,3.5872l0,2.76198c0.89259,0 1.49888,-0.2863 2.08833,-0.2863l0,-2.39147a10.35742,10.35742 0 0 0 -1.78518,-4.19349c-0.30314,-0.2863 -0.30314,-0.58945 -0.89259,-0.89259a2.27358,2.27358 0 0 0 -1.19573,-0.30314l-5.0524,-0.2863a1.85255,1.85255 0 0 0 -1.19573,0.2863c-0.30314,0.30314 -0.58945,0.60629 -0.89259,0.60629a9.71745,9.71745 0 0 0 -2.08833,3.89035c0.58945,0 0.58945,0 0.89259,0.2863" class="b"/>
   </g>
  </g>
 </g>
</svg>
