<svg width="500" height="500" xmlns="http://www.w3.org/2000/svg" xml:space="preserve" version="1.1">
 <metadata id="metadata8">image/svg+xml</metadata>

 <g>
  <title>Layer 1</title>
  <g transform="matrix(2.9012 0 0 -2.9012 459.902 1006.25)" id="g10">
   <g transform="translate(0 2.84217e-14) scale(0.1 0.1)" id="g12">
    <path id="path266" d="m-904.29836,2231.32529c0,105.731 85.71,191.441 191.44,191.441c105.72,0 191.43,-85.71 191.43,-191.441c0,-105.719 -85.71,-191.43 -191.43,-191.43c-105.73,0 -191.44,85.711 -191.44,191.43zm493.25,0c0,14.68 -1.1,29.102 -3.13,43.223l78.18,33.867l-23.32,71.781l-81.43,-18.16c-14.25,29.609 -33.23,56.488 -55.9,79.77l43.37,73.402l-61.07,44.367l-55.21,-62.57c-28.28,15.281 -59.3,26.121 -92.1,31.73l-8.06,84.841l-75.48,0l-7.9,-83.181c-33.05,-4.41 -64.41,-14.117 -93.18,-28.328l-56.36,63.86l-61.06,-44.36l42.52,-71.961c-23.53,-22.461 -43.43,-48.648 -58.74,-77.672l-83.142,18.543l-23.324,-71.781l76.646,-33.211c-3.185,-17.578 -4.939,-35.66 -4.939,-54.16c0,-14.668 1.105,-29.09 3.129,-43.207l-78.176,-33.871l23.32,-71.781l81.426,18.16c14.25,-29.61 33.24,-56.488 55.9,-79.77l-43.36,-73.41l61.06,-44.359l55.21,62.57c28.28,-15.289 59.3,-26.121 92.1,-31.73l8.06,-84.84l75.48,0l7.9,83.179c33.05,4.399 64.41,14.122 93.19,28.329l56.35,-63.86l61.06,44.36l-42.51,71.961c23.52,22.46 43.42,48.652 58.73,77.671l83.15,-18.55l23.32,71.789l-76.65,33.211c3.19,17.578 4.94,35.66 4.94,54.148" fill="#17282f" fill-rule="nonzero"/>
    <path id="path268" d="m-712.86836,2417.76629c-102.8,0 -186.43,-83.628 -186.43,-186.441c0,-102.801 83.63,-186.43 186.43,-186.43c102.81,0 186.45,83.629 186.45,186.43c0,102.813 -83.64,186.441 -186.45,186.441zm0,-382.871c-108.31,0 -196.43,88.121 -196.43,196.43c0,108.313 88.12,196.441 196.43,196.441c108.32,0 196.45,-88.128 196.45,-196.441c0,-108.309 -88.13,-196.43 -196.45,-196.43zm-38.59,-180.8l66.38,0l7.47,78.64c0.22,2.321 2.01,4.18 4.32,4.492c32.01,4.258 62.84,13.641 91.64,27.848c2.01,1.02 4.45,0.531 5.96,-1.168l53.34,-60.461l53.7,39.02l-40.2,68.05c-1.18,2.012 -0.83,4.551 0.85,6.161c23.36,22.3 42.79,47.988 57.77,76.379c1.04,1.992 3.27,3.039 5.51,2.55l78.71,-17.558l20.51,63.136l-72.48,31.391c-2.13,0.93 -3.34,3.199 -2.93,5.481c3.23,17.8 4.86,35.722 4.86,53.269c0,13.973 -1.03,28.27 -3.08,42.5c-0.32,2.242 0.89,4.41 2.96,5.313l74.01,32.07l-20.51,63.117l-76.99,-17.168c-2.28,-0.48 -4.58,0.629 -5.59,2.719c-13.87,28.832 -32.37,55.219 -54.98,78.449c-1.58,1.609 -1.87,4.082 -0.73,6.02l41.06,69.492l-53.7,39.019l-52.21,-59.16c-1.55,-1.738 -4.08,-2.199 -6.13,-1.09c-28.23,15.262 -58.7,25.762 -90.56,31.192c-2.23,0.386 -3.92,2.207 -4.13,4.468l-7.64,80.31l-66.38,0l-7.47,-78.649c-0.22,-2.332 -2.01,-4.18 -4.32,-4.493c-32,-4.257 -62.82,-13.636 -91.63,-27.847c-2.03,-1 -4.46,-0.512 -5.96,1.179l-53.35,60.442l-53.7,-39.024l40.2,-68.046c1.18,-2 0.83,-4.551 -0.85,-6.153c-23.34,-22.277 -42.78,-47.98 -57.77,-76.379c-1.05,-2 -3.32,-3 -5.51,-2.55l-78.704,17.562l-20.508,-63.133l72.472,-31.41c2.14,-0.918 3.35,-3.187 2.94,-5.469c-3.23,-17.789 -4.87,-35.718 -4.87,-53.281c0,-13.949 1.04,-28.25 3.08,-42.5c0.32,-2.23 -0.89,-4.398 -2.96,-5.301l-74.002,-32.066l20.508,-63.121l76.984,17.16c2.29,0.488 4.59,-0.621 5.6,-2.711c13.87,-28.84 32.37,-55.23 54.97,-78.449c1.58,-1.61 1.87,-4.082 0.73,-6.02l-41.05,-69.5l53.7,-39.011l52.2,59.16c1.54,1.75 4.08,2.199 6.13,1.082c28.23,-15.25 58.7,-25.75 90.56,-31.192c2.24,-0.379 3.93,-2.199 4.14,-4.461l7.63,-80.3zm70.93,-10l-75.47,0c-2.58,0 -4.74,1.961 -4.98,4.531l-7.71,81.039c-30.25,5.562 -59.26,15.543 -86.34,29.723l-52.6,-59.61c-1.72,-1.933 -4.61,-2.25 -6.69,-0.73l-61.06,44.359c-2.08,1.52 -2.68,4.371 -1.37,6.59l41.43,70.121c-21.23,22.359 -38.84,47.469 -52.42,74.758l-77.576,-17.301c-2.519,-0.508 -5.051,0.891 -5.844,3.34l-23.32,71.781c-0.797,2.449 0.398,5.11 2.766,6.129l74.695,32.371c-1.766,13.461 -2.656,26.949 -2.656,40.129c0,16.883 1.457,34.063 4.336,51.152l-73.036,31.641c-2.367,1.02 -3.562,3.68 -2.765,6.129l23.32,71.777c0.801,2.453 3.313,3.871 5.844,3.344l79.436,-17.73c14.61,26.867 33.11,51.339 55.04,72.808l-40.5,68.582c-1.31,2.219 -0.72,5.067 1.37,6.578l61.06,44.371c2.08,1.508 4.97,1.2 6.68,-0.742l53.84,-61c27.6,13.18 56.95,22.11 87.35,26.563l7.53,79.248c0.24,2.57 2.4,4.53 4.98,4.53l75.47,0c2.58,0 4.73,-1.96 4.98,-4.53l7.7,-81.061c30.25,-5.551 59.26,-15.527 86.34,-29.711l52.61,59.614c1.71,1.937 4.6,2.238 6.68,0.73l61.06,-44.371c2.09,-1.512 2.68,-4.359 1.37,-6.582l-41.43,-70.129c21.24,-22.352 38.85,-47.469 52.42,-74.75l77.58,17.289c2.49,0.543 5.04,-0.879 5.84,-3.34l23.33,-71.769c0.79,-2.45 -0.4,-5.11 -2.77,-6.141l-74.7,-32.359c1.77,-13.461 2.66,-26.942 2.66,-40.141c0,-16.859 -1.46,-34.039 -4.33,-51.141l73.03,-31.628c2.37,-1.028 3.56,-3.68 2.77,-6.129l-23.33,-71.789c-0.8,-2.461 -3.32,-3.883 -5.84,-3.34l-79.44,17.73c-14.6,-26.863 -33.09,-51.32 -55.04,-72.82l40.51,-68.57c1.31,-2.223 0.71,-5.071 -1.37,-6.582l-61.06,-44.368c-2.08,-1.511 -4.99,-1.203 -6.69,0.727l-53.84,61.019c-27.59,-13.187 -56.94,-22.117 -87.35,-26.566l-7.53,-79.242c-0.24,-2.57 -2.39,-4.531 -4.97,-4.531" fill="#17282f" fill-rule="nonzero"/>
    <path id="path270" d="m-398.03836,2719.60629c0,92.88 75.3,168.18 168.18,168.18c92.88,0 168.17,-75.3 168.17,-168.18c0,-92.88 -75.29,-168.172 -168.17,-168.172c-92.88,0 -168.18,75.292 -168.18,168.172zm433.32,0c0,12.9 -0.97,25.56 -2.75,37.97l68.68,29.75l-20.49,63.06l-71.53,-15.95c-12.52,26.01 -29.2,49.63 -49.11,70.08l38.1,64.48l-53.65,38.97l-48.5,-54.96c-24.85,13.43 -52.09,22.94 -80.91,27.87l-7.08,74.53l-66.31,0l-6.94,-73.07c-29.04,-3.87 -56.58,-12.41 -81.86,-24.89l-49.51,56.11l-53.64,-38.98l37.35,-63.22c-20.67,-19.72 -38.15,-42.73 -51.6,-68.22l-73.04,16.29l-20.49,-63.06l67.33,-29.18c-2.8,-15.44 -4.34,-31.33 -4.34,-47.58c0,-12.89 0.97,-25.56 2.75,-37.96l-68.68,-29.76l20.49,-63.06l71.53,15.96c12.52,-26.02 29.2,-49.629 49.11,-70.078l-38.09,-64.481l53.64,-38.98l48.51,54.969c24.84,-13.43 52.09,-22.95 80.91,-27.871l7.08,-74.528l66.3,0l6.94,73.071c29.04,3.867 56.59,12.398 81.86,24.878l49.51,-56.101l53.64,38.973l-37.34,63.218c20.66,19.731 38.15,42.739 51.59,68.23l73.05,-16.29l20.49,63.06l-67.34,29.18c2.8,15.44 4.34,31.32 4.34,47.57" fill="#6ccb94" fill-rule="nonzero"/>
    <path id="path272" d="m-229.85836,2882.78629c-89.98,0 -163.18,-73.2 -163.18,-163.17c0,-89.99 73.2,-163.189 163.18,-163.189c89.97,0 163.17,73.199 163.17,163.189c0,89.97 -73.2,163.17 -163.17,163.17zm0,-336.359c-95.5,0 -173.18,77.689 -173.18,173.189c0,95.48 77.68,173.17 173.18,173.17c95.49,0 173.17,-77.69 173.17,-173.17c0,-95.5 -77.68,-173.189 -173.17,-173.189zm-33.36,-157.621l57.22,0l6.51,68.55c0.22,2.321 2.01,4.18 4.32,4.489c28.05,3.73 55.07,11.941 80.3,24.41c2.01,1.011 4.46,0.511 5.96,-1.18l46.5,-52.687l46.29,33.617l-35.04,59.312c-1.18,1.989 -0.83,4.551 0.85,6.149c20.47,19.558 37.51,42.08 50.63,66.95c1.05,2 3.28,3.05 5.51,2.55l68.6,-15.3l17.69,54.4l-63.17,27.38c-2.13,0.92 -3.35,3.19 -2.93,5.48c2.82,15.57 4.26,31.28 4.26,46.69c0,12.25 -0.91,24.78 -2.7,37.24c-0.32,2.24 0.89,4.41 2.96,5.3l64.51,27.95l-17.68,54.42l-67.09,-14.97c-2.3,-0.49 -4.59,0.62 -5.6,2.71c-12.16,25.28 -28.38,48.42 -48.18,68.76c-1.58,1.61 -1.87,4.08 -0.73,6.03l35.79,60.56l-46.29,33.64l-45.49,-51.57c-1.55,-1.74 -4.09,-2.19 -6.13,-1.08c-24.74,13.37 -51.45,22.57 -79.37,27.33c-2.23,0.38 -3.93,2.21 -4.14,4.47l-6.65,70l-57.21,0l-6.51,-68.54c-0.22,-2.32 -2.01,-4.18 -4.32,-4.49c-28.05,-3.73 -55.07,-11.94 -80.31,-24.41c-2.01,-1 -4.47,-0.52 -5.96,1.18l-46.5,52.69l-46.28,-33.63l35.04,-59.31c1.18,-2 0.82,-4.55 -0.86,-6.15c-20.46,-19.53 -37.49,-42.05 -50.63,-66.94c-1.05,-2 -3.32,-3 -5.51,-2.55l-68.6,15.3l-17.68,-54.41l63.16,-27.37c2.13,-0.92 3.34,-3.19 2.93,-5.48c-2.82,-15.61 -4.26,-31.31 -4.26,-46.68c0,-12.22 0.91,-24.76 2.7,-37.26c0.32,-2.24 -0.89,-4.41 -2.96,-5.3l-64.5,-27.95l17.67,-54.41l67.1,14.97c2.27,0.48 4.59,-0.62 5.59,-2.71c12.16,-25.27 28.37,-48.408 48.19,-68.76c1.57,-1.609 1.87,-4.078 0.72,-6.031l-35.79,-60.57l46.29,-33.629l45.49,51.558c1.54,1.742 4.08,2.192 6.13,1.082c24.72,-13.351 51.42,-22.55 79.38,-27.332c2.23,-0.379 3.92,-2.207 4.13,-4.468l6.65,-70zm61.76,-10l-66.3,0c-2.58,0 -4.73,1.968 -4.98,4.539l-6.72,70.742c-26.35,4.89 -51.59,13.57 -75.16,25.859l-45.89,-52c-1.72,-1.941 -4.61,-2.25 -6.69,-0.738l-53.64,38.976c-2.09,1.512 -2.68,4.364 -1.37,6.582l36.17,61.219c-18.45,19.473 -33.77,41.331 -45.63,65.061l-67.69,-15.1c-2.51,-0.54 -5.05,0.89 -5.84,3.34l-20.49,63.06c-0.8,2.45 0.4,5.1 2.77,6.13l65.2,28.24c-1.52,11.72 -2.29,23.44 -2.29,34.9c0,14.67 1.26,29.64 3.74,44.55l-63.72,27.6c-2.37,1.03 -3.56,3.68 -2.77,6.14l20.49,63.06c0.8,2.45 3.32,3.87 5.85,3.34l69.34,-15.47c12.75,23.36 28.84,44.64 47.9,63.37l-35.35,59.84c-1.3,2.21 -0.71,5.07 1.37,6.58l53.64,38.97c2.09,1.53 4.98,1.2 6.69,-0.73l47,-53.26c24.02,11.44 49.56,19.22 76.02,23.13l6.57,69.13c0.24,2.57 2.4,4.54 4.97,4.54l66.31,0c2.58,0 4.73,-1.97 4.97,-4.54l6.73,-70.74c26.32,-4.88 51.56,-13.56 75.15,-25.86l45.89,52.01c1.71,1.95 4.62,2.25 6.69,0.74l53.64,-38.98c2.09,-1.51 2.68,-4.36 1.37,-6.58l-36.17,-61.22c18.45,-19.47 33.77,-41.33 45.63,-65.06l67.69,15.1c2.5,0.56 5.04,-0.88 5.84,-3.34l20.5,-63.07c0.79,-2.45 -0.4,-5.1 -2.77,-6.13l-65.2,-28.24c1.51,-11.68 2.28,-23.4 2.28,-34.88c0,-14.71 -1.26,-29.68 -3.74,-44.57l63.72,-27.6c2.37,-1.03 3.57,-3.68 2.77,-6.14l-20.49,-63.05c-0.8,-2.45 -3.32,-3.87 -5.84,-3.34l-69.35,15.47c-12.73,-23.338 -28.82,-44.631 -47.9,-63.381l35.35,-59.828c1.31,-2.211 0.72,-5.059 -1.37,-6.582l-53.64,-38.969c-2.08,-1.531 -4.97,-1.199 -6.69,0.73l-46.99,53.262c-24.03,-11.441 -49.57,-19.211 -76.02,-23.133l-6.57,-69.14c-0.25,-2.571 -2.4,-4.539 -4.98,-4.539" fill="#17282f" fill-rule="nonzero"/>
    <path id="path274" d="m-1166.78736,3116.07629l124.145,-98.8l99.464,121.99l39.41,-28.15l-127.616,-204.56l-146.383,63.8l10.98,145.72" fill="#6ccb94" fill-rule="nonzero"/>
    <path id="path276" d="m-1172.50936,2973.52629l139.168,-60.66l122.843,196.91l-31.77,22.69l-96.499,-118.35c-1.727,-2.12 -4.832,-2.46 -6.992,-0.75l-116.75,92.91l-10,-132.75zm141.125,-71.97l-1.996,0.42l-146.383,63.81c-1.949,0.85 -3.149,2.83 -2.988,4.95l10.976,145.71c0.137,1.86 1.289,3.47 2.985,4.21c1.695,0.75 3.66,0.49 5.117,-0.66l120.277,-95.73l96.338,118.16c1.67,2.03 4.62,2.44 6.78,0.91l39.42,-28.15c2.15,-1.53 2.73,-4.48 1.33,-6.72l-127.61,-204.56c-0.942,-1.5 -2.567,-2.35 -4.246,-2.35" fill="#17282f" fill-rule="nonzero"/>
    <path id="path278" d="m-1202.68936,2738.87629l-290.883,0l-15.754,-791.84l70.524,0l90.672,601.93l90.668,-601.93l70.519,0l-15.746,791.84" fill="#17282f" fill-rule="nonzero"/>
    <path id="path280" d="m-1253.16236,1952.03629l61.118,0l-15.551,781.83l-281.074,0l-15.551,-781.83l61.117,0l90.023,597.672c0.372,2.449 2.473,4.258 4.95,4.258c2.472,0 4.574,-1.809 4.945,-4.258l90.023,-597.672zm66.223,-10l-70.523,0c-2.477,0 -4.575,1.801 -4.946,4.25l-85.722,569.121l-85.723,-569.121c-0.371,-2.449 -2.473,-4.25 -4.945,-4.25l-70.524,0c-1.343,0 -2.633,0.531 -3.57,1.5c-0.941,0.961 -1.453,2.262 -1.43,3.59l15.75,791.84c0.055,2.73 2.278,4.9 5,4.9l290.879,0c2.727,0 4.945,-2.17 5,-4.9l15.754,-791.84c0.024,-1.328 -0.488,-2.629 -1.434,-3.59c-0.933,-0.969 -2.222,-1.5 -3.566,-1.5" fill="#17282f" fill-rule="nonzero"/>
    <path id="path282" d="m-1296.26736,3167.35629l-51.559,-10.88l-51.554,10.88l-129.481,-51.28l35.289,-377.2l291.496,0l35.289,377.2l-129.48,51.28" fill="#6ccb94" fill-rule="nonzero"/>
    <path id="path284" d="m-1489.01336,2743.86629l282.387,0l34.511,368.94l-124.59,49.34l-50.089,-10.56l-2.059,0l-50.082,10.56l-124.598,-49.34l34.52,-368.94zm286.941,-10l-291.5,0c-2.582,0 -4.734,1.97 -4.98,4.53l-35.289,377.21c-0.203,2.22 1.078,4.3 3.14,5.12l129.485,51.28c0.918,0.37 1.926,0.43 2.871,0.24l50.519,-10.66l50.528,10.66c0.953,0.19 1.957,0.13 2.875,-0.24l129.476,-51.28c2.067,-0.82 3.344,-2.9 3.141,-5.12l-35.285,-377.21c-0.246,-2.56 -2.399,-4.53 -4.981,-4.53" fill="#17282f" fill-rule="nonzero"/>
    <path id="path286" d="m-1379.96236,3089.00629l21.047,-52.05l-16.614,-224.62l26.582,-48.73l31.012,50.95l-25.473,220.18l22.149,45.41l-28.895,42.14l-29.808,-33.28" fill="#17282f" fill-rule="nonzero"/>
    <path id="path288" d="m-1370.43536,2813.43629l21.727,-39.82l25.613,42.07l-25.281,218.48c-0.114,0.94 0.054,1.91 0.472,2.76l20.875,42.79l-23.644,34.49l-23.485,-26.21l19.875,-49.17l0.352,-2.24l-16.504,-223.15zm21.488,-54.83l-0.117,0c-1.785,0.04 -3.418,1.03 -4.273,2.61l-26.582,48.73c-0.457,0.84 -0.668,1.8 -0.594,2.76l16.523,223.46l-20.605,50.97c-0.719,1.77 -0.363,3.79 0.906,5.22l29.809,33.27c1.027,1.13 2.515,1.77 4.05,1.65c1.532,-0.1 2.934,-0.9 3.801,-2.16l28.899,-42.14c1.015,-1.48 1.156,-3.4 0.367,-5.02l-21.512,-44.1l25.309,-218.73c0.129,-1.1 -0.117,-2.22 -0.692,-3.17l-31.015,-50.95c-0.91,-1.49 -2.532,-2.4 -4.274,-2.4" fill="#17282f" fill-rule="nonzero"/>
    <path id="path290" d="m-1297.67336,3167.35629l-51.633,-65.27l-48.406,65.27l0,58.8l100.039,0l0,-58.8" fill="#ffffff" fill-rule="nonzero"/>
    <path id="path292" d="m-1297.67336,3167.35629l0.097,0l-0.097,0zm-95.039,1.65l43.535,-58.69l46.504,58.78l0,52.06l-90.039,0l0,-52.15zm43.41,-71.91l-0.078,0c-1.559,0.02 -3.012,0.77 -3.938,2.02l-48.406,65.26c-0.641,0.86 -0.988,1.9 -0.988,2.98l0,58.8c0,2.76 2.238,5 5,5l100.039,0c2.765,0 5,-2.24 5,-5l0,-58.8c0,-1.12 -0.379,-2.22 -1.078,-3.11l-51.629,-65.26c-0.95,-1.2 -2.395,-1.89 -3.922,-1.89" fill="#17282f" fill-rule="nonzero"/>
    <path id="path294" d="m-1403.22036,3176.51629l-13.754,-16.93l15.539,-96.35l52.129,38.85l56.648,-37.3l9.325,94.8l-13.555,13.6l-53.266,-50.9l-53.066,54.23" fill="#6ccb94" fill-rule="nonzero"/>
    <path id="path296" d="m-1411.68136,3158.16629l13.867,-86l45.524,33.94c1.683,1.24 3.984,1.32 5.738,0.17l49.73,-32.76l8.282,84.21l-8.438,8.46l-49.723,-47.51c-1.98,-1.91 -5.105,-1.86 -7.027,0.11l-49.145,50.23l-8.808,-10.85zm10.246,-99.93l-1.883,0.37c-1.621,0.65 -2.777,2.11 -3.055,3.83l-15.539,96.34c-0.222,1.42 0.157,2.86 1.055,3.96l13.758,16.93c0.894,1.11 2.223,1.78 3.648,1.84c1.414,0.1 2.809,-0.47 3.805,-1.49l49.609,-50.7l49.696,47.48c1.961,1.89 5.078,1.85 6.992,-0.09l13.551,-13.6c1.054,-1.05 1.586,-2.53 1.437,-4.01l-9.32,-94.8c-0.172,-1.75 -1.242,-3.27 -2.824,-4.02c-1.578,-0.74 -3.442,-0.64 -4.903,0.33l-53.718,35.38l-49.325,-36.77c-0.879,-0.64 -1.925,-0.98 -2.984,-0.98" fill="#17282f" fill-rule="nonzero"/>
    <path id="path298" d="m-1509.32636,1947.03629c0,0 -29.902,-92.391 -25.461,-93.871c4.442,-1.481 100.661,0 100.661,0l-4.676,93.871l-70.524,0" fill="#ffffff" fill-rule="nonzero"/>
    <path id="path300" d="m-1529.93936,1857.68829c13.02,-0.472 58.695,-0.062 90.563,0.399l-4.18,83.949l-62.125,0c-11.231,-34.91 -22.301,-72.551 -24.258,-84.348zm-0.297,-3.093l0.102,0l-0.102,0zm26.719,-7.098c-17.813,0 -30.813,0.238 -32.856,0.918c-5.304,1.773 -9.14,3.043 22.293,100.16c0.668,2.063 2.59,3.461 4.758,3.461l70.524,0c2.664,0 4.863,-2.09 4.992,-4.762l4.68,-93.867c0.066,-1.34 -0.422,-2.672 -1.348,-3.66c-0.93,-0.981 -2.219,-1.563 -3.57,-1.582c-23.422,-0.359 -49.477,-0.668 -69.473,-0.668" fill="#17282f" fill-rule="nonzero"/>
    <path id="path302" d="m-1185.72436,1947.03629c0,0 29.902,-92.391 25.461,-93.871c-4.442,-1.481 -100.66,0 -100.66,0l4.675,93.871l70.524,0" fill="#ffffff" fill-rule="nonzero"/>
    <path id="path304" d="m-1255.66936,1858.08729c31.664,-0.461 76.949,-0.86 90.55,-0.332c-1.988,11.863 -13.039,49.422 -24.25,84.281l-62.121,0l-4.179,-83.949zm64.179,-10.59c-20,0 -46.07,0.309 -69.511,0.668c-1.356,0.019 -2.641,0.601 -3.571,1.582c-0.929,0.988 -1.418,2.32 -1.347,3.66l4.675,93.867c0.133,2.672 2.332,4.762 4.996,4.762l70.524,0c2.168,0 4.094,-1.398 4.758,-3.461c31.429,-97.117 27.793,-98.32 22.285,-100.16c-2.043,-0.68 -15.024,-0.918 -32.809,-0.918" fill="#17282f" fill-rule="nonzero"/>
    <path id="path306" d="m-1242.27536,3343.76629c0,0 24.485,-12.99 26.613,-28.85c2.133,-15.85 -28.211,-47.76 -28.211,-47.76l1.141,57.03l0.457,19.58" fill="#17282f" fill-rule="nonzero"/>
    <path id="path308" d="m-1237.47836,3334.88629l-1.121,-54.12c9.484,11.65 18.976,26.09 17.98,33.48c-1.043,7.8 -9.738,15.62 -16.859,20.64zm-6.395,-72.73l-1.906,0.37c-1.902,0.8 -3.133,2.67 -3.094,4.73l1.602,76.62c0.043,1.73 0.977,3.32 2.473,4.2c1.496,0.88 3.336,0.92 4.871,0.1c2.738,-1.45 26.82,-14.71 29.222,-32.6c2.383,-17.71 -26.269,-48.42 -29.546,-51.86c-0.961,-1.02 -2.282,-1.56 -3.622,-1.56" fill="#17282f" fill-rule="nonzero"/>
    <path id="path310" d="m-1267.70536,3366.19629c10.512,-4.71 19.481,-11.88 25.43,-22.43c15.117,-26.82 2.703,-56.22 -4.109,-84.54c-3.864,-16.05 -24.328,-103.25 -39.598,-109.05c-15.273,-5.81 -34.996,-2.53 -53.367,8.88c-18.367,11.4 -49.313,40.39 -55.887,51.02c-6.57,10.62 -0.801,45.37 -0.789,45.43c0.727,4.37 -4.183,13.69 -5.027,18.19c-1.883,10.01 -3.199,20.68 -2.352,30.85c2.883,34.54 27.051,61.2 61.059,66.82c23.328,3.85 52.664,4.67 74.64,-5.17" fill="#ffffff" fill-rule="nonzero"/>
    <path id="path312" d="m-1310.88836,3369.05629c-11.906,0 -22.883,-1.35 -30.641,-2.63c-31.844,-5.25 -54.172,-29.72 -56.894,-62.3c-0.68,-8.23 0.043,-17.6 2.285,-29.51c0.277,-1.48 1.09,-3.53 1.918,-5.73c1.871,-4.99 3.805,-10.14 3.129,-14.2c-1.817,-10.73 -4.168,-35.07 0.109,-41.99c6.238,-10.08 36.434,-38.33 54.27,-49.39c16.933,-10.5 35.226,-13.68 48.953,-8.45c2.058,0.78 13.48,9.46 36.113,103.87l0.398,1.68c1.137,4.71 2.426,9.47 3.723,14.23c6.434,23.7 12.508,46.07 0.899,66.67c-4.993,8.85 -12.77,15.69 -23.118,20.33c-12.632,5.65 -27.5,7.42 -41.144,7.42zm8.695,-226.73c-12.73,0 -26.527,4.25 -39.793,12.48c-19.148,11.88 -50.617,41.51 -57.504,52.64c-7.793,12.59 -1.5,48.77 -1.422,49.11c0.157,1.27 -1.683,6.18 -2.675,8.82c-1.02,2.71 -1.981,5.28 -2.375,7.4c-2.414,12.8 -3.184,23.04 -2.422,32.18c3.066,36.74 29.277,65.4 65.222,71.33c17.766,2.95 51.461,6.13 77.5,-5.53c12.344,-5.53 21.68,-13.78 27.747,-24.54c13.625,-24.17 6.722,-49.6 0.042,-74.19c-1.269,-4.68 -2.535,-9.34 -3.648,-13.97l-0.398,-1.66c-25.012,-104.33 -37.567,-109.1 -42.286,-110.9c-5.601,-2.13 -11.66,-3.17 -17.988,-3.17" fill="#17282f" fill-rule="nonzero"/>
    <path id="path314" d="m-1260.33736,3368.84629c0,0 25.523,-11.4 25.14,-28.03c-0.379,-16.62 -21.836,-30.94 -67.269,-31.72c-45.434,-0.79 -52.199,1.53 -52.199,1.53c0,0 14.503,-13.15 7.738,-17.98c-6.766,-4.84 -16.238,-11.61 -16.238,-11.61l-1.348,-22.42c0,0 -12.563,-11.03 -13.34,-1.36c-0.773,9.66 -3.484,22.04 -6.773,23.78c-3.286,1.74 -16.426,-7.34 -16.426,-7.34c0,0 -1.559,28.21 4.812,52.19c6.371,23.97 17.137,33.31 53.895,45.48c36.762,12.16 82.008,-2.52 82.008,-2.52" fill="#17282f" fill-rule="nonzero"/>
    <path id="path316" d="m-1385.52536,3286.27629c1.703,0 2.649,-0.5 3.238,-0.82c6.528,-3.45 8.696,-19.95 9.317,-26.61c1.039,0.52 2.351,1.35 3.597,2.27l1.215,20.22c0.09,1.51 0.856,2.89 2.086,3.77l16.231,11.6c-0.199,1.2 -4.039,6.44 -8.188,10.21c-1.754,1.59 -2.148,4.2 -0.941,6.24c1.207,2.05 3.683,2.95 5.918,2.19c0.109,-0.01 8.234,-2 50.496,-1.25c45.594,0.78 62.086,14.95 62.359,26.84c0.25,10.72 -15.504,20.28 -21.933,23.24c-3.606,1.1 -45.274,13.47 -78.645,2.44c-37.015,-12.25 -45.105,-21.23 -50.629,-42.02c-3.992,-15.01 -4.761,-32 -4.808,-41.99c5.269,2.88 8.57,3.67 10.687,3.67zm10.914,-37.97c-1.054,0 -2.09,0.17 -3.086,0.57c-1.738,0.71 -4.718,2.68 -5.14,7.98c-0.692,8.61 -2.629,16.18 -4.016,19.09c-2.48,-0.88 -7.23,-3.52 -11.355,-6.36c-1.493,-1.04 -3.422,-1.19 -5.04,-0.39c-1.628,0.81 -2.695,2.42 -2.792,4.22c-0.071,1.19 -1.536,29.29 4.968,53.75c6.875,25.85 19.16,36.37 57.153,48.94c37.906,12.55 83.214,-1.9 85.125,-2.5l0.496,-0.2c1.168,-0.51 28.554,-12.98 28.101,-32.7c-0.39,-17.1 -19.558,-35.7 -72.183,-36.61c-19.852,-0.35 -32.485,-0.11 -40.508,0.3c1.707,-2.82 2.91,-5.91 2.738,-8.85c-0.16,-2.82 -1.535,-5.3 -3.875,-6.97l-14.293,-10.21l-1.207,-20.05c-0.074,-1.33 -0.687,-2.58 -1.691,-3.46c-2.473,-2.17 -8.121,-6.55 -13.395,-6.55" fill="#17282f" fill-rule="nonzero"/>
    <path id="path318" d="m-1294.12336,3208.75629l15.469,-0.19l-3.883,41.18l6.762,19.14" fill="#ffffff" fill-rule="nonzero"/>
    <path id="path320" d="m-1278.65436,3206.06629l-0.027,0l-15.473,0.19c-1.379,0.02 -2.484,1.15 -2.469,2.52c0.016,1.37 1.133,2.48 2.5,2.48l0.032,0l12.687,-0.16l-3.621,38.42l0.133,1.06l6.762,19.14c0.468,1.3 1.894,1.97 3.191,1.53c1.301,-0.46 1.984,-1.89 1.524,-3.19l-6.583,-18.62l3.833,-40.64l-0.649,-1.92l-1.84,-0.81" fill="#17282f" fill-rule="nonzero"/>
    <path id="path322" d="m-1269.87336,3254.19629c-0.906,-5.45 0.438,-10.21 3,-10.63c2.563,-0.43 5.375,3.64 6.282,9.08c0.906,5.45 -0.438,10.21 -3,10.64c-2.563,0.42 -5.375,-3.65 -6.282,-9.09" fill="#17282f" fill-rule="nonzero"/>
    <path id="path324" d="m-1311.34536,3255.72629c-0.903,-5.44 0.437,-10.2 3,-10.63c2.562,-0.43 5.375,3.64 6.281,9.09c0.906,5.44 -0.437,10.21 -3,10.63c-2.562,0.43 -5.375,-3.64 -6.281,-9.09" fill="#17282f" fill-rule="nonzero"/>
    <path id="path326" d="m-1286.77136,3195.60629c0,0 -16.621,-13.92 -39.059,8.88" fill="#ffffff" fill-rule="nonzero"/>
    <path id="path328" d="m-1300.12336,3188.96629c-7.343,0 -16.89,3 -27.488,13.78c-0.965,0.98 -0.957,2.56 0.031,3.53c0.989,0.96 2.571,0.95 3.536,-0.03c20.425,-20.76 35.074,-9.21 35.679,-8.72c1.063,0.88 2.637,0.75 3.516,-0.33c0.879,-1.06 0.742,-2.62 -0.313,-3.5c-0.101,-0.09 -5.832,-4.73 -14.961,-4.73" fill="#17282f" fill-rule="nonzero"/>
    <path id="path330" d="m-1253.73636,3272.37629c0,0 -4.254,10.24 -16.047,3.86" fill="#ffffff" fill-rule="nonzero"/>
    <path id="path332" d="m-1253.73236,3269.87629c-0.976,0 -1.898,0.57 -2.305,1.52c-0.058,0.14 -1.39,3.06 -4.332,4.06c-2.246,0.8 -5.023,0.31 -8.222,-1.42c-1.215,-0.65 -2.735,-0.21 -3.387,1c-0.66,1.22 -0.207,2.74 1.004,3.39c4.516,2.44 8.672,3 12.32,1.74c5.094,-1.8 7.145,-6.63 7.231,-6.83c0.527,-1.27 -0.075,-2.74 -1.348,-3.27l-0.961,-0.19" fill="#17282f" fill-rule="nonzero"/>
    <path id="path334" d="m-1292.20836,3277.58629c0,0 -18.567,10.24 -30.743,-5.62" fill="#ffffff" fill-rule="nonzero"/>
    <path id="path336" d="m-1322.95136,3269.46629l-1.523,0.52c-1.094,0.84 -1.301,2.41 -0.457,3.5c13.328,17.36 33.734,6.4 33.93,6.28c1.211,-0.66 1.644,-2.18 0.98,-3.39c-0.66,-1.21 -2.18,-1.67 -3.391,-0.98c-0.675,0.36 -16.859,8.98 -27.554,-4.95l-1.985,-0.98" fill="#17282f" fill-rule="nonzero"/>
    <path id="path338" d="m-1373.43136,3241.74629c0,0 7.25,35.53 -11.195,39.29c-18.446,3.76 -16.426,-7.34 -18.012,-23.89c-1.938,-20.2 12.801,-27.13 12.801,-27.13" fill="#ffffff" fill-rule="nonzero"/>
    <path id="path340" d="m-1389.85736,3225.02629l-2.109,0.47c-0.731,0.35 -17.899,8.7 -15.649,32.12c0.2,2.11 0.344,4.13 0.481,6.05c0.605,8.63 1.133,16.08 6.668,20.29c3.836,2.91 9.176,3.53 16.84,1.98c18.429,-3.77 18.16,-30.17 15.093,-45.18c-0.55,-2.71 -3.172,-4.48 -5.89,-3.91c-2.707,0.56 -4.457,3.19 -3.903,5.9c1.606,7.95 3.719,31.14 -7.3,33.39c-5.879,1.2 -8.039,0.42 -8.793,-0.15c-1.926,-1.45 -2.321,-7.08 -2.743,-13.03c-0.14,-1.99 -0.285,-4.09 -0.5,-6.29c-1.558,-16.24 9.516,-21.91 9.989,-22.14c2.461,-1.21 3.508,-4.19 2.316,-6.66c-0.863,-1.79 -2.644,-2.84 -4.5,-2.84" fill="#17282f" fill-rule="nonzero"/>
    <path id="path342" d="m-1228.07636,2873.08629c0,105.73 85.707,191.44 191.438,191.44c105.73,0 191.44,-85.71 191.44,-191.44c0,-105.73 -85.71,-191.44 -191.44,-191.44c-105.731,0 -191.438,85.71 -191.438,191.44zm493.248,0c0,14.68 -1.1,29.09 -3.12,43.21l78.17,33.88l-23.32,71.78l-81.43,-18.16c-14.24,29.61 -33.23,56.49 -55.9,79.77l43.37,73.4l-61.06,44.36l-55.22,-62.57c-28.28,15.29 -59.3,26.12 -92.1,31.73l-8.06,84.84l-75.472,0l-7.903,-83.18c-33.054,-4.4 -64.414,-14.12 -93.183,-28.32l-56.356,63.86l-61.062,-44.37l42.516,-71.96c-23.524,-22.46 -43.426,-48.65 -58.739,-77.67l-83.144,18.55l-23.324,-71.78l76.652,-33.21c-3.188,-17.58 -4.942,-35.66 -4.942,-54.16c0,-14.68 1.102,-29.1 3.129,-43.21l-78.179,-33.88l23.324,-71.78l81.426,18.16c14.246,-29.61 33.234,-56.49 55.898,-79.77l-43.363,-73.4l61.062,-44.369l55.215,62.569c28.278,-15.28 59.297,-26.11 92.102,-31.72l8.058,-84.841l75.475,0l7.9,83.171c33.06,4.41 64.42,14.13 93.19,28.33l56.35,-63.861l61.06,44.361l-42.51,71.96c23.52,22.46 43.42,48.65 58.73,77.67l83.15,-18.54l23.32,71.78l-76.65,33.21c3.19,17.58 4.94,35.66 4.94,54.16" fill="#a7aaa8" fill-rule="nonzero"/>
    <path id="path344" d="m-1036.64236,3059.52629c-102.805,0 -186.438,-83.64 -186.438,-186.44c0,-102.8 83.633,-186.44 186.438,-186.44c102.804,0 186.444,83.64 186.444,186.44c0,102.8 -83.64,186.44 -186.444,186.44zm0,-382.88c-108.316,0 -196.438,88.12 -196.438,196.44c0,108.31 88.122,196.44 196.438,196.44c108.314,0 196.444,-88.13 196.444,-196.44c0,-108.32 -88.13,-196.44 -196.444,-196.44zm-38.594,-180.801l66.378,0l7.47,78.641c0.22,2.32 2.01,4.18 4.32,4.48c32.01,4.28 62.84,13.65 91.64,27.86c2.01,1.02 4.45,0.53 5.96,-1.17l53.34,-60.448l53.7,39.008l-40.2,68.05c-1.18,2 -0.83,4.55 0.85,6.15c23.36,22.31 42.79,48 57.77,76.4c1.05,1.99 3.3,3.04 5.52,2.55l78.7,-17.56l20.51,63.13l-72.48,31.4c-2.13,0.93 -3.34,3.19 -2.93,5.48c3.23,17.78 4.86,35.71 4.86,53.27c0,13.96 -1.03,28.25 -3.07,42.5c-0.32,2.24 0.89,4.41 2.96,5.3l74,32.06l-20.51,63.14l-76.99,-17.18c-2.27,-0.5 -4.58,0.62 -5.59,2.72c-13.88,28.83 -32.38,55.23 -54.98,78.45c-1.57,1.62 -1.87,4.09 -0.73,6.03l41.06,69.49l-53.7,39.02l-52.21,-59.17c-1.54,-1.73 -4.08,-2.19 -6.13,-1.08c-28.2,15.25 -58.67,25.73 -90.56,31.19c-2.23,0.38 -3.92,2.21 -4.13,4.47l-7.64,80.3l-66.375,0l-7.473,-78.64c-0.219,-2.33 -2.008,-4.18 -4.316,-4.5c-32.008,-4.25 -62.836,-13.63 -91.629,-27.85c-2.02,-0.99 -4.469,-0.52 -5.965,1.17l-53.348,60.45l-53.703,-39.01l40.207,-68.05c1.18,-2 0.828,-4.55 -0.855,-6.15c-23.352,-22.3 -42.789,-48 -57.77,-76.39c-1.058,-1.98 -3.324,-3.01 -5.512,-2.55l-78.707,17.56l-20.507,-63.13l72.476,-31.41c2.133,-0.93 3.344,-3.19 2.934,-5.48c-3.227,-17.78 -4.864,-35.7 -4.864,-53.26c0,-13.96 1.036,-28.26 3.079,-42.5c0.316,-2.23 -0.895,-4.4 -2.965,-5.3l-74,-32.07l20.508,-63.13l76.988,17.17c2.285,0.5 4.582,-0.61 5.594,-2.71c13.875,-28.83 32.371,-55.23 54.984,-78.45c1.57,-1.61 1.867,-4.08 0.719,-6.03l-41.051,-69.49l53.699,-39.009l52.207,59.159c1.547,1.74 4.086,2.2 6.129,1.08c28.207,-15.24 58.676,-25.74 90.559,-31.19c2.234,-0.38 3.925,-2.21 4.136,-4.46l7.633,-80.311zm70.928,-10l-75.475,0c-2.578,0 -4.73,1.961 -4.972,4.531l-7.707,81.051c-30.278,5.559 -59.289,15.549 -86.344,29.719l-52.602,-59.61c-1.715,-1.93 -4.609,-2.258 -6.687,-0.73l-61.063,44.35c-2.086,1.52 -2.675,4.37 -1.367,6.58l41.438,70.14c-21.243,22.35 -38.856,47.47 -52.426,74.76l-77.578,-17.3c-2.508,-0.54 -5.051,0.88 -5.848,3.34l-23.32,71.78c-0.793,2.45 0.402,5.11 2.769,6.13l74.692,32.36c-1.762,13.46 -2.657,26.95 -2.657,40.14c0,16.87 1.461,34.04 4.336,51.13l-73.031,31.65c-2.367,1.02 -3.566,3.68 -2.769,6.13l23.32,71.78c0.801,2.47 3.324,3.89 5.844,3.34l79.441,-17.72c14.602,26.86 33.094,51.32 55.043,72.81l-40.508,68.58c-1.308,2.21 -0.719,5.07 1.367,6.58l61.059,44.35c2.074,1.52 4.98,1.21 6.691,-0.73l53.84,-61c27.586,13.19 56.938,22.12 87.348,26.57l7.527,79.24c0.242,2.57 2.399,4.53 4.977,4.53l75.472,0c2.58,0 4.73,-1.96 4.98,-4.53l7.7,-81.05c30.28,-5.56 59.29,-15.55 86.34,-29.72l52.61,59.61c1.72,1.95 4.61,2.25 6.69,0.74l61.06,-44.37c2.08,-1.51 2.67,-4.36 1.36,-6.58l-41.43,-70.13c21.23,-22.35 38.84,-47.47 52.42,-74.76l77.58,17.3c2.51,0.55 5.04,-0.88 5.85,-3.34l23.32,-71.79c0.79,-2.45 -0.4,-5.1 -2.77,-6.13l-74.69,-32.35c1.76,-13.47 2.65,-26.95 2.65,-40.14c0,-16.87 -1.46,-34.05 -4.33,-51.14l73.03,-31.64c2.37,-1.03 3.56,-3.68 2.77,-6.13l-23.32,-71.78c-0.8,-2.46 -3.35,-3.9 -5.85,-3.34l-79.44,17.72c-14.6,-26.85 -33.09,-51.33 -55.04,-72.82l40.51,-68.56c1.31,-2.22 0.72,-5.07 -1.37,-6.59l-61.06,-44.36c-2.07,-1.512 -4.97,-1.199 -6.69,0.731l-53.84,61.009c-27.59,-13.19 -56.94,-22.11 -87.35,-26.568l-7.52,-79.242c-0.25,-2.57 -2.4,-4.531 -4.98,-4.531" fill="#17282f" fill-rule="nonzero"/>
    <path id="path346" d="m-1528.86136,3116.07629c0,0 -19.984,-117.81 -19.984,-128.04c0,-10.22 39.672,-161.58 39.672,-161.58l220.281,-164.83l18.402,49.07l-149.539,179.2l-28.625,149.26" fill="#6ccb94" fill-rule="nonzero"/>
    <path id="path348" d="m-1288.88836,2656.62629c-1.07,0 -2.117,0.34 -2.992,0.99l-220.285,164.84c-0.907,0.67 -1.555,1.64 -1.844,2.73c-6.653,25.38 -39.836,152.51 -39.836,162.85c0,10.35 18.004,116.77 20.055,128.88c0.464,2.71 3.054,4.57 5.765,4.09c2.727,-0.47 4.559,-3.05 4.098,-5.77c-8.008,-47.19 -19.918,-120 -19.918,-127.2c0.156,-7.5 23.851,-100.52 39.066,-158.62l213.547,-159.8l15.039,40.11l-147.672,176.97l-1.074,2.26l-28.629,149.27c-0.515,2.7 1.262,5.33 3.973,5.85c2.687,0.49 5.332,-1.25 5.851,-3.98l28.387,-147.99l148.703,-178.21c1.153,-1.37 1.477,-3.27 0.848,-4.96l-18.399,-49.07c-0.55,-1.48 -1.769,-2.6 -3.277,-3.04l-1.406,-0.2" fill="#17282f" fill-rule="nonzero"/>
    <path id="path350" d="m-1270.49036,2710.69629l29.672,-7.13l36.008,-16.5l-3.004,-13.5l-24.004,3l36.008,-33.01l-12.004,-16.5l-27.004,3c0,0 -25.504,6 -30.004,7.5c-4.5,1.5 -24.07,24.07 -24.07,24.07l18.402,49.07" fill="#ffffff" fill-rule="nonzero"/>
    <path id="path352" d="m-1283.15836,2662.66629c8.153,-9.26 17.645,-19.17 20.149,-20.46c3.285,-1.08 22.304,-5.62 29.336,-7.28l23.519,-2.58l7.672,10.55l-32.711,29.99c-1.601,1.46 -2.07,3.81 -1.156,5.78c0.906,1.97 2.969,3.17 5.156,2.86l19.488,-2.43l1.137,5.1l-32.336,14.83l-24.453,5.79l-15.801,-42.15zm75.344,-40.6l-0.551,0.03l-27.004,2.99c-3.226,0.73 -26.449,6.19 -31.035,7.73c-4.789,1.59 -16.929,14.76 -26.265,25.54c-1.2,1.37 -1.547,3.31 -0.903,5.02l18.399,49.08c0.89,2.35 3.383,3.67 5.851,3.1l29.672,-7.13l36.926,-16.82c2.141,-0.98 3.305,-3.32 2.797,-5.63l-3.004,-13.49c-0.563,-2.52 -2.934,-4.23 -5.504,-3.88l-8.449,1.05l24.453,-22.42c1.875,-1.72 2.156,-4.57 0.664,-6.62l-12.004,-16.49c-0.945,-1.31 -2.457,-2.06 -4.043,-2.06" fill="#17282f" fill-rule="nonzero"/>
    <path id="path354" d="m-950.68836,3159.90629l22.52,18.77l45.04,-16.89l-10.21,-23.03l-57.35,21.15" fill="#ffffff" fill-rule="nonzero"/>
    <path id="path356" d="m-940.83836,3161.60629l44.83,-16.54l6.16,13.89l-37.35,14.01l-13.64,-11.36zm47.5,-27.84l-1.73,0.31l-57.35,21.14c-1.67,0.62 -2.89,2.08 -3.19,3.84c-0.31,1.76 0.35,3.54 1.72,4.69l22.52,18.77c1.38,1.16 3.27,1.47 4.96,0.84l45.04,-16.9c1.29,-0.48 2.32,-1.47 2.85,-2.74c0.53,-1.27 0.52,-2.71 -0.04,-3.97l-10.21,-23.02c-0.82,-1.85 -2.64,-2.96 -4.57,-2.96" fill="#17282f" fill-rule="nonzero"/>
   </g>
  </g>
 </g>
</svg>