<svg width="500" height="500" xmlns="http://www.w3.org/2000/svg" version="1.1" xml:space="preserve">
 <metadata id="metadata8">image/svg+xml</metadata>

 <g>
  <title>Layer 1</title>
  <g id="g10" transform="matrix(2.49919 0 0 -2.49919 -6.8374 1110.63)">
   <g id="g12" transform="translate(102.897 5.68434e-14) scale(0.1 0.1)">
    <path fill-rule="nonzero" fill="#6ccb94" d="m568.37412,3751.02266l123.6,-253.77c0,0 -13.53,-27.07 -21.05,-33.08c-7.52,-6.02 -22.56,-10.53 -33.09,-4.52c-10.53,6.02 -79.42,105.11 -79.42,105.11l9.96,186.26" id="path804"/>
    <path fill-rule="nonzero" fill="#17282f" d="m563.49412,3566.21266c32.67,-46.92 70.41,-98.32 76.83,-102.22c8.51,-4.86 21.43,-0.76 27.47,4.08c4.52,3.61 13.33,18.98 18.6,29.22l-114.06,234.18l-8.84,-165.26zm85.85,-114.4c-4.82,0 -9.64,1.02 -13.99,3.5c-10.95,6.26 -69.43,89.9 -81.05,106.6c-0.63,0.91 -0.94,2.01 -0.88,3.12l9.95,186.26c0.12,2.28 1.77,4.18 4.01,4.64c2.22,0.45 4.48,-0.66 5.48,-2.72l123.61,-253.77c0.68,-1.4 0.67,-3.04 -0.03,-4.43c-1.43,-2.87 -14.26,-28.24 -22.4,-34.75c-5.47,-4.37 -15.05,-8.45 -24.7,-8.45" id="path806"/>
    <path fill-rule="nonzero" fill="#17282f" d="m532.46412,3373.82266l-290.88,0l-15.75,-791.83l70.52,0l90.67,601.93l90.67,-601.93l70.52,0l-15.75,791.83" id="path808"/>
    <path fill-rule="nonzero" fill="#17282f" d="m482.00412,2586.99266l61.11,0l-15.55,781.83l-281.08,0l-15.55,-781.83l61.12,0l90.02,597.68c0.37,2.44 2.47,4.25 4.95,4.25c2.48,0 4.58,-1.81 4.95,-4.25l90.03,-597.68zm66.21,-10l-70.52,0c-2.47,0 -4.57,1.81 -4.94,4.25l-85.73,569.11l-85.72,-569.11c-0.37,-2.44 -2.47,-4.25 -4.95,-4.25l-70.52,0c-1.34,0 -2.63,0.54 -3.57,1.5c-0.94,0.96 -1.46,2.26 -1.43,3.6l15.75,791.83c0.05,2.72 2.28,4.9 5,4.9l290.88,0c2.73,0 4.95,-2.18 5,-4.9l15.75,-791.83c0.03,-1.34 -0.49,-2.64 -1.43,-3.6c-0.94,-0.96 -2.23,-1.5 -3.57,-1.5" id="path810"/>
    <path fill-rule="nonzero" fill="#6ccb94" d="m438.89412,3802.31266l-51.56,-10.88l-51.56,10.88l-129.48,-51.29l35.29,-377.2l291.5,0l35.29,377.2l-129.48,51.29" id="path812"/>
    <path fill-rule="nonzero" fill="#17282f" d="m246.14412,3378.82266l282.38,0l34.52,368.94l-124.59,49.34l-50.09,-10.57l-2.06,0l-50.09,10.57l-124.59,-49.34l34.52,-368.94zm286.94,-10l-291.5,0c-2.58,0 -4.74,1.96 -4.98,4.54l-35.29,377.2c-0.2,2.21 1.08,4.29 3.14,5.11l129.48,51.28c0.93,0.36 1.93,0.45 2.87,0.25l50.53,-10.66l50.52,10.66c0.95,0.2 1.96,0.11 2.88,-0.25l129.48,-51.28c2.06,-0.82 3.34,-2.9 3.14,-5.11l-35.29,-377.2c-0.24,-2.58 -2.4,-4.54 -4.98,-4.54" id="path814"/>
    <path fill-rule="nonzero" fill="#17282f" d="m355.19412,3723.96266l21.05,-52.06l-16.62,-224.61l26.59,-48.73l31.01,50.95l-25.48,220.18l22.16,45.41l-28.9,42.14l-29.81,-33.28" id="path816"/>
    <path fill-rule="nonzero" fill="#17282f" d="m364.72412,3448.39266l21.72,-39.83l25.61,42.08l-25.27,218.47c-0.11,0.96 0.05,1.91 0.47,2.77l20.87,42.8l-23.64,34.49l-23.48,-26.22l19.87,-49.17l0.35,-2.24l-16.5,-223.15zm21.48,-54.83l-0.11,0c-1.79,0.04 -3.42,1.03 -4.28,2.61l-26.58,48.73c-0.46,0.85 -0.67,1.8 -0.59,2.77l16.53,223.44l-20.61,50.98c-0.72,1.77 -0.36,3.79 0.91,5.21l29.8,33.28c1.03,1.14 2.58,1.68 4.05,1.65c1.53,-0.1 2.94,-0.9 3.8,-2.16l28.9,-42.14c1.02,-1.49 1.16,-3.41 0.37,-5.02l-21.51,-44.1l25.31,-218.73c0.12,-1.11 -0.12,-2.23 -0.7,-3.17l-31.01,-50.95c-0.91,-1.49 -2.53,-2.4 -4.28,-2.4" id="path818"/>
    <path fill-rule="nonzero" fill="#ffffff" d="m437.48412,3802.31266l-51.63,-65.27l-48.41,65.27l0,58.8l100.04,0l0,-58.8" id="path820"/>
    <path fill-rule="nonzero" fill="#17282f" d="m437.48412,3802.30266l0.1,0l-0.1,0zm-95.04,1.65l43.53,-58.69l46.51,58.78l0,52.07l-90.04,0l0,-52.16zm43.41,-71.91l-0.08,0c-1.56,0.02 -3.01,0.77 -3.94,2.02l-48.4,65.27c-0.64,0.85 -0.99,1.9 -0.99,2.97l0,58.81c0,2.76 2.24,5 5,5l100.04,0c2.77,0 5,-2.24 5,-5l0,-58.81c0,-1.12 -0.38,-2.21 -1.08,-3.1l-51.63,-65.26c-0.95,-1.2 -2.39,-1.9 -3.92,-1.9" id="path822"/>
    <path fill-rule="nonzero" fill="#6ccb94" d="m331.93412,3811.46266l-13.75,-16.92l15.54,-96.35l52.13,38.85l56.65,-37.3l9.32,94.8l-13.56,13.6l-53.26,-50.9l-53.07,54.22" id="path824"/>
    <path fill-rule="nonzero" fill="#17282f" d="m323.47412,3793.12266l13.87,-86l45.52,33.93c1.68,1.26 3.98,1.32 5.74,0.17l49.73,-32.75l8.28,84.2l-8.43,8.47l-49.73,-47.51c-1.98,-1.9 -5.11,-1.84 -7.03,0.11l-49.14,50.22l-8.81,-10.84zm10.25,-99.93l-1.88,0.36c-1.62,0.66 -2.78,2.12 -3.06,3.84l-15.53,96.35c-0.23,1.41 0.15,2.84 1.05,3.95l13.75,16.93c0.9,1.1 2.23,1.77 3.66,1.84c1.42,0.06 2.8,-0.47 3.8,-1.5l49.61,-50.69l49.69,47.48c1.97,1.89 5.08,1.84 6.99,-0.08l13.56,-13.61c1.05,-1.05 1.58,-2.53 1.44,-4.01l-9.33,-94.79c-0.17,-1.75 -1.24,-3.27 -2.82,-4.03c-1.58,-0.75 -3.44,-0.63 -4.9,0.34l-53.73,35.36l-49.31,-36.75c-0.88,-0.66 -1.93,-0.99 -2.99,-0.99" id="path826"/>
    <path fill-rule="nonzero" fill="#ffffff" d="m225.83412,2581.99266c0,0 -29.9,-92.4 -25.46,-93.88c4.44,-1.48 100.66,0 100.66,0l-4.68,93.88l-70.52,0" id="path828"/>
    <path fill-rule="nonzero" fill="#17282f" d="m205.21412,2492.64266c13.02,-0.47 58.69,-0.07 90.56,0.4l-4.17,83.95l-62.13,0c-11.23,-34.91 -22.3,-72.55 -24.26,-84.35zm-0.29,-3.1l0.1,0l-0.1,0zm26.7,-7.1c-17.8,0 -30.79,0.25 -32.83,0.93c-5.32,1.77 -9.15,3.05 22.28,100.16c0.67,2.06 2.59,3.46 4.76,3.46l70.52,0c2.67,0 4.86,-2.09 5,-4.75l4.67,-93.88c0.07,-1.35 -0.42,-2.67 -1.34,-3.66c-0.93,-1 -2.22,-1.57 -3.57,-1.59c-23.43,-0.36 -49.5,-0.67 -69.49,-0.67" id="path830"/>
    <path fill-rule="nonzero" fill="#ffffff" d="m549.43412,2581.99266c0,0 29.9,-92.4 25.46,-93.88c-4.44,-1.48 -100.66,0 -100.66,0l4.68,93.88l70.52,0" id="path832"/>
    <path fill-rule="nonzero" fill="#17282f" d="m479.48412,2493.04266c31.66,-0.46 76.95,-0.85 90.55,-0.34c-1.98,11.86 -13.03,49.44 -24.25,84.29l-62.12,0l-4.18,-83.95zm64.16,-10.6c-19.99,0 -46.06,0.31 -69.49,0.67c-1.35,0.02 -2.64,0.59 -3.57,1.59c-0.92,0.99 -1.41,2.31 -1.34,3.66l4.67,93.88c0.13,2.66 2.33,4.75 4.99,4.75l70.53,0c2.17,0 4.08,-1.4 4.75,-3.46c31.44,-97.12 27.6,-98.39 22.29,-100.16c-2.04,-0.68 -15.03,-0.93 -32.83,-0.93" id="path834"/>
    <path fill-rule="nonzero" fill="#6ccb94" d="m206.29412,3751.02266l-24.71,-214.01l-151.13,26.18l-3.8,-44.76l171.2,-91.44l34.95,20.7l-26.51,303.33" id="path836"/>
    <path fill-rule="nonzero" fill="#17282f" d="m31.91412,3521.28266l165.82,-88.55l29.82,17.66l-21.95,251.09l-19.06,-165.05c-0.15,-1.36 -0.87,-2.6 -1.97,-3.43c-1.1,-0.82 -2.5,-1.16 -3.85,-0.92l-145.75,25.25l-3.06,-36.05zm165.94,-99.29l-2.35,0.59l-171.2,91.44c-1.77,0.94 -2.8,2.84 -2.63,4.83l3.8,44.76c0.12,1.4 0.82,2.68 1.93,3.54c1.11,0.86 2.52,1.22 3.91,0.97l145.91,-25.28l24.11,208.75c0.29,2.56 2.43,4.58 5.03,4.43c2.57,-0.03 4.69,-2 4.91,-4.56l26.51,-303.34c0.17,-1.91 -0.77,-3.75 -2.43,-4.73l-34.95,-20.7l-2.55,-0.7" id="path838"/>
    <path fill-rule="nonzero" fill="#17282f" d="m568.61412,3473.48266l-123.45,0l0,198.79l123.45,0l0,-198.79" id="path840"/>
    <path fill-rule="nonzero" fill="#17282f" d="m450.15412,3478.48266l113.46,0l0,188.78l-113.46,0l0,-188.78zm118.46,-10l-123.46,0c-2.76,0 -5,2.24 -5,5l0,198.78c0,2.77 2.24,5 5,5l123.46,0c2.77,0 5,-2.23 5,-5l0,-198.78c0,-2.76 -2.23,-5 -5,-5" id="path842"/>
    <path fill-rule="nonzero" fill="#6ccb94" d="m591.50412,3588.83266l92.95,-67.52c0,0 12.03,-22.55 4.51,-43.61c-7.52,-21.05 -28.57,-30.08 -46.62,-30.08c-18.04,0 -49.34,63 -52.35,67.51c-3.01,4.52 -31.58,49.63 -31.58,49.63l33.09,24.07" id="path844"/>
    <path fill-rule="nonzero" fill="#17282f" d="m565.14412,3563.48266c7.04,-11.11 26.6,-41.94 29.01,-45.57c0.48,-0.71 1.63,-2.79 3.28,-5.82c28.28,-51.75 40.27,-59.47 44.91,-59.47c14.93,0 34.86,7.01 41.92,26.76c5.83,16.35 -1.72,34.3 -3.75,38.62l-89.01,64.65l-26.36,-19.17zm77.2,-120.86c-12.86,0 -28.91,19.34 -53.68,64.68c-1.44,2.63 -2.41,4.44 -2.83,5.06c-3,4.51 -30.48,47.88 -31.64,49.73c-1.41,2.22 -0.85,5.17 1.28,6.72l33.09,24.06c1.75,1.28 4.12,1.28 5.88,0.01l92.95,-67.52l1.48,-1.69c0.53,-1 12.97,-24.78 4.8,-47.65c-8.8,-24.66 -33.15,-33.4 -51.33,-33.4" id="path846"/>
    <path fill-rule="nonzero" fill="#ffffff" d="m576.46412,3609.88266l-40.61,-22.56l1.51,-34.59c0,0 49.62,-10.53 54.14,-6.01c4.51,4.51 4.51,72.19 -15.04,63.16" id="path848"/>
    <path fill-rule="nonzero" fill="#17282f" d="m588.85412,3550.87266zm-46.67,5.96c19.05,-3.87 40.42,-7.07 45.94,-6.13c2.08,6.81 1.38,46.03 -6.74,54.19c-0.85,0.85 -1.4,1.07 -2.68,0.52l-37.72,-20.96l1.2,-27.62zm42.43,-16.14c-7.92,0 -22.16,1.61 -48.29,7.15c-2.23,0.47 -3.86,2.4 -3.96,4.68l-1.5,34.59c-0.09,1.89 0.91,3.66 2.57,4.58l40.6,22.56l0.33,0.17c6.12,2.82 11.98,1.01 16.12,-4.91c9.47,-13.6 11.22,-59.66 4.55,-66.33c-0.88,-0.88 -2.49,-2.49 -10.42,-2.49" id="path850"/>
    <path fill-rule="nonzero" fill="#17282f" d="m317.31412,4006.79266c0,0 -26.28,-8.8 -30.99,-24.09c-4.7,-15.28 20,-51.74 20,-51.74l8.23,56.45l2.76,19.38" id="path852"/>
    <path fill-rule="nonzero" fill="#17282f" d="m311.13412,3998.82266c-7.85,-3.79 -17.71,-10.08 -20.02,-17.59c-2.2,-7.13 4.79,-22.93 12.24,-35.98l7.78,53.57zm-4.81,-72.86c-1.64,0 -3.2,0.8 -4.14,2.2c-2.67,3.93 -25.89,38.93 -20.63,56.01c5.3,17.25 31.24,26.37 34.18,27.36c1.64,0.55 3.45,0.2 4.79,-0.9c1.32,-1.11 1.99,-2.83 1.74,-4.55l-11,-75.84c-0.29,-2.04 -1.81,-3.69 -3.83,-4.15l-1.11,-0.13" id="path854"/>
    <path fill-rule="nonzero" fill="#ffffff" d="m346.08412,4024.75266c-11.14,-2.92 -21.17,-8.53 -28.77,-17.96c-19.31,-23.97 -11.89,-55.01 -9.82,-84.06c1.18,-16.47 7.06,-105.85 21.17,-114.08c14.11,-8.23 34.11,-8.23 54.1,0c19.99,8.23 55.27,31.75 63.5,41.16c8.23,9.4 8.23,44.62 8.23,44.69c0,4.43 6.38,12.81 7.95,17.11c3.5,9.57 6.55,19.88 7.38,30.06c2.82,34.54 -16.64,64.8 -49.27,75.92c-22.37,7.63 -51.18,13.26 -74.47,7.16" id="path856"/>
    <path fill-rule="nonzero" fill="#17282f" d="m347.35412,4019.91266l0,0c-10.97,-2.87 -19.77,-8.35 -26.14,-16.26c-14.84,-18.42 -12.52,-41.49 -10.06,-65.91c0.49,-4.91 0.99,-9.81 1.33,-14.66l0.13,-1.74c6.83,-96.82 16.67,-107.26 18.57,-108.37c12.68,-7.39 31.25,-7.27 49.67,0.3c19.43,8 53.85,30.92 61.65,39.83c4.82,5.51 6.99,27.53 7,41.4c0,4.11 2.75,8.89 5.42,13.5c1.18,2.04 2.31,3.92 2.82,5.33c4.17,11.39 6.42,20.51 7.09,28.74c2.67,32.6 -15.34,60.38 -45.89,70.79c-15.99,5.44 -46.55,13.6 -71.59,7.05zm6.14,-222.48c-10.12,0 -19.47,2.31 -27.35,6.9c-4.36,2.55 -15.96,9.31 -23.51,116.3l-0.12,1.74c-0.34,4.75 -0.83,9.55 -1.31,14.37c-2.55,25.35 -5.2,51.57 12.22,73.19c7.75,9.61 18.31,16.22 31.39,19.66l0,0c27.56,7.21 60.3,-1.45 77.35,-7.27c34.49,-11.74 55.65,-44.33 52.64,-81.06c-0.74,-9.15 -3.18,-19.11 -7.66,-31.36c-0.74,-2.02 -2.11,-4.39 -3.56,-6.9c-1.41,-2.44 -4.04,-6.99 -4.08,-8.5c0,-6.21 -0.46,-37.67 -9.47,-47.98c-8.61,-9.83 -44.51,-33.91 -65.37,-42.5c-10.68,-4.39 -21.29,-6.59 -31.17,-6.59" id="path858"/>
    <path fill-rule="nonzero" fill="#17282f" d="m339.24412,4028.57266c0,0 -27.04,-7.06 -29.4,-23.52c-2.35,-16.47 16.47,-34.11 61.16,-42.34c44.69,-8.23 51.74,-7.06 51.74,-7.06c0,0 -16.46,-10.58 -10.58,-16.46c5.88,-5.88 14.11,-14.11 14.11,-14.11l-2.35,-22.34c0,0 10.58,-12.94 12.93,-3.53c2.36,9.4 7.06,21.17 10.59,22.34c3.53,1.18 15,-9.94 15,-9.94c0,0 6.17,27.58 3.81,52.28c-2.35,24.69 -11.43,35.67 -45.7,53.7c-34.26,18.03 -81.31,10.98 -81.31,10.98" id="path860"/>
    <path fill-rule="nonzero" fill="#17282f" d="m429.12412,3904.41266c1.07,-1.11 2.22,-2.13 3.16,-2.82c1.93,7.13 6.72,22.42 13.58,24.7c1.43,0.48 4.75,1.59 13.27,-5.09c1.59,9.86 3.62,26.74 2.15,42.21c-2.04,21.41 -8.55,31.6 -43.06,49.76c-31.15,16.39 -74.25,11 -77.97,10.49c-6.83,-1.86 -23.94,-8.71 -25.46,-19.32c-1.68,-11.77 12.27,-28.45 57.12,-36.71c41.6,-7.67 49.91,-7.04 50.23,-7.02c2.38,0.23 4.5,-1.16 5.25,-3.34c0.75,-2.18 -0.01,-4.57 -1.94,-5.82c-4.71,-3.04 -9.36,-7.59 -9.56,-9.35l13.92,-13.49c1.07,-1.06 1.59,-2.56 1.43,-4.05l-2.12,-20.15zm4.5,-13.63c-5.72,0 -11.3,6.01 -13.57,8.79c-0.85,1.03 -1.24,2.36 -1.1,3.69l2.1,19.97l-12.43,12.42c-2.03,2.03 -2.98,4.7 -2.67,7.52c0.31,2.92 2.01,5.77 4.15,8.28c-7.98,0.91 -20.49,2.75 -40.01,6.34c-51.75,9.53 -67.61,31.03 -65.2,47.97c2.79,19.53 31.86,27.32 33.1,27.65l0.51,0.1c2,0.3 49.07,7.08 84.38,-11.49c35.42,-18.64 45.82,-31.03 48.35,-57.66c2.4,-25.19 -3.65,-52.68 -3.91,-53.84c-0.4,-1.76 -1.71,-3.18 -3.44,-3.69c-1.75,-0.52 -3.61,-0.06 -4.92,1.19c-3.7,3.58 -8.1,7.06 -10.34,8.25c-1.41,-2.17 -4.73,-9.55 -6.92,-18.27c-1.29,-5.16 -4.55,-6.62 -6.37,-7.03l-1.71,-0.19" id="path862"/>
    <path fill-rule="nonzero" fill="#ffffff" d="m346.30412,3865.10266l-15.29,2.35l10.59,39.99l-3.53,19.99" id="path864"/>
    <path fill-rule="nonzero" fill="#17282f" d="m346.31412,3862.60266l-0.39,0.03l-15.29,2.35l-1.71,1.11l-0.32,2l10.44,39.46l-3.43,19.45c-0.24,1.36 0.67,2.65 2.03,2.89c1.33,0.29 2.65,-0.66 2.89,-2.03l3.53,-19.98l-0.05,-1.08l-9.87,-37.3l12.54,-1.93c1.37,-0.21 2.3,-1.48 2.09,-2.85c-0.19,-1.23 -1.25,-2.12 -2.46,-2.12" id="path866"/>
    <path fill-rule="nonzero" fill="#17282f" d="m329.84412,3913.91266c0,-5.53 -2.11,-10 -4.71,-10c-2.6,0 -4.7,4.47 -4.7,10c0,5.52 2.1,9.99 4.7,9.99c2.6,0 4.71,-4.47 4.71,-9.99" id="path868"/>
    <path fill-rule="nonzero" fill="#17282f" d="m371.00412,3908.61266c0,-5.52 -2.11,-9.99 -4.71,-9.99c-2.59,0 -4.7,4.47 -4.7,9.99c0,5.52 2.11,10 4.7,10c2.6,0 4.71,-4.48 4.71,-10" id="path870"/>
    <path fill-rule="nonzero" fill="#ffffff" d="m336.89412,3853.34266c0,0 14.12,-16.46 39.99,2.35" id="path872"/>
    <path fill-rule="nonzero" fill="#17282f" d="m353.54412,3844.23266c-11.92,0 -18.44,7.37 -18.55,7.49c-0.89,1.05 -0.77,2.62 0.28,3.52c1.02,0.89 2.6,0.78 3.51,-0.26c0.53,-0.61 13.08,-14.38 36.63,2.73c1.11,0.81 2.68,0.57 3.49,-0.55c0.81,-1.12 0.57,-2.68 -0.55,-3.49c-9.83,-7.15 -18.16,-9.44 -24.81,-9.44" id="path874"/>
    <path fill-rule="nonzero" fill="#ffffff" d="m316.90412,3934.49266c0,0 5.88,9.41 16.46,1.17" id="path876"/>
    <path fill-rule="nonzero" fill="#17282f" d="m316.90412,3932.00266l-1.33,0.39c-1.16,0.73 -1.51,2.26 -0.79,3.42c0.12,0.19 2.94,4.61 8.26,5.55c3.81,0.67 7.81,-0.58 11.86,-3.73c1.09,-0.84 1.28,-2.41 0.44,-3.5c-0.86,-1.09 -2.44,-1.28 -3.51,-0.44c-2.88,2.24 -5.52,3.14 -7.88,2.76c-3.11,-0.53 -4.92,-3.28 -4.94,-3.3l-2.11,-1.15" id="path878"/>
    <path fill-rule="nonzero" fill="#ffffff" d="m355.71412,3933.31266c0,0 19.99,7.05 29.4,-10.58" id="path880"/>
    <path fill-rule="nonzero" fill="#17282f" d="m385.11412,3920.23266l-2.21,1.32c-8.25,15.49 -25.63,9.67 -26.36,9.4c-1.29,-0.46 -2.73,0.23 -3.19,1.53c-0.45,1.3 0.23,2.73 1.53,3.19c0.22,0.08 22.13,7.56 32.44,-11.77c0.65,-1.21 0.18,-2.73 -1.03,-3.38l-1.18,-0.29" id="path882"/>
    <path fill-rule="nonzero" fill="#ffffff" d="m429.95412,3884.63266c0,0 -1.32,36.24 17.49,36.92c18.81,0.68 15,-9.94 13.85,-26.52c-1.41,-20.24 -17.08,-24.66 -17.08,-24.66" id="path884"/>
    <path fill-rule="nonzero" fill="#17282f" d="m444.20412,3865.37266c-2.18,0 -4.18,1.44 -4.81,3.64c-0.74,2.66 0.8,5.42 3.46,6.17c0.46,0.14 12.32,3.92 13.45,20.2c0.15,2.2 0.35,4.3 0.54,6.28c0.56,5.93 1.09,11.55 -0.57,13.31c-0.64,0.68 -2.65,1.8 -8.65,1.59c-11.23,-0.41 -12.96,-23.64 -12.68,-31.75c0.1,-2.75 -2.06,-5.07 -4.81,-5.17c-2.77,-0.04 -5.08,2.05 -5.18,4.81c-0.01,0.4 -0.33,9.81 1.81,19.47c4.03,18.23 13.37,22.37 20.5,22.63c7.73,0.32 12.98,-1.21 16.28,-4.72c4.77,-5.06 4.07,-12.5 3.26,-21.11c-0.19,-1.91 -0.38,-3.93 -0.52,-6.04c-1.64,-23.48 -19.94,-28.91 -20.72,-29.12l-1.36,-0.19" id="path886"/>
    <path fill-rule="nonzero" fill="#ffffff" d="m30.45412,3563.19266l-23.63,25.15l-38.3,8.81c0,0 -5.76,-8.6 -2.32,-14.63c3.43,-6.03 20.2,-19.12 20.2,-19.12l-33.72,0.78c0,0 -24.07,23.57 -27.1,12.52c-3.03,-11.04 7.12,-35.88 22.74,-46.96c15.62,-11.07 78.33,-11.31 78.33,-11.31l3.8,44.76" id="path888"/>
    <path fill-rule="nonzero" fill="#17282f" d="m-69.76588,3574.51266c-1.51,-9.2 7.13,-30.87 20.98,-40.69c10.81,-7.66 51.22,-9.96 70.85,-10.34l3.22,37.92l-21.07,22.41l-33.05,7.61c-0.89,-2.2 -1.52,-4.84 -0.61,-6.43c2.02,-3.56 12.29,-12.46 18.93,-17.65c1.7,-1.32 2.35,-3.58 1.63,-5.62c-0.73,-2.04 -2.88,-3.37 -4.82,-3.32l-33.72,0.77c-1.27,0.03 -2.48,0.55 -3.38,1.43c-6.95,6.79 -15.38,12.91 -18.96,13.91zm96.42,-61.08l-0.02,0c-6.58,0.02 -64.76,0.58 -81.2,12.24c-17.6,12.47 -28.27,39.22 -24.67,52.35c0.89,3.26 3.04,5.5 6.03,6.31c7.97,2.16 20.4,-8.01 27.96,-15.2l17.49,-0.4c-4.32,3.89 -8.61,8.19 -10.39,11.31c-4.82,8.48 1.75,18.75 2.51,19.89c1.16,1.72 3.24,2.58 5.28,2.09l38.3,-8.81c0.96,-0.22 1.84,-0.73 2.52,-1.45l23.63,-25.15c0.98,-1.03 1.46,-2.43 1.34,-3.84l-3.8,-44.77c-0.22,-2.58 -2.38,-4.57 -4.98,-4.57" id="path890"/>
    <path fill-rule="nonzero" fill="#a7aaa8" d="m-161.91588,3247.33266l5.39,-64.26c0,0 -25.715,-11.53 -29.445,-11.53c-3.735,0 -9.774,9.77 -9.774,9.77c-9.171,-0.61 -16.375,7.74 -14.421,16.72l10.71,49.3l37.54,0" id="path892"/>
    <path fill-rule="nonzero" fill="#17282f" d="m-195.74488,3186.31266c1.723,0 3.336,-0.89 4.254,-2.37c1.883,-3.04 4.512,-6.25 5.899,-7.28c3.367,0.87 14.008,5.23 23.789,9.54l-4.711,56.13l-28.914,0l-9.852,-45.35c-0.597,-2.74 0.11,-5.52 1.938,-7.64c1.828,-2.12 4.527,-3.26 7.265,-3.04l0.332,0.01zm9.77,-19.77c-4.648,0 -9.168,4.91 -12.52,9.83c-4.793,0.44 -9.203,2.71 -12.421,6.44c-3.895,4.52 -5.407,10.45 -4.141,16.29l10.715,49.29c0.504,2.3 2.535,3.94 4.886,3.94l37.54,0c2.597,0 4.765,-1.99 4.98,-4.58l5.39,-64.26c0.18,-2.11 -1,-4.11 -2.93,-4.98c-12.179,-5.46 -27.53,-11.97 -31.499,-11.97" id="path894"/>
    <path fill-rule="nonzero" fill="#6ccb94" d="m-212.65088,3751.02266l60.745,-271.78l-10.374,-231.91l-37.539,0l-26.867,244.16l14.035,259.53" id="path896"/>
    <path fill-rule="nonzero" fill="#17282f" d="m-195.33788,3252.33266l28.281,0l10.121,226.48l-52.68,235.71l-12.078,-223.3l26.356,-238.89zm33.058,-10l-37.539,0c-2.547,0 -4.691,1.92 -4.969,4.46l-26.871,244.15l14.016,260.35c0.137,2.5 2.09,4.51 4.578,4.72c2.457,0.26 4.75,-1.46 5.293,-3.9l60.736,-271.77l0.12,-1.32l-10.368,-231.91c-0.117,-2.67 -2.316,-4.78 -4.996,-4.78" id="path898"/>
    <path fill-rule="nonzero" fill="#17282f" d="m-231.71288,3373.82266l-290.883,0l-15.75,-791.83l70.519,0l90.672,601.93l90.672,-601.93l70.52,0l-15.75,791.83" id="path900"/>
    <path fill-rule="nonzero" fill="#17282f" d="m-282.17788,2586.99266l61.109,0l-15.547,781.83l-281.078,0l-15.551,-781.83l61.118,0l90.027,597.68c0.367,2.44 2.469,4.25 4.945,4.25c2.477,0 4.574,-1.81 4.946,-4.25l90.031,-597.68zm66.215,-10l-70.52,0c-2.476,0 -4.574,1.81 -4.945,4.25l-85.727,569.11l-85.722,-569.11c-0.371,-2.44 -2.473,-4.25 -4.95,-4.25l-70.519,0c-1.344,0 -2.633,0.54 -3.57,1.5c-0.942,0.96 -1.457,2.26 -1.43,3.6l15.75,791.83c0.055,2.72 2.277,4.9 5,4.9l290.883,0c2.726,0 4.949,-2.18 5,-4.9l15.75,-791.83c0.023,-1.34 -0.489,-2.64 -1.43,-3.6c-0.941,-0.96 -2.23,-1.5 -3.57,-1.5" id="path902"/>
    <path fill-rule="nonzero" fill="#6ccb94" d="m-539.71288,3751.02266l-57.18,-184.83c0,0 -25.633,-125.67 -7.418,-142.06c18.215,-16.4 76.629,84.93 76.629,84.93l-12.031,241.96" id="path904"/>
    <path fill-rule="nonzero" fill="#17282f" d="m-543.30288,3722.51266l-48.813,-157.79c-10.277,-50.55 -19.941,-126.89 -8.847,-136.88c0.371,-0.33 0.828,-0.63 2.05,-0.45c14.536,2.31 47.946,51.52 66.165,82.9l-10.555,212.22zm-56.285,-305.18c-3.051,0 -5.805,1.05 -8.067,3.08c-19.359,17.43 1.489,125.33 5.864,146.79l57.3,185.31c0.719,2.31 3.028,3.76 5.403,3.48c2.406,-0.31 4.246,-2.3 4.371,-4.72l12.035,-241.96c0.047,-0.96 -0.188,-1.91 -0.664,-2.75c-8.195,-14.2 -50.262,-85.28 -73.996,-89.04l-2.246,-0.19" id="path906"/>
    <path fill-rule="nonzero" fill="#6ccb94" d="m-325.29088,3802.31266l-51.555,-10.88l-51.555,10.88l-111.312,-51.29l17.117,-377.2l291.5,0l17.25,377.2l-111.445,51.29" id="path908"/>
    <path fill-rule="nonzero" fill="#17282f" d="m-517.81488,3378.82266l281.942,0l16.882,369.07l-106.886,49.18l-49.938,-10.54l-2.058,0l-49.942,10.54l-106.754,-49.18l16.754,-369.07zm286.719,-10l-291.5,0c-2.668,0 -4.871,2.11 -4.996,4.78l-17.117,377.2c-0.094,2.03 1.054,3.92 2.906,4.76l111.312,51.28c0.977,0.46 2.075,0.59 3.121,0.36l50.528,-10.66l50.519,10.66c1.032,0.22 2.141,0.1 3.121,-0.36l111.446,-51.28c1.851,-0.84 3,-2.73 2.906,-4.77l-17.25,-377.2c-0.121,-2.67 -2.324,-4.77 -4.996,-4.77" id="path910"/>
    <path fill-rule="nonzero" fill="#17282f" d="m-408.98288,3723.96266l21.043,-52.06l-16.613,-224.61l26.582,-48.73l31.012,50.95l-25.473,220.18l22.152,45.41l-28.898,42.14l-29.805,-33.28" id="path912"/>
    <path fill-rule="nonzero" fill="#17282f" d="m-399.45888,3448.39266l21.726,-39.83l25.61,42.08l-25.27,218.47c-0.113,0.96 0.051,1.91 0.473,2.77l20.867,42.8l-23.649,34.49l-23.472,-26.22l19.871,-49.17l0.351,-2.24l-16.507,-223.15zm21.488,-54.83l-0.117,0c-1.789,0.04 -3.418,1.03 -4.274,2.61l-26.582,48.73c-0.457,0.85 -0.668,1.8 -0.594,2.77l16.528,223.44l-20.606,50.98c-0.718,1.77 -0.359,3.79 0.907,5.21l29.804,33.28c1.032,1.14 2.539,1.68 4.051,1.65c1.531,-0.1 2.934,-0.9 3.805,-2.16l28.894,-42.14c1.016,-1.49 1.157,-3.41 0.367,-5.02l-21.503,-44.1l25.3,-218.73c0.129,-1.11 -0.117,-2.23 -0.691,-3.17l-31.016,-50.95c-0.91,-1.49 -2.531,-2.4 -4.273,-2.4" id="path914"/>
    <path fill-rule="nonzero" fill="#a7aaa8" d="m-326.69388,3802.31266l-51.637,-65.27l-48.406,65.27l0,58.8l100.043,0l0,-58.8" id="path916"/>
    <path fill-rule="nonzero" fill="#17282f" d="m-326.69788,3802.30266l0.098,0l-0.098,0zm-95.039,1.65l43.535,-58.69l46.504,58.78l0,52.07l-90.039,0l0,-52.16zm43.41,-71.91l-0.078,0c-1.558,0.02 -3.015,0.77 -3.937,2.02l-48.406,65.27c-0.641,0.85 -0.989,1.9 -0.989,2.97l0,58.81c0,2.76 2.239,5 5,5l100.039,0c2.766,0 5,-2.24 5,-5l0,-58.81c0,-1.12 -0.379,-2.21 -1.078,-3.1l-51.633,-65.26c-0.945,-1.2 -2.39,-1.9 -3.918,-1.9" id="path918"/>
    <path fill-rule="nonzero" fill="#6ccb94" d="m-432.24488,3811.46266l-13.753,-16.92l15.539,-96.35l52.128,38.85l56.649,-37.3l9.324,94.8l-13.555,13.6l-53.265,-50.9l-53.067,54.22" id="path920"/>
    <path fill-rule="nonzero" fill="#17282f" d="m-440.70588,3793.12266l13.872,-86l45.519,33.93c1.68,1.26 3.988,1.32 5.734,0.17l49.735,-32.75l8.285,84.2l-8.437,8.47l-49.727,-47.51c-1.977,-1.9 -5.109,-1.84 -7.027,0.11l-49.145,50.22l-8.809,-10.84zm10.25,-99.93l-1.882,0.36c-1.614,0.66 -2.778,2.12 -3.055,3.84l-15.543,96.35c-0.223,1.41 0.156,2.84 1.055,3.95l13.754,16.93c0.902,1.1 2.226,1.77 3.656,1.84c1.433,0.06 2.805,-0.47 3.801,-1.5l49.609,-50.69l49.699,47.48c1.969,1.89 5.078,1.84 6.992,-0.08l13.555,-13.61c1.055,-1.05 1.582,-2.53 1.434,-4.01l-9.325,-94.79c-0.171,-1.75 -1.242,-3.27 -2.824,-4.03c-1.578,-0.75 -3.441,-0.63 -4.902,0.34l-53.719,35.36l-49.316,-36.75c-0.879,-0.66 -1.93,-0.99 -2.989,-0.99" id="path922"/>
    <path fill-rule="nonzero" fill="#ffffff" d="m-538.34588,2581.99266c0,0 -29.906,-92.4 -25.465,-93.88c4.441,-1.48 100.664,0 100.664,0l-4.68,93.88l-70.519,0" id="path924"/>
    <path fill-rule="nonzero" fill="#17282f" d="m-558.96288,2492.64266c13.027,-0.47 58.687,-0.07 90.562,0.4l-4.18,83.95l-62.125,0c-11.23,-34.91 -22.3,-72.55 -24.257,-84.35zm-0.293,-3.1l0.097,0l-0.097,0zm26.699,-7.1c-17.801,0 -30.789,0.25 -32.832,0.93c-5.313,1.77 -9.145,3.05 22.285,100.16c0.664,2.06 2.59,3.46 4.758,3.46l70.519,0c2.668,0 4.864,-2.09 4.996,-4.75l4.68,-93.88c0.067,-1.35 -0.422,-2.67 -1.347,-3.66c-0.93,-1 -2.219,-1.57 -3.571,-1.59c-23.429,-0.36 -49.492,-0.67 -69.488,-0.67" id="path926"/>
    <path fill-rule="nonzero" fill="#ffffff" d="m-214.74788,2581.99266c0,0 29.906,-92.4 25.464,-93.88c-4.441,-1.48 -100.664,0 -100.664,0l4.68,93.88l70.52,0" id="path928"/>
    <path fill-rule="nonzero" fill="#17282f" d="m-284.69388,2493.04266c31.664,-0.46 76.961,-0.85 90.551,-0.34c-1.984,11.86 -13.035,49.44 -24.246,84.29l-62.125,0l-4.18,-83.95zm64.153,-10.6c-19.993,0 -46.051,0.31 -69.485,0.67c-1.355,0.02 -2.644,0.59 -3.57,1.59c-0.93,0.99 -1.414,2.31 -1.348,3.66l4.68,93.88c0.129,2.66 2.328,4.75 4.992,4.75l70.524,0c2.167,0 4.085,-1.4 4.753,-3.46c31.438,-97.12 27.602,-98.39 22.286,-100.16c-2.039,-0.68 -15.032,-0.93 -32.832,-0.93" id="path930"/>
    <path fill-rule="nonzero" fill="#a7aaa8" d="m-328.77988,4024.75266c11.145,-2.92 21.168,-8.53 28.77,-17.96c19.312,-23.97 -1.742,-72 6.945,-99.8c7.774,-24.87 -4.187,-90.11 -18.297,-98.34c-14.113,-8.23 -34.105,-8.23 -54.097,0c-19.993,8.23 -55.274,31.75 -63.504,41.16c-8.227,9.4 -8.235,44.62 -8.235,44.69c0,4.43 -6.371,12.81 -7.945,17.11c-3.496,9.57 -6.547,19.88 -7.379,30.06c-2.824,34.54 11.328,73.44 43.953,84.56c22.379,7.63 56.492,4.62 79.789,-1.48" id="path932"/>
    <path fill-rule="nonzero" fill="#17282f" d="m-375.81488,4025.74266c-11.387,0 -22.336,-1.24 -31.141,-4.24c-31.464,-10.72 -43.093,-48.69 -40.582,-79.43c0.676,-8.23 2.93,-17.35 7.094,-28.74c0.516,-1.41 1.649,-3.29 2.824,-5.33c2.664,-4.61 5.426,-9.39 5.426,-13.5c0.004,-13.87 2.176,-35.89 6.996,-41.4c7.805,-8.91 42.227,-31.83 61.645,-39.83c18.43,-7.59 36.992,-7.69 49.668,-0.3c11.054,6.45 23.609,68.35 16.051,92.54c-3.973,12.71 -2.25,28.96 -0.582,44.67c2.156,20.26 4.378,41.22 -5.489,53.47c-6.383,7.92 -15.176,13.39 -26.14,16.26c-12.965,3.4 -29.797,5.83 -45.77,5.83zm39.625,-228.31c-9.883,0 -20.492,2.2 -31.172,6.59c-20.847,8.59 -56.758,32.66 -65.363,42.5c-9.012,10.29 -9.469,41.77 -9.469,47.98c-0.047,1.51 -2.672,6.06 -4.082,8.5c-1.449,2.51 -2.824,4.88 -3.562,6.9c-4.481,12.24 -6.918,22.21 -7.668,31.36c-2.813,34.48 10.789,77.26 47.328,89.71c23.215,7.93 58.242,5.01 82.668,-1.38l0.004,0c13.074,-3.43 23.636,-10.05 31.386,-19.66c12.465,-15.47 10.02,-38.52 7.653,-60.81c-1.637,-15.38 -3.18,-29.9 0.172,-40.63c7.968,-25.49 -3.375,-94.15 -20.551,-104.16c-7.879,-4.59 -17.231,-6.9 -27.344,-6.9" id="path934"/>
    <path fill-rule="nonzero" fill="#17282f" d="m-380.79888,4007.30266c29.027,8.84 58.035,3.04 69.41,1.26c2.953,-0.46 6.148,-0.23 9.187,0.5c-7.304,7.98 -16.429,13.03 -26.578,15.69c-23.297,6.1 -57.41,9.11 -79.785,1.49c-32.629,-11.13 -46.781,-50.03 -43.957,-84.57c0.832,-10.18 3.883,-20.49 7.379,-30.05c0.281,-0.77 0.836,-1.78 1.355,-2.75l11.243,-2.53c0,0 18.929,-6.31 21.453,-1.26c2.527,5.05 2.527,13.88 3.789,17.67c1.262,3.78 26.504,11.35 26.504,22.71c0,11.36 -16.41,40.39 -16.41,40.39c0,0 -12.622,12.62 16.41,21.45" id="path936"/>
    <path fill-rule="nonzero" fill="#17282f" d="m-380.79888,4007.30266l0.097,0l-0.097,0zm-59.606,-94.06l8.957,-2.02c6.567,-2.17 13.707,-3.47 16.254,-3.06c0.918,2.42 1.406,6.05 1.809,9.04c0.375,2.79 0.695,5.2 1.34,7.13c1.062,3.19 4.297,4.92 10.175,8.07c5.618,3 16.071,8.6 16.071,13.06c0,7.21 -9.391,26.57 -15.496,37.46c-1.43,1.67 -4.801,6.43 -3.254,12.61c1.777,7.12 9.074,12.53 22.297,16.56c25.781,7.84 51.183,4.67 65.433,2.42c-4,2.33 -8.418,4.14 -13.226,5.41c-22.969,6.01 -55.664,8.82 -76.911,1.58c-31.464,-10.72 -43.093,-48.69 -40.582,-79.43c0.676,-8.23 2.93,-17.35 7.094,-28.73l0.039,-0.1zm23.528,-15.12c-5.301,0 -11.672,1.62 -17.25,3.47l-10.758,2.4c-1.426,0.32 -2.637,1.25 -3.321,2.53c-0.777,1.47 -1.328,2.55 -1.636,3.4c-4.477,12.22 -6.914,22.18 -7.664,31.34c-2.813,34.48 10.793,77.26 47.328,89.71c23.219,7.91 58.262,5 82.668,-1.38c11.613,-3.05 21.371,-8.82 28.996,-17.16c1.195,-1.3 1.613,-3.14 1.094,-4.84c-0.516,-1.69 -1.895,-2.98 -3.618,-3.39c-3.824,-0.91 -7.675,-1.11 -11.117,-0.58l-2.765,0.44c-12.539,2.05 -38.614,6.32 -64.422,-1.54c-13.207,-4.02 -15.207,-8.22 -15.504,-9.42c-0.473,-1.88 1.156,-3.7 1.172,-3.72l0.816,-1.07c1.746,-3.09 17.059,-30.53 17.059,-42.85c0,-10.45 -12.336,-17.05 -21.352,-21.88c-1.941,-1.04 -4.512,-2.42 -5.629,-3.22c-0.285,-1.2 -0.465,-2.78 -0.695,-4.49c-0.574,-4.31 -1.234,-9.2 -3.145,-13.03c-1.73,-3.46 -5.582,-4.72 -10.257,-4.72" id="path938"/>
    <path fill-rule="nonzero" fill="#17282f" d="m-329.00588,3862.60266c-1.211,0 -2.278,0.89 -2.465,2.12c-0.211,1.37 0.726,2.64 2.09,2.85l12.539,1.93l-9.875,37.3l-0.043,1.08l3.531,19.98c0.238,1.37 1.57,2.32 2.895,2.03c1.363,-0.24 2.265,-1.54 2.027,-2.89l-3.434,-19.45l10.446,-39.46l-0.328,-2l-1.711,-1.11l-15.286,-2.35l-0.386,-0.03" id="path940"/>
    <path fill-rule="nonzero" fill="#17282f" d="m-312.53788,3913.91266c0,-5.53 2.106,-10 4.704,-10c2.597,0 4.703,4.47 4.703,10c0,5.52 -2.106,9.99 -4.703,9.99c-2.598,0 -4.704,-4.47 -4.704,-9.99" id="path942"/>
    <path fill-rule="nonzero" fill="#17282f" d="m-353.69788,3908.61266c0,-5.52 2.106,-9.99 4.703,-9.99c2.598,0 4.704,4.47 4.704,9.99c0,5.52 -2.106,10 -4.704,10c-2.597,0 -4.703,-4.48 -4.703,-10" id="path944"/>
    <path fill-rule="nonzero" fill="#17282f" d="m-336.24488,3844.23266c-6.648,0 -14.976,2.29 -24.8,9.44c-1.121,0.81 -1.364,2.37 -0.555,3.49c0.82,1.12 2.379,1.36 3.492,0.55c23.738,-17.25 36.5,-2.9 36.617,-2.74c0.907,1.04 2.485,1.16 3.524,0.27c1.051,-0.9 1.172,-2.48 0.273,-3.52c-0.101,-0.12 -6.637,-7.49 -18.551,-7.49" id="path946"/>
    <path fill-rule="nonzero" fill="#17282f" d="m-299.59988,3931.99266l-2.113,1.16c-0.02,0.02 -1.825,2.77 -4.942,3.3c-2.332,0.38 -5.004,-0.52 -7.879,-2.76c-1.093,-0.84 -2.668,-0.65 -3.507,0.44c-0.848,1.09 -0.653,2.66 0.441,3.5c4.055,3.16 8.062,4.4 11.863,3.73c5.321,-0.94 8.137,-5.36 8.254,-5.55c0.731,-1.17 0.375,-2.71 -0.797,-3.45l-1.32,-0.37" id="path948"/>
    <path fill-rule="nonzero" fill="#17282f" d="m-367.81088,3920.23266l-1.176,0.29c-1.215,0.65 -1.679,2.17 -1.031,3.38c10.305,19.33 32.223,11.85 32.437,11.77c1.305,-0.46 1.985,-1.89 1.528,-3.19c-0.453,-1.3 -1.895,-2 -3.184,-1.53c-0.73,0.25 -18.109,6.08 -26.367,-9.4l-2.207,-1.32" id="path950"/>
    <path fill-rule="nonzero" fill="#a7aaa8" d="m-422.53388,3892.16266c0,0 -3.953,36.04 -22.664,33.98c-18.715,-2.05 -13.402,-12.01 -9.851,-28.25c4.328,-19.82 20.476,-21.92 20.476,-21.92" id="path952"/>
    <path fill-rule="nonzero" fill="#17282f" d="m-434.56888,3870.97266l-0.648,0.05c-0.801,0.1 -19.692,2.81 -24.715,25.8c-0.457,2.08 -0.941,4.04 -1.395,5.9c-2.054,8.41 -3.832,15.67 0.153,21.36c2.758,3.94 7.668,6.18 15.429,7.03c7.102,0.75 16.938,-1.96 23.571,-19.41c3.515,-9.25 4.57,-18.61 4.613,-19c0.305,-2.74 -1.68,-5.21 -4.426,-5.51c-2.758,-0.38 -5.203,1.67 -5.515,4.41c-0.899,8.07 -5.961,30.94 -17.149,29.57c-5.984,-0.66 -7.789,-2.05 -8.332,-2.82c-1.387,-1.99 -0.047,-7.46 1.367,-13.25c0.477,-1.94 0.981,-3.99 1.446,-6.15c3.488,-15.93 15.769,-17.94 16.285,-18.02c2.715,-0.41 4.621,-2.93 4.238,-5.64c-0.348,-2.5 -2.465,-4.32 -4.922,-4.32" id="path954"/>
    <path fill-rule="nonzero" fill="#6ccb94" d="m-642.56088,3597.16266c0,0 -10.93,-112.93 -10.93,-127.5c0,-14.57 34.61,-43.71 49.18,-45.53c14.57,-1.82 34.605,16.39 36.426,27.32c1.82,10.93 -25.5,151.17 -25.5,151.17l-49.176,-5.46" id="path956"/>
    <path fill-rule="nonzero" fill="#17282f" d="m-637.97088,3592.63266c-1.949,-20.28 -10.52,-110.35 -10.52,-122.97c0,-11.66 32.149,-38.99 44.801,-40.57c11.66,-1.42 29.449,14.65 30.875,23.18c1.016,7.96 -14.191,91.18 -24.594,144.87l-40.562,-4.51zm35.754,-173.63c-0.914,0 -1.821,0.06 -2.711,0.17c-15.949,1.99 -53.563,32.6 -53.563,50.49c0,14.65 10.504,123.36 10.953,127.98c0.227,2.35 2.075,4.22 4.426,4.49l49.18,5.46c2.559,0.25 4.965,-1.46 5.457,-4.01c4.59,-23.57 27.398,-141.71 25.523,-152.95c-2.043,-12.25 -21.976,-31.63 -39.265,-31.63" id="path958"/>
    <path fill-rule="nonzero" fill="#a7aaa8" d="m-593.38488,3628.12266c0,0 -21.856,32.79 -27.321,40.07c-5.46,7.29 -25.496,7.29 -34.605,20.04c-9.105,12.75 -18.215,0 -16.391,-12.75c1.821,-12.75 25.5,-34.61 25.5,-34.61l-38.25,12.75c0,0 -5.464,27.32 -16.39,14.57c-10.93,-12.75 0,-51 5.461,-58.28c5.465,-7.29 52.82,-27.32 71.035,-30.97c18.215,-3.64 30.961,14.58 30.961,23.68c0,9.11 0,25.5 0,25.5" id="path960"/>
    <path fill-rule="nonzero" fill="#17282f" d="m-695.35388,3666.58266c-0.019,-0.09 -0.652,-0.43 -1.695,-1.64c-8.524,-9.95 0.851,-45.61 5.668,-52.04c4.168,-5.45 48.859,-25.22 68.015,-29.06c7.305,-1.46 12.93,1.62 16.379,4.45c5.871,4.81 8.606,11.39 8.606,14.33l0,23.99c-4.059,6.07 -21.606,32.29 -26.325,38.58c-1.433,1.92 -6.152,3.6 -10.718,5.22c-7.942,2.83 -17.836,6.35 -23.953,14.91c-1.715,2.4 -3.239,3.37 -3.903,3.13c-1.742,-0.69 -4.383,-5.88 -3.472,-12.27c1.144,-8 15.289,-23.65 23.941,-31.64c1.73,-1.59 2.109,-4.18 0.914,-6.21c-1.199,-2.03 -3.66,-2.94 -5.891,-2.2l-38.246,12.75c-1.699,0.57 -2.964,2 -3.32,3.75c-1.258,6.24 -4.203,13.06 -6,13.95zm75.664,-93.1c-1.871,0 -3.754,0.19 -5.641,0.56c-18.242,3.65 -67.207,23.75 -74.046,32.87c-5.911,7.87 -18.481,49.11 -5.258,64.53c4.57,5.35 8.89,5.58 11.769,4.84c7.383,-1.93 11.121,-12.73 12.664,-18.81l16.563,-5.51c-6.086,7.25 -12.024,15.88 -13.016,22.81c-1.468,10.3 2.684,20.17 9.66,22.97c2.571,1.04 9.278,2.45 15.75,-6.61c4.293,-6.01 12.2,-8.82 19.176,-11.3c6.231,-2.22 12.121,-4.31 15.363,-8.64c5.485,-7.31 26.59,-38.95 27.485,-40.29c0.547,-0.82 0.84,-1.79 0.84,-2.78l0,-25.5c0,-7.08 -5.043,-16.15 -12.266,-22.07c-5.668,-4.64 -12.277,-7.07 -19.043,-7.07" id="path962"/>
    <path fill-rule="nonzero" fill="#ffffff" d="m639.42412,4417.00266l-434.98,0c-28.56,0 -51.71,-23.15 -51.71,-51.7l0,-213.12c0,-28.56 23.15,-51.71 51.71,-51.71l335.82,0l0,-73.95l49.3,73.95l49.86,0c28.56,0 51.71,23.15 51.71,51.71l0,213.12c0,28.55 -23.15,51.7 -51.71,51.7" id="path970"/>
    <path fill-rule="nonzero" fill="#17282f" d="m204.44412,4412.00266c-25.76,0 -46.71,-20.95 -46.71,-46.7l0,-213.12c0,-25.76 20.95,-46.71 46.71,-46.71l335.82,0c2.76,0 5,-2.23 5,-5l0,-57.44l40.14,60.22c0.93,1.39 2.49,2.22 4.16,2.22l49.86,0c25.75,0 46.71,20.95 46.71,46.71l0,213.12c0,25.75 -20.96,46.7 -46.71,46.7l-434.98,0zm335.82,-390.48l-1.45,0.21c-2.11,0.64 -3.55,2.58 -3.55,4.79l0,68.95l-330.82,0c-31.27,0 -56.71,25.44 -56.71,56.71l0,213.12c0,31.26 25.44,56.7 56.71,56.7l434.98,0c31.27,0 56.71,-25.44 56.71,-56.7l0,-213.12c0,-31.27 -25.44,-56.71 -56.71,-56.71l-47.19,0l-47.81,-71.73c-0.95,-1.41 -2.52,-2.22 -4.16,-2.22" id="path972"/>
    <path fill-rule="nonzero" fill="#17282f" d="m345.06412,4260.75266c0,-10.62 -8.6,-19.22 -19.21,-19.22c-10.61,0 -19.22,8.6 -19.22,19.22c0,10.61 8.61,19.22 19.22,19.22c10.61,0 19.21,-8.61 19.21,-19.22" id="path974"/>
    <path fill-rule="nonzero" fill="#17282f" d="m441.14412,4260.75266c0,-10.62 -8.6,-19.22 -19.21,-19.22c-10.61,0 -19.22,8.6 -19.22,19.22c0,10.61 8.61,19.22 19.22,19.22c10.61,0 19.21,-8.61 19.21,-19.22" id="path976"/>
    <path fill-rule="nonzero" fill="#17282f" d="m537.22412,4260.75266c0,-10.62 -8.6,-19.22 -19.21,-19.22c-10.61,0 -19.22,8.6 -19.22,19.22c0,10.61 8.61,19.22 19.22,19.22c10.61,0 19.21,-8.61 19.21,-19.22" id="path978"/>
    <path fill-rule="nonzero" fill="#17282f" d="m-698.04888,4417.00266l434.98,0c28.559,0 51.707,-23.15 51.707,-51.7l0,-213.12c0,-28.56 -23.148,-51.71 -51.707,-51.71l-335.816,0l0,-73.95l-49.305,73.95l-49.859,0c-28.559,0 -51.707,23.15 -51.707,51.71l0,213.12c0,28.55 23.148,51.7 51.707,51.7" id="path980"/>
    <path fill-rule="nonzero" fill="#17282f" d="m-698.04888,4412.00266c-25.75,0 -46.703,-20.95 -46.703,-46.7l0,-213.12c0,-25.76 20.953,-46.71 46.703,-46.71l49.859,0c1.668,0 3.231,-0.83 4.16,-2.22l40.145,-60.22l0,57.44c0,2.77 2.238,5 5,5l335.82,0c25.754,0 46.703,20.95 46.703,46.71l0,213.12c0,25.75 -20.949,46.7 -46.703,46.7l-434.984,0zm99.164,-390.48c-1.641,0 -3.215,0.81 -4.16,2.22l-47.821,71.73l-47.183,0c-31.266,0 -56.703,25.44 -56.703,56.71l0,213.12c0,31.26 25.437,56.7 56.703,56.7l434.984,0c31.266,0 56.703,-25.44 56.703,-56.7l0,-213.12c0,-31.27 -25.437,-56.71 -56.703,-56.71l-330.82,0l0,-68.95c0,-2.21 -1.442,-4.15 -3.547,-4.79l-1.453,-0.21" id="path982"/>
    <path fill-rule="nonzero" fill="#ffffff" d="m-560.06888,4260.75266c0,-10.62 -8.601,-19.22 -19.215,-19.22c-10.613,0 -19.218,8.6 -19.218,19.22c0,10.61 8.605,19.22 19.218,19.22c10.614,0 19.215,-8.61 19.215,-19.22" id="path984"/>
    <path fill-rule="nonzero" fill="#ffffff" d="m-463.99088,4260.75266c0,-10.62 -8.601,-19.22 -19.215,-19.22c-10.613,0 -19.214,8.6 -19.214,19.22c0,10.61 8.601,19.22 19.214,19.22c10.614,0 19.215,-8.61 19.215,-19.22" id="path986"/>
    <path fill-rule="nonzero" fill="#ffffff" d="m-367.90888,4260.75266c0,-10.62 -8.605,-19.22 -19.214,-19.22c-10.614,0 -19.219,8.6 -19.219,19.22c0,10.61 8.605,19.22 19.219,19.22c10.609,0 19.214,-8.61 19.214,-19.22" id="path988"/>
   </g>
  </g>
 </g>
</svg>