<svg width="500" height="500" xmlns="http://www.w3.org/2000/svg" xml:space="preserve" version="1.1">
 <metadata id="metadata8">image/svg+xml</metadata>

 <g>
  <title>Layer 1</title>
  <g transform="matrix(2.68113 0 0 -2.68113 -134.101 1148.5)" id="g10">
   <g transform="translate(-419.251 -9.00002) scale(0.1 0.1)" id="g12">
    <path id="path366" d="m6254.48498,4335.6l-679.75,0c0,0 -39.69,-40.81 6.95,-64.13l686,0l-13.2,64.13" fill="#ffffff" fill-rule="nonzero"/>
    <path id="path368" d="m5582.88498,4276.47l678.67,0l-11.14,54.13l-673.45,0c-3.96,-4.62 -15.03,-19.05 -12.65,-32.99c1.43,-8.35 7.68,-15.46 18.57,-21.14zm684.8,-10l-686,0l-2.24,0.53c-14.56,7.27 -22.97,17.02 -24.99,28.97c-3.7,21.84 15.85,42.26 16.69,43.12c0.94,0.96 2.23,1.51 3.58,1.51l679.76,0c2.37,0 4.41,-1.67 4.89,-3.99l13.2,-64.13c0.32,-1.47 -0.06,-3 -1.01,-4.17c-0.95,-1.17 -2.37,-1.84 -3.88,-1.84" fill="#17282f" fill-rule="nonzero"/>
    <path id="path370" d="m6267.68498,4271.47c0,0 -44.23,2.08 -32.94,41.57c11.28,39.48 47.95,22.56 62.05,5.64c14.1,-16.93 16.92,-53.59 8.46,-107.18c-8.46,-53.59 0,-637.45 0,-637.45l-45.13,0l7.56,697.42" fill="#ffffff" fill-rule="nonzero"/>
    <path id="path372" d="m6265.18498,3579.05l35,0c-0.87,61.18 -7.97,581.88 0.13,633.23c10.36,65.56 1.72,92.31 -7.36,103.2c-8.34,10 -24.21,18.83 -36.18,16.29c-8.11,-1.72 -13.9,-8.48 -17.23,-20.11c-2.74,-9.58 -2.04,-17.34 2.06,-23.07c7.91,-11.06 26.14,-12.11 26.33,-12.12c2.67,-0.14 4.78,-2.37 4.75,-5.05l-7.5,-692.37zm40.07,-10l-45.13,0c-1.34,0 -2.61,0.53 -3.55,1.49c-0.94,0.94 -1.46,2.23 -1.45,3.56l7.51,692.92c-7.35,1.17 -21.29,4.78 -29.14,15.71c-5.98,8.34 -7.19,19 -3.56,31.68c5.51,19.27 16.51,25.4 24.77,27.14c16.53,3.49 35.59,-7.26 45.93,-19.67c15.13,-18.15 18.34,-55.56 9.56,-111.17c-8.3,-52.55 -0.03,-630.75 0.06,-636.58c0.02,-1.34 -0.5,-2.64 -1.44,-3.59c-0.94,-0.95 -2.22,-1.49 -3.56,-1.49" fill="#17282f" fill-rule="nonzero"/>
    <path id="path374" d="m5648.75498,2529.08l-49.58,0l0,1007.94l49.58,0l0,-1007.94" fill="#a7aaa8" fill-rule="nonzero"/>
    <path id="path376" d="m5604.17498,2534.08l39.59,0l0,997.94l-39.59,0l0,-997.94zm44.59,-10l-49.59,0c-2.77,0 -5,2.24 -5,5l0,1007.94c0,2.76 2.23,5 5,5l49.59,0c2.76,0 5,-2.24 5,-5l0,-1007.94c0,-2.76 -2.24,-5 -5,-5" fill="#17282f" fill-rule="nonzero"/>
    <path id="path378" d="m6244.75498,2529.08l-49.59,0l0,1007.94l49.59,0l0,-1007.94" fill="#a7aaa8" fill-rule="nonzero"/>
    <path id="path380" d="m6200.16498,2534.08l39.59,0l0,997.94l-39.59,0l0,-997.94zm44.59,-10l-49.59,0c-2.76,0 -5,2.24 -5,5l0,1007.94c0,2.76 2.24,5 5,5l49.59,0c2.77,0 5,-2.24 5,-5l0,-1007.94c0,-2.76 -2.23,-5 -5,-5" fill="#17282f" fill-rule="nonzero"/>
    <path id="path382" d="m6267.68498,3263.54l-686,0l0,1007.93l686,0l0,-1007.93" fill="#ffffff" fill-rule="nonzero"/>
    <path id="path384" d="m5586.68498,3268.54l676,0l0,997.93l-676,0l0,-997.93zm681,-10l-686,0c-2.77,0 -5,2.23 -5,5l0,1007.93c0,2.76 2.23,5 5,5l686,0c2.76,0 5,-2.24 5,-5l0,-1007.93c0,-2.77 -2.24,-5 -5,-5" fill="#17282f" fill-rule="nonzero"/>
    <path id="path386" d="m6295.41498,3232.49l-746.49,0l0,48.16l746.49,0l0,-48.16" fill="#a7aaa8" fill-rule="nonzero"/>
    <path id="path388" d="m5553.91498,3237.49l736.51,0l0,38.16l-736.51,0l0,-38.16zm741.51,-10l-746.51,0c-2.76,0 -5,2.24 -5,5l0,48.16c0,2.76 2.24,5 5,5l746.51,0c2.76,0 5,-2.24 5,-5l0,-48.16c0,-2.76 -2.24,-5 -5,-5" fill="#17282f" fill-rule="nonzero"/>
    <path id="path390" d="m5844.22498,3605.33l151.43,0l0,43.34c0,41.56 14.51,79.54 40.87,106.94c29.11,30.26 45.14,70.03 45.14,112.01c0,45.93 -19.64,89.85 -53.87,120.51c-34.71,31.08 -79.47,45.36 -126.3,40.19c-74.39,-8.22 -135.69,-70.71 -142.57,-145.34c-4.31,-46.71 10.79,-91.22 42.51,-125.35c27.6,-29.68 42.79,-68.36 42.79,-108.89l0,-43.41zm156.43,-10l-161.43,0c-2.76,0 -5,2.24 -5,5l0,48.41c0,38 -14.24,74.26 -40.11,102.08c-33.2,35.72 -49.65,84.22 -45.15,133.07c7.43,80.57 71.11,145.5 151.44,154.38c49.59,5.46 97.21,-9.68 134.06,-42.69c36.35,-32.56 57.2,-79.2 57.2,-127.96c0,-44.57 -17.03,-86.81 -47.93,-118.94c-24.55,-25.52 -38.08,-61.04 -38.08,-100.01l0,-48.34c0,-2.76 -2.24,-5 -5,-5" fill="#17282f" fill-rule="nonzero"/>
    <path id="path392" d="m5842.23498,3539.17l156.73,0l0,34.99l-156.73,0l0,-34.99zm161.73,-10l-166.73,0c-2.76,0 -5,2.23 -5,5l0,44.99c0,2.76 2.24,5 5,5l166.73,0c2.76,0 5,-2.24 5,-5l0,-44.99c0,-2.77 -2.24,-5 -5,-5" fill="#17282f" fill-rule="nonzero"/>
    <path id="path394" d="m5842.23498,3517.26l0,-21.56c0,-7.41 6.03,-13.43 13.43,-13.43l129.87,0c7.41,0 13.43,6.02 13.43,13.43l0,21.56l-156.73,0zm143.3,-44.99l-129.87,0c-12.92,0 -23.43,10.51 -23.43,23.43l0,26.56c0,2.77 2.24,5 5,5l166.73,0c2.76,0 5,-2.23 5,-5l0,-26.56c0,-12.92 -10.51,-23.43 -23.43,-23.43" fill="#17282f" fill-rule="nonzero"/>
    <path id="path396" d="m5912.88498,4185.81l0,-71.63" fill="#ffffff" fill-rule="nonzero"/>
    <path id="path398" d="m5912.88498,4111.68c-1.38,0 -2.5,1.12 -2.5,2.5l0,71.63c0,1.39 1.12,2.5 2.5,2.5c1.37,0 2.5,-1.11 2.5,-2.5l0,-71.63c0,-1.38 -1.13,-2.5 -2.5,-2.5" fill="#17282f" fill-rule="nonzero"/>
    <path id="path400" d="m6133.16498,3852.6l74.42,0" fill="#ffffff" fill-rule="nonzero"/>
    <path id="path402" d="m6207.58498,3850.1l-74.42,0c-1.38,0 -2.5,1.12 -2.5,2.5c0,1.38 1.12,2.5 2.5,2.5l74.42,0c1.38,0 2.5,-1.12 2.5,-2.5c0,-1.38 -1.12,-2.5 -2.5,-2.5" fill="#17282f" fill-rule="nonzero"/>
    <path id="path404" d="m5627.72498,3852.6l64.88,0" fill="#ffffff" fill-rule="nonzero"/>
    <path id="path406" d="m5692.60498,3850.1l-64.88,0c-1.38,0 -2.5,1.12 -2.5,2.5c0,1.38 1.12,2.5 2.5,2.5l64.88,0c1.38,0 2.5,-1.12 2.5,-2.5c0,-1.38 -1.12,-2.5 -2.5,-2.5" fill="#17282f" fill-rule="nonzero"/>
    <path id="path408" d="m5683.42498,4054.52l59.66,-41.3" fill="#ffffff" fill-rule="nonzero"/>
    <path id="path410" d="m5743.08498,4010.72l-1.42,0.44l-59.66,41.31c-1.14,0.78 -1.42,2.34 -0.63,3.48c0.78,1.13 2.34,1.42 3.48,0.63l59.66,-41.31c1.13,-0.78 1.41,-2.34 0.62,-3.47l-2.05,-1.08" fill="#17282f" fill-rule="nonzero"/>
    <path id="path412" d="m6137.75498,4054.52l-59.66,-41.3" fill="#ffffff" fill-rule="nonzero"/>
    <path id="path414" d="m6078.09498,4010.72l-2.05,1.08c-0.79,1.13 -0.51,2.69 0.63,3.47l59.65,41.31c1.16,0.79 2.72,0.5 3.48,-0.63c0.79,-1.14 0.51,-2.7 -0.62,-3.48l-59.66,-41.31l-1.43,-0.44" fill="#17282f" fill-rule="nonzero"/>
    <path id="path416" d="m5361.79498,3415.44l-290.88,0l-15.75,-791.83l70.52,0l90.67,601.93l90.67,-601.93l70.52,0l-15.75,791.83" fill="#17282f" fill-rule="nonzero"/>
    <path id="path418" d="m5311.32498,2628.61l61.12,0l-15.55,781.83l-281.08,0l-15.56,-781.83l61.12,0l90.04,597.68c0.36,2.44 2.47,4.25 4.94,4.25c2.47,0 4.58,-1.81 4.94,-4.25l90.03,-597.68zm66.21,-10l-70.51,0c-2.47,0 -4.58,1.8 -4.94,4.25l-85.73,569.11l-85.73,-569.11c-0.36,-2.45 -2.47,-4.25 -4.94,-4.25l-70.53,0c-1.35,0 -2.63,0.54 -3.57,1.49c-0.94,0.97 -1.46,2.26 -1.43,3.6l15.75,791.84c0.06,2.72 2.28,4.9 5,4.9l290.89,0c2.73,0 4.94,-2.18 5,-4.9l15.74,-791.84c0.03,-1.34 -0.48,-2.63 -1.42,-3.6c-0.95,-0.95 -2.23,-1.49 -3.58,-1.49" fill="#17282f" fill-rule="nonzero"/>
    <path id="path420" d="m5268.21498,3843.93l-51.55,-10.88l-51.56,10.88l-129.48,-51.29l35.29,-377.2l291.5,0l35.28,377.2l-129.48,51.29" fill="#6ccb94" fill-rule="nonzero"/>
    <path id="path422" d="m5075.45498,3420.44l282.41,0l34.5,368.94l-124.58,49.34l-50.09,-10.57l-2.07,0l-50.08,10.57l-124.59,-49.34l34.5,-368.94zm286.96,-10l-291.51,0c-2.57,0 -4.73,1.96 -4.98,4.54l-35.28,377.2c-0.2,2.21 1.07,4.29 3.13,5.11l129.49,51.28c0.92,0.37 1.91,0.45 2.88,0.25l50.52,-10.66l50.52,10.66c0.96,0.2 1.97,0.12 2.88,-0.25l129.48,-51.28c2.06,-0.82 3.34,-2.9 3.13,-5.11l-35.28,-377.2c-0.25,-2.58 -2.4,-4.54 -4.98,-4.54" fill="#17282f" fill-rule="nonzero"/>
    <path id="path424" d="m5035.62498,3792.64l-28.96,-206.31c-1.65,-17.2 2.61,-34.43 11.99,-48.95c7.36,-11.4 15.81,-22.86 20.79,-24.28c10.26,-2.93 57.16,4.4 63.02,13.19c5.86,8.79 17.58,83.53 17.58,83.53l-4.39,120.18" fill="#6ccb94" fill-rule="nonzero"/>
    <path id="path426" d="m5046.59498,3507.49c-3.65,0 -6.61,0.26 -8.53,0.8c-3.76,1.08 -9.84,5.05 -23.61,26.39c-9.98,15.45 -14.51,33.96 -12.77,52.13l28.99,206.53c0.39,2.73 3,4.6 5.64,4.25c2.74,-0.38 4.64,-2.91 4.26,-5.64l-28.96,-206.31c-1.51,-15.73 2.48,-31.98 11.24,-45.54c13.01,-20.15 17.5,-22.05 17.97,-22.2c10.13,-2.9 53.59,5.58 57.48,11.16c3.29,4.94 11.12,45.33 16.8,81.54l-4.45,119.21c-0.1,2.76 2.06,5.08 4.81,5.18c3.14,0.18 5.09,-2.06 5.19,-4.82l4.39,-120.17c-2.05,-13.62 -12.27,-77.25 -18.42,-86.48c-6.37,-9.56 -41.78,-16.03 -60.03,-16.03" fill="#17282f" fill-rule="nonzero"/>
    <path id="path428" d="m5184.52498,3765.58l21.05,-52.06l-16.62,-224.61l26.58,-48.73l31.02,50.95l-25.48,220.18l22.15,45.41l-28.89,42.14l-29.81,-33.28" fill="#17282f" fill-rule="nonzero"/>
    <path id="path430" d="m5194.05498,3490.01l21.72,-39.83l25.61,42.08l-25.28,218.47c-0.11,0.96 0.06,1.91 0.48,2.77l20.88,42.8l-23.66,34.49l-23.48,-26.22l19.88,-49.17l0.35,-2.25l-16.5,-223.14zm21.48,-54.83l-0.11,0c-1.79,0.04 -3.42,1.03 -4.27,2.61l-26.58,48.73c-0.47,0.85 -0.68,1.8 -0.61,2.77l16.53,223.44l-20.61,50.98c-0.71,1.77 -0.36,3.79 0.92,5.21l29.8,33.28c1.03,1.14 2.57,1.68 4.04,1.65c1.54,-0.1 2.93,-0.9 3.8,-2.16l28.91,-42.14c1.02,-1.49 1.16,-3.41 0.37,-5.02l-21.51,-44.1l25.31,-218.73c0.13,-1.11 -0.12,-2.23 -0.7,-3.17l-31.02,-50.95c-0.91,-1.49 -2.53,-2.4 -4.27,-2.4" fill="#17282f" fill-rule="nonzero"/>
    <path id="path432" d="m5266.81498,3843.93l-51.63,-65.27l-48.41,65.27l0,58.8l100.04,0l0,-58.8" fill="#ffffff" fill-rule="nonzero"/>
    <path id="path434" d="m5266.81498,3843.92l0.1,0l-0.1,0zm-95.04,1.65l43.53,-58.69l46.51,58.78l0,52.07l-90.04,0l0,-52.16zm43.4,-71.91l-0.08,0c-1.55,0.02 -3,0.77 -3.93,2.02l-48.4,65.27c-0.65,0.85 -0.99,1.9 -0.99,2.97l0,58.81c0,2.76 2.24,5 5,5l100.04,0c2.77,0 5,-2.24 5,-5l0,-58.81c0,-1.12 -0.38,-2.22 -1.07,-3.1l-51.64,-65.26c-0.96,-1.2 -2.41,-1.9 -3.93,-1.9" fill="#17282f" fill-rule="nonzero"/>
    <path id="path436" d="m5161.26498,3853.08l-13.75,-16.92l15.54,-96.35l52.13,38.85l56.64,-37.3l9.33,94.8l-13.56,13.6l-53.26,-50.9l-53.07,54.22" fill="#6ccb94" fill-rule="nonzero"/>
    <path id="path438" d="m5152.80498,3834.74l13.87,-86l45.51,33.93c1.7,1.26 3.99,1.32 5.75,0.17l49.72,-32.75l8.29,84.2l-8.43,8.47l-49.73,-47.51c-1.97,-1.9 -5.12,-1.84 -7.03,0.11l-49.14,50.22l-8.81,-10.84zm10.24,-99.93l-1.87,0.36c-1.62,0.66 -2.79,2.12 -3.06,3.84l-15.54,96.35c-0.23,1.41 0.16,2.84 1.06,3.95l13.76,16.93c0.9,1.1 2.22,1.77 3.64,1.84c1.47,0 2.8,-0.49 3.81,-1.5l49.6,-50.69l49.7,47.48c1.96,1.89 5.07,1.84 7,-0.08l13.55,-13.61c1.06,-1.05 1.58,-2.53 1.44,-4.01l-9.33,-94.8c-0.17,-1.74 -1.25,-3.27 -2.82,-4.02c-1.58,-0.75 -3.45,-0.63 -4.91,0.33l-53.72,35.37l-49.32,-36.75c-0.88,-0.66 -1.92,-0.99 -2.99,-0.99" fill="#17282f" fill-rule="nonzero"/>
    <path id="path440" d="m5055.16498,2623.61c0,0 -29.91,-92.4 -25.47,-93.88c4.44,-1.48 100.67,0 100.67,0l-4.68,93.88l-70.52,0" fill="#ffffff" fill-rule="nonzero"/>
    <path id="path442" d="m5034.54498,2534.26c13,-0.46 58.68,-0.07 90.56,0.4l-4.18,83.95l-62.13,0c-11.23,-34.92 -22.29,-72.56 -24.25,-84.35zm-0.3,-3.1l0.1,0l-0.1,0zm26.71,-7.1c-17.8,0 -30.79,0.25 -32.84,0.93c-5.31,1.77 -9.14,3.04 22.29,100.15c0.66,2.07 2.58,3.47 4.75,3.47l70.53,0c2.67,0 4.86,-2.09 4.99,-4.76l4.68,-93.87c0.07,-1.35 -0.41,-2.67 -1.34,-3.66c-0.93,-1 -2.22,-1.57 -3.57,-1.59c-23.43,-0.36 -49.5,-0.67 -69.49,-0.67" fill="#17282f" fill-rule="nonzero"/>
    <path id="path444" d="m5378.76498,2623.61c0,0 29.9,-92.4 25.46,-93.88c-4.44,-1.48 -100.66,0 -100.66,0l4.67,93.88l70.53,0" fill="#ffffff" fill-rule="nonzero"/>
    <path id="path446" d="m5308.81498,2534.66c31.63,-0.46 76.94,-0.84 90.55,-0.34c-1.98,11.86 -13.04,49.44 -24.25,84.29l-62.12,0l-4.18,-83.95zm64.14,-10.6c-19.99,0 -46.04,0.31 -69.47,0.67c-1.36,0.02 -2.64,0.59 -3.57,1.59c-0.93,0.99 -1.41,2.31 -1.34,3.66l4.68,93.87c0.12,2.67 2.32,4.76 4.99,4.76l70.52,0c2.16,0 4.09,-1.4 4.75,-3.47c31.43,-97.1 27.6,-98.38 22.3,-100.15c-2.04,-0.68 -15.05,-0.93 -32.86,-0.93" fill="#17282f" fill-rule="nonzero"/>
    <path id="path448" d="m5295.80498,4044.41c0,0 26.28,-8.79 30.99,-24.08c4.7,-15.29 -20,-51.75 -20,-51.75l-8.23,56.45l-2.76,19.38" fill="#17282f" fill-rule="nonzero"/>
    <path id="path450" d="m5301.99498,4036.44l7.77,-53.57c7.44,13.06 14.44,28.86 12.25,35.99c-2.32,7.52 -12.18,13.8 -20.02,17.58zm4.8,-72.86l-1.11,0.13c-2.01,0.46 -3.54,2.11 -3.84,4.15l-10.99,75.84c-0.25,1.72 0.42,3.44 1.74,4.55c1.35,1.11 3.16,1.46 4.79,0.9c2.95,-0.98 28.89,-10.1 34.18,-27.35c5.26,-17.09 -17.96,-52.09 -20.63,-56.02c-0.94,-1.39 -2.51,-2.2 -4.14,-2.2" fill="#17282f" fill-rule="nonzero"/>
    <path id="path452" d="m5267.03498,4062.37c11.14,-2.92 21.17,-8.52 28.77,-17.96c19.31,-23.97 11.89,-55.01 9.82,-84.06c-1.18,-16.46 -7.06,-105.84 -21.17,-114.07c-14.11,-8.23 -34.1,-8.23 -54.1,0c-19.99,8.23 -55.27,31.75 -63.5,41.16c-8.23,9.4 -8.23,44.62 -8.23,44.69c0,4.43 -6.38,12.81 -7.95,17.11c-3.5,9.56 -6.55,19.87 -7.38,30.05c-2.82,34.55 16.64,64.81 49.27,75.93c22.38,7.62 51.18,13.26 74.47,7.15" fill="#ffffff" fill-rule="nonzero"/>
    <path id="path454" d="m5245.14498,4059.97c-19.55,0 -39.21,-5.47 -50.97,-9.49c-30.55,-10.41 -48.56,-38.19 -45.9,-70.78c0.68,-8.22 2.94,-17.35 7.1,-28.74c0.51,-1.41 1.65,-3.3 2.83,-5.34c2.66,-4.61 5.42,-9.38 5.42,-13.49c0,-13.88 2.17,-35.89 6.99,-41.4c7.81,-8.92 42.24,-31.84 61.65,-39.83c18.42,-7.59 37,-7.69 49.67,-0.31c1.89,1.11 11.72,11.54 18.57,108.29l0.13,1.83c0.35,4.84 0.84,9.75 1.34,14.67c2.45,24.41 4.77,47.48 -10.07,65.89c-6.38,7.93 -15.17,13.39 -26.13,16.26c-6.61,1.74 -13.62,2.44 -20.63,2.44zm14.48,-224.91c-9.88,0 -20.49,2.2 -31.17,6.59c-20.85,8.58 -56.76,32.65 -65.36,42.5c-9.01,10.28 -9.47,41.77 -9.47,47.98c-0.05,1.51 -2.68,6.05 -4.08,8.49c-1.46,2.51 -2.83,4.88 -3.57,6.9c-4.47,12.26 -6.91,22.22 -7.66,31.36c-3.01,36.74 18.15,69.32 52.63,81.07c17.06,5.82 49.81,14.47 77.37,7.26c13.07,-3.42 23.63,-10.04 31.38,-19.66c17.42,-21.6 14.78,-47.83 12.23,-73.18c-0.49,-4.82 -0.98,-9.62 -1.31,-14.38l-0.14,-1.82c-7.56,-106.92 -19.15,-113.67 -23.5,-116.21c-7.88,-4.6 -17.24,-6.9 -27.35,-6.9" fill="#17282f" fill-rule="nonzero"/>
    <path id="path456" d="m5273.87498,4066.19c0,0 27.04,-7.05 29.4,-23.52c2.35,-16.46 -16.47,-34.1 -61.16,-42.33c-44.69,-8.24 -51.74,-7.06 -51.74,-7.06c0,0 16.46,-10.58 10.58,-16.46c-5.88,-5.89 -14.11,-14.12 -14.11,-14.12l2.35,-22.34c0,0 -10.58,-12.94 -12.93,-3.53c-2.36,9.41 -7.06,21.17 -10.59,22.35c-3.53,1.17 -15,-9.94 -15,-9.94c0,0 -6.17,27.58 -3.81,52.27c2.35,24.7 11.43,35.68 45.7,53.71c34.26,18.03 81.31,10.97 81.31,10.97" fill="#17282f" fill-rule="nonzero"/>
    <path id="path458" d="m5165.15498,3964.29c0.98,0 1.63,-0.22 2.1,-0.37c7,-2.33 11.86,-18.25 13.56,-24.72c0.94,0.69 2.11,1.71 3.18,2.84l-2.12,20.14c-0.16,1.5 0.37,2.99 1.44,4.06l14.11,14.11c-0.39,1.13 -5.04,5.68 -9.76,8.72c-1.99,1.29 -2.81,3.8 -1.95,6.01c0.85,2.21 3.14,3.49 5.48,3.13c0.12,0.01 8.47,-0.6 50.02,7.04c44.84,8.26 58.79,24.94 57.11,36.71c-1.53,10.67 -18.63,17.49 -25.45,19.32c-3.69,0.51 -46.88,5.88 -77.99,-10.49c-34.5,-18.15 -41.01,-28.34 -43.05,-49.75c-1.47,-15.5 0.56,-32.36 2.15,-42.21c5.75,4.51 9.14,5.46 11.17,5.46zm14.34,-35.88l-1.7,0.18c-1.84,0.41 -5.1,1.87 -6.39,7.02c-2.1,8.4 -5.24,15.54 -7.09,18.19c-2.3,-1.28 -6.56,-4.67 -10.16,-8.16c-1.3,-1.25 -3.19,-1.72 -4.92,-1.19c-1.72,0.52 -3.04,1.93 -3.44,3.7c-0.26,1.16 -6.31,28.64 -3.92,53.83c2.54,26.64 12.93,39.03 48.36,57.66c35.3,18.57 82.39,11.79 84.38,11.5l0.51,-0.11c1.24,-0.32 30.31,-8.12 33.1,-27.65c2.42,-16.93 -13.44,-38.43 -65.2,-47.96c-19.52,-3.6 -32.03,-5.43 -40.02,-6.35c2.15,-2.51 3.85,-5.36 4.16,-8.28c0.31,-2.81 -0.64,-5.49 -2.67,-7.51l-12.42,-12.43l2.1,-19.97c0.14,-1.33 -0.26,-2.66 -1.11,-3.69c-2.27,-2.78 -7.85,-8.78 -13.57,-8.78" fill="#17282f" fill-rule="nonzero"/>
    <path id="path460" d="m5266.81498,3902.73l15.29,2.35l-10.59,39.98l3.53,19.99" fill="#ffffff" fill-rule="nonzero"/>
    <path id="path462" d="m5266.81498,3900.23c-1.21,0 -2.28,0.88 -2.47,2.12c-0.21,1.36 0.72,2.64 2.09,2.85l12.54,1.93l-9.87,37.29l-0.05,1.08l3.53,19.99c0.24,1.37 1.45,2.3 2.9,2.03c1.36,-0.24 2.27,-1.54 2.03,-2.9l-3.44,-19.45l10.44,-39.45l-0.32,-2.01l-1.71,-1.1l-15.29,-2.35l-0.38,-0.03" fill="#17282f" fill-rule="nonzero"/>
    <path id="path464" d="m5283.27498,3951.53c0,-5.52 2.11,-9.99 4.71,-9.99c2.6,0 4.7,4.47 4.7,9.99c0,5.52 -2.1,10 -4.7,10c-2.6,0 -4.71,-4.48 -4.71,-10" fill="#17282f" fill-rule="nonzero"/>
    <path id="path466" d="m5242.11498,3946.24c0,-5.52 2.11,-10 4.71,-10c2.6,0 4.7,4.48 4.7,10c0,5.52 -2.1,9.99 -4.7,9.99c-2.6,0 -4.71,-4.47 -4.71,-9.99" fill="#17282f" fill-rule="nonzero"/>
    <path id="path468" d="m5276.22498,3890.96c0,0 -14.11,-16.46 -39.99,2.36" fill="#ffffff" fill-rule="nonzero"/>
    <path id="path470" d="m5259.58498,3881.85c-6.65,0 -14.98,2.3 -24.82,9.45c-1.11,0.81 -1.36,2.38 -0.55,3.49c0.81,1.12 2.37,1.36 3.5,0.55c23.75,-17.28 36.49,-2.9 36.61,-2.75c0.89,1.04 2.46,1.17 3.53,0.27c1.04,-0.9 1.16,-2.47 0.26,-3.52c-0.1,-0.12 -6.63,-7.49 -18.53,-7.49" fill="#17282f" fill-rule="nonzero"/>
    <path id="path472" d="m5296.21498,3972.11c0,0 -5.88,9.41 -16.46,1.18" fill="#ffffff" fill-rule="nonzero"/>
    <path id="path474" d="m5296.21498,3969.61l-2.11,1.16c-0.02,0.03 -1.83,2.78 -4.94,3.3c-2.45,0.41 -5.01,-0.53 -7.89,-2.75c-1.09,-0.86 -2.66,-0.66 -3.5,0.43c-0.85,1.09 -0.66,2.67 0.44,3.51c4.05,3.15 8.05,4.4 11.86,3.73c5.33,-0.95 8.14,-5.36 8.26,-5.56c0.73,-1.17 0.38,-2.71 -0.8,-3.44l-1.32,-0.38" fill="#17282f" fill-rule="nonzero"/>
    <path id="path476" d="m5257.40498,3970.93c0,0 -19.99,7.06 -29.4,-10.58" fill="#ffffff" fill-rule="nonzero"/>
    <path id="path478" d="m5228.00498,3957.85l-1.17,0.29c-1.22,0.65 -1.68,2.16 -1.03,3.38c10.3,19.35 32.2,11.86 32.43,11.77c1.3,-0.45 1.98,-1.88 1.52,-3.18c-0.46,-1.31 -1.89,-2 -3.18,-1.53c-0.74,0.24 -18.1,6.06 -26.36,-9.41l-2.21,-1.32" fill="#17282f" fill-rule="nonzero"/>
    <path id="path480" d="m5183.16498,3922.26c0,0 1.32,36.23 -17.49,36.92c-18.81,0.68 -15,-9.94 -13.85,-26.53c1.41,-20.24 17.08,-24.65 17.08,-24.65" fill="#ffffff" fill-rule="nonzero"/>
    <path id="path482" d="m5168.90498,3903l-1.36,0.18c-0.78,0.22 -19.08,5.64 -20.71,29.13c-0.14,2.11 -0.33,4.13 -0.52,6.03c-0.81,8.62 -1.52,16.05 3.26,21.12c3.29,3.49 8.5,5.04 16.28,4.71c7.13,-0.26 16.47,-4.39 20.5,-22.63c2.14,-9.66 1.82,-19.07 1.81,-19.47c-0.1,-2.75 -2.37,-4.81 -5.18,-4.81c-2.76,0.1 -4.92,2.42 -4.82,5.18c0.28,8.1 -1.44,31.33 -12.68,31.74c-6.02,0.26 -8,-0.89 -8.64,-1.59c-1.66,-1.76 -1.13,-7.37 -0.57,-13.3c0.19,-1.99 0.39,-4.09 0.54,-6.29c1.13,-16.27 12.99,-20.05 13.5,-20.2c2.62,-0.8 4.14,-3.57 3.37,-6.2c-0.64,-2.18 -2.62,-3.6 -4.78,-3.6" fill="#17282f" fill-rule="nonzero"/>
    <path id="path484" d="m5653.63498,3696.75l29.53,14.42l35.11,35.11l32.67,-4.9l22.04,-44.09l-6.53,-8.99l-25.31,4.9c0,0 -17.15,-23.68 -21.23,-26.94c-4.09,-3.27 -56.35,-4.9 -56.35,-4.9l-9.93,35.39" fill="#ffffff" fill-rule="nonzero"/>
    <path id="path486" d="m5659.57498,3694.09l7.74,-27.61c22.42,0.8 46.35,2.46 50.02,4.04c1.65,1.4 11.7,14.49 19.76,25.62c1.15,1.57 3.1,2.35 5,1.97l22.19,-4.29l2.87,3.95l-19.53,39.05l-27.6,4.14l-33.33,-33.33l-1.33,-0.95l-25.79,-12.59zm3.99,-37.73c-2.24,0 -4.21,1.48 -4.81,3.65l-9.94,35.39c-0.65,2.33 0.45,4.79 2.62,5.85l28.79,14.05l34.52,34.52c1.12,1.12 2.73,1.61 4.28,1.41l32.66,-4.9c1.61,-0.24 2.99,-1.26 3.73,-2.71l22.05,-44.1c0.83,-1.67 0.67,-3.66 -0.43,-5.17l-6.54,-8.99c-1.13,-1.56 -3.09,-2.36 -4.99,-1.97l-22.19,4.3c-5.42,-7.42 -16.52,-22.33 -20.28,-25.34c-1.33,-1.06 -5.38,-4.31 -59.31,-5.99l-0.16,0" fill="#17282f" fill-rule="nonzero"/>
    <path id="path488" d="m5397.69498,3792.64l94.6,-151.43l161.34,55.54l10.58,-42.32l-174.08,-131.12c-15.82,-11.92 -38.49,-7.54 -48.73,9.42l-57.55,95.25l13.84,164.66" fill="#6ccb94" fill-rule="nonzero"/>
    <path id="path490" d="m5388.96498,3629.18l56.72,-93.87c4.15,-6.87 11.06,-11.69 18.94,-13.21c7.88,-1.53 16.09,0.36 22.5,5.2l171.44,129.13l-8.46,33.82l-156.18,-53.77c-2.2,-0.76 -4.65,0.1 -5.87,2.08l-86.64,138.69l-12.45,-148.07zm81.04,-117.59c-2.43,0 -4.86,0.22 -7.27,0.69c-10.66,2.06 -19.99,8.57 -25.61,17.86l-57.55,95.26c-0.55,0.9 -0.8,1.96 -0.71,3.01l13.85,164.65c0.18,2.15 1.71,3.94 3.81,4.44c2.1,0.54 4.27,-0.38 5.41,-2.2l92.49,-148.07l157.58,54.25c1.34,0.48 2.76,0.34 4.01,-0.33c1.23,-0.67 2.13,-1.82 2.47,-3.19l10.59,-42.32c0.49,-1.95 -0.25,-3.99 -1.85,-5.2l-174.08,-131.13c-6.71,-5.05 -14.85,-7.72 -23.14,-7.72" fill="#17282f" fill-rule="nonzero"/>
    <path id="path492" d="m5781.90498,3673.37c-1.65,0 -3.32,0.41 -4.85,1.27l-103.92,57.88c-4.83,2.69 -6.57,8.78 -3.88,13.61c2.69,4.82 8.8,6.56 13.6,3.86l103.93,-57.88c4.82,-2.69 6.56,-8.78 3.87,-13.61c-1.83,-3.28 -5.24,-5.13 -8.75,-5.13" fill="#6ccb94" fill-rule="nonzero"/>
    <path id="path494" d="m5678.00498,3746.26l-1.37,-0.19c-1.29,-0.36 -2.37,-1.21 -3.02,-2.39c-1.33,-2.39 -0.46,-5.45 1.94,-6.79l103.94,-57.88c2.35,-1.32 5.51,-0.38 6.79,1.92c0.66,1.18 0.82,2.52 0.44,3.8c-0.36,1.29 -1.21,2.36 -2.38,3l-103.91,57.89l-2.43,0.64zm103.9,-77.89c-2.55,0 -5.07,0.66 -7.29,1.9l-103.92,57.88c-7.22,4.03 -9.83,13.17 -5.82,20.4c1.97,3.52 5.17,6.05 9.02,7.14c3.88,1.08 7.92,0.62 11.41,-1.34l103.9,-57.87c3.51,-1.95 6.05,-5.15 7.14,-9.01c1.11,-3.85 0.63,-7.9 -1.32,-11.4c-2.64,-4.75 -7.67,-7.7 -13.12,-7.7" fill="#17282f" fill-rule="nonzero"/>
    <path id="path496" d="m5697.59498,3709.12c0,0 46.04,22.36 52.62,17.1c6.58,-5.26 3.95,-7.89 -2.63,-17.1c-6.58,-9.21 -25,-13.15 -25,-13.15l-15.78,-25l-22.37,7.9" fill="#ffffff" fill-rule="nonzero"/>
    <path id="path498" d="m5706.79498,3665.97l-1.66,0.29l-22.36,7.89c-2.61,0.92 -3.98,3.77 -3.06,6.38c0.93,2.6 3.83,3.94 6.38,3.05l18.6,-6.56l13.67,21.62c0.72,1.13 1.86,1.93 3.17,2.22c4.61,0.99 17.53,4.94 21.97,11.17l1.26,1.75c1.93,2.68 4.11,5.7 4.26,6.74l-0.01,0c-0.06,0 -0.44,0.61 -1.92,1.8c-4.04,0.89 -27.96,-8.3 -47.31,-17.69c-2.47,-1.22 -5.48,-0.18 -6.69,2.31c-1.2,2.48 -0.16,5.47 2.32,6.68c32.42,15.75 51.89,21.32 57.93,16.51c9.85,-7.89 5.07,-14.51 -0.46,-22.19l-1.23,-1.72c-6.31,-8.83 -20.39,-13.22 -25.92,-14.64l-14.71,-23.28c-0.94,-1.48 -2.55,-2.33 -4.23,-2.33" fill="#17282f" fill-rule="nonzero"/>
    <path id="path500" d="m5225.56498,3812.06l4.79,34.22l75.81,11.22l11.73,-19.06l-11.73,-8.79c0,0 -2.93,-38.1 -5.86,-42.5c-2.93,-4.4 -41.03,-16.12 -41.03,-16.12l-24.92,-20.52l-30.77,39.57l21.98,21.98" fill="#ffffff" fill-rule="nonzero"/>
    <path id="path502" d="m5225.56498,3812.06l0.1,0l-0.1,0zm-15.32,-22.4l24.9,-32.02l20.95,17.25l1.7,0.92c16.43,5.05 35.9,12.05 38.69,14.53c1.05,2.54 3.4,22.77 4.71,39.7c0.1,1.43 0.83,2.75 1.98,3.61l8.07,6.05l-7.6,12.36l-68.85,-10.18l-4.28,-30.51c-0.14,-1.07 -0.64,-2.08 -1.41,-2.84l-18.86,-18.87zm24.11,-44.15l-0.55,0.03c-1.34,0.15 -2.56,0.84 -3.39,1.9l-30.78,39.57c-1.55,1.99 -1.37,4.82 0.41,6.61l20.81,20.8l4.56,32.55c0.3,2.2 2.02,3.93 4.21,4.25l75.82,11.22c1.95,0.28 3.94,-0.63 4.99,-2.33l11.71,-19.05c1.36,-2.2 0.81,-5.07 -1.26,-6.62l-9.91,-7.44c-1.39,-17.54 -3.62,-38.28 -6.51,-42.62c-2.57,-3.86 -16.96,-9.86 -42.78,-17.84l-24.15,-19.89c-0.9,-0.74 -2.03,-1.14 -3.18,-1.14" fill="#17282f" fill-rule="nonzero"/>
    <path id="path504" d="m5203.58498,3790.08l-184.66,-209.57c0,0 -4.39,-42.5 11.73,-63.01c16.12,-20.52 60.08,0 64.48,1.46c4.4,1.47 148.09,237.76 148.09,237.76l-39.64,33.36" fill="#6ccb94" fill-rule="nonzero"/>
    <path id="path506" d="m5023.77498,3578.45c-0.56,-7.62 -2.21,-41.29 10.82,-57.86c5.58,-7.13 19.91,-12.55 56.39,2.12l1.36,0.54c9.2,11.5 89.92,142.88 144.38,232.41l-32.62,27.45l-180.33,-204.66zm29.23,-75c-11.75,0 -20.54,3.66 -26.29,10.96c-17.16,21.86 -12.95,64.8 -12.76,66.61c0.11,1.04 0.53,2.02 1.22,2.8l184.66,209.57c1.81,2.03 4.9,2.25 6.97,0.52l39.65,-33.36c1.89,-1.59 2.33,-4.32 1.05,-6.42c-144.65,-237.87 -148.49,-239.15 -150.79,-239.91c-0.37,-0.13 -1.05,-0.4 -2,-0.79c-16.55,-6.65 -30.48,-9.98 -41.71,-9.98" fill="#17282f" fill-rule="nonzero"/>
   </g>
  </g>
 </g>
</svg>