<svg width="500" height="500" xmlns="http://www.w3.org/2000/svg" style="vector-effect: non-scaling-stroke;" stroke="null" version="1.1" xml:space="preserve">
 <metadata style="vector-effect: non-scaling-stroke;" stroke="null" id="metadata8">image/svg+xml</metadata>

 <g stroke="null">
  <title stroke="null">Layer 1</title>
  <g stroke="null" id="g10" transform="matrix(2.74842 0 0 -2.74842 -249.466 1171.5)">
   <g stroke="null" id="g12" transform="translate(-258 223.5) scale(0.1 0.1)">
    <path stroke="null" fill-rule="nonzero" fill="#17282f" d="m4998.5266,1026.97181c2.9,-18.492 12.18,-35.449 25.72,-48.879c19.58,-19.422 31.71,-46.313 31.71,-76.082c0,-63.36 -54.89,-113.899 -119.71,-106.649c-47.28,5.278 -86.39,42.528 -93.66,89.539c-5.76,37.282 7.7,71.59 31.95,94.7c13.21,12.59 21.18,29.461 24,47.371l-274.11,0l0,-280.153c19.74,2.024 38.57,10.274 52.31,24.692c23.11,24.25 57.42,37.699 94.7,31.941c47.01,-7.269 84.26,-46.383 89.54,-93.652c7.25,-64.828 -43.29,-119.719 -106.65,-119.719c-29.77,0 -56.66,12.141 -76.08,31.719c-14.62,14.742 -33.4,24.492 -53.82,26.371l0,-280.281l648.37,0l0,659.082l-274.27,0" id="path162"/>
    <path stroke="null" fill-rule="nonzero" fill="#17282f" d="m4629.4266,372.88981l638.37,0l0,649.082l-263.19,0c3.5,-14.86 11.43,-28.699 23.16,-40.332c21.41,-21.227 33.2,-49.52 33.2,-79.617c0,-31.942 -13.67,-62.461 -37.48,-83.77c-24.15,-21.59 -55.34,-31.492 -87.8,-27.863c-49.26,5.5 -90.49,44.941 -98.03,93.761c-5.76,37.231 6.42,73.352 33.43,99.079c10.62,10.113 17.95,23.421 21.4,38.742l-263.06,0l0,-269.442c17.17,2.871 32.53,10.723 43.68,22.43c25.75,26.992 61.88,39.18 99.09,33.43c48.81,-7.547 88.25,-48.778 93.76,-98.028c3.62,-32.48 -6.28,-63.671 -27.87,-87.812c-21.31,-23.809 -51.84,-37.469 -83.76,-37.469c-30.11,0 -58.38,11.789 -79.62,33.192c-12.86,12.957 -28.75,21.418 -45.28,24.207l0,-269.59zm643.37,-10l-648.37,0c-2.76,0 -5,2.23 -5,5l0,280.281c0,1.41 0.6,2.742 1.63,3.691c1.05,0.957 2.42,1.391 3.83,1.289c20.78,-1.91 41,-11.8 56.91,-27.832c19.35,-19.5 45.1,-30.238 72.53,-30.238c29.08,0 56.89,12.442 76.3,34.141c19.67,22 28.7,50.41 25.38,80.019c-5,44.86 -40.9,82.41 -85.34,89.27c-33.97,5.242 -66.86,-5.852 -90.31,-30.449c-13.98,-14.68 -33.66,-23.981 -55.42,-26.211c-1.4,-0.141 -2.81,0.32 -3.86,1.261c-1.05,0.95 -1.65,2.301 -1.65,3.707l0,280.153c0,2.758 2.24,5 5,5l274.1,0c1.47,0 2.86,-0.641 3.8,-1.75c0.95,-1.11 1.37,-2.59 1.15,-4.02c-3.14,-19.949 -11.95,-37.32 -25.49,-50.222c-24.6,-23.438 -35.71,-56.36 -30.45,-90.309c6.86,-44.43 44.41,-80.328 89.27,-85.34c29.6,-3.308 58.02,5.699 80.02,25.371c21.69,19.41 34.14,47.219 34.14,76.321c0,27.418 -10.75,53.179 -30.25,72.527c-14.74,14.621 -24.13,32.492 -27.13,51.652c-0.22,1.438 0.2,2.91 1.15,4.02c0.94,1.109 2.33,1.75 3.79,1.75l274.27,0c2.77,0 5,-2.242 5,-5l0,-659.082c0,-2.77 -2.23,-5 -5,-5" id="path164"/>
    <path stroke="null" fill-rule="nonzero" fill="#6ccb94" d="m5272.7966,1686.05081l-648.37,0l0,-280.15c19.74,2.02 38.56,10.26 52.31,24.69c23.11,24.25 57.42,37.7 94.69,31.94c47.02,-7.26 84.27,-46.37 89.55,-93.65c7.25,-64.82 -43.29,-119.72 -106.65,-119.72c-29.77,0 -56.66,12.14 -76.08,31.72c-14.62,14.74 -33.4,24.49 -53.82,26.37l0,-280.279l274.11,0c-2.82,-17.91 -10.79,-34.781 -24,-47.371c-24.25,-23.11 -37.71,-57.418 -31.95,-94.7c7.27,-47.011 46.38,-84.261 93.66,-89.539c64.82,-7.25 119.71,43.289 119.71,106.649c0,29.769 -12.13,56.66 -31.71,76.082c-13.54,13.43 -22.82,30.387 -25.72,48.879l274.27,0l0,659.079" id="path166"/>
    <path stroke="null" fill-rule="nonzero" fill="#17282f" d="m4629.4266,1031.97181l269.1,0c1.47,0 2.86,-0.641 3.8,-1.75c0.95,-1.11 1.37,-2.59 1.15,-4.02c-3.14,-19.949 -11.95,-37.32 -25.49,-50.222c-24.6,-23.438 -35.71,-56.36 -30.45,-90.309c6.86,-44.43 44.41,-80.328 89.27,-85.34c29.6,-3.308 58.02,5.699 80.02,25.371c21.69,19.41 34.14,47.219 34.14,76.321c0,27.418 -10.75,53.179 -30.25,72.527c-14.74,14.621 -24.13,32.492 -27.13,51.652c-0.22,1.438 0.2,2.91 1.15,4.02c0.94,1.109 2.33,1.75 3.79,1.75l269.27,0l0,649.079l-638.37,0l0,-269.43c17.17,2.86 32.53,10.71 43.68,22.42c25.75,26.99 61.88,39.19 99.09,33.44c48.81,-7.55 88.25,-48.78 93.76,-98.04c3.63,-32.47 -6.27,-63.65 -27.87,-87.79c-21.3,-23.82 -51.83,-37.49 -83.76,-37.49c-30.11,0 -58.38,11.79 -79.62,33.19c-12.86,12.96 -28.75,21.42 -45.28,24.21l0,-269.589zm319.37,-242.321c-4.34,0 -8.71,0.25 -13.11,0.739c-49.26,5.5 -90.49,44.941 -98.03,93.761c-5.76,37.231 6.42,73.352 33.43,99.079c10.62,10.113 17.95,23.421 21.4,38.742l-268.06,0c-2.76,0 -5,2.23 -5,5l0,280.279c0,1.41 0.6,2.75 1.63,3.69c1.05,0.96 2.42,1.36 3.83,1.29c20.78,-1.91 41,-11.8 56.91,-27.83c19.35,-19.5 45.1,-30.24 72.53,-30.24c29.09,0 56.9,12.45 76.31,34.15c19.67,22 28.69,50.42 25.37,80.02c-5,44.85 -40.9,82.4 -85.34,89.26c-33.91,5.22 -66.86,-5.85 -90.31,-30.45c-13.98,-14.67 -33.66,-23.98 -55.42,-26.21c-1.4,-0.16 -2.81,0.32 -3.86,1.26c-1.05,0.95 -1.65,2.3 -1.65,3.71l0,280.15c0,2.76 2.24,5 5,5l648.37,0c2.77,0 5,-2.24 5,-5l0,-659.079c0,-2.77 -2.23,-5 -5,-5l-268.19,0c3.5,-14.86 11.43,-28.699 23.16,-40.332c21.41,-21.227 33.2,-49.52 33.2,-79.617c0,-31.942 -13.67,-62.461 -37.48,-83.77c-20.87,-18.672 -47.01,-28.602 -74.69,-28.602" id="path168"/>
    <path stroke="null" fill-rule="nonzero" fill="#a7aaa8" d="m4860.9766,709.79981c-5.28,47.269 -42.53,86.383 -89.54,93.652c-37.28,5.758 -71.59,-7.691 -94.7,-31.941c-13.74,-14.418 -32.57,-22.668 -52.31,-24.692l0,280.153l-274.26,0c2.89,-18.492 12.17,-35.449 25.72,-48.879c19.57,-19.422 31.71,-46.313 31.71,-76.082c0,-63.36 -54.89,-113.899 -119.71,-106.649c-47.28,5.278 -86.39,42.528 -93.66,89.539c-5.76,37.282 7.69,71.59 31.95,94.7c13.21,12.59 21.18,29.461 23.99,47.371l-274.1,0l0,-659.082l648.36,0l0,280.281c20.42,-1.879 39.2,-11.629 53.82,-26.371c19.42,-19.578 46.31,-31.719 76.08,-31.719c63.36,0 113.9,54.891 106.65,119.719" id="path170"/>
    <path stroke="null" fill-rule="nonzero" fill="#17282f" d="m3981.0666,372.88981l638.36,0l0,275.281c0,1.41 0.6,2.742 1.63,3.691c1.05,0.957 2.42,1.391 3.83,1.289c20.78,-1.91 41,-11.8 56.91,-27.832c19.35,-19.5 45.1,-30.238 72.53,-30.238c29.08,0 56.89,12.442 76.3,34.141c19.67,22 28.7,50.41 25.38,80.019c-5,44.86 -40.9,82.41 -85.34,89.27c-33.97,5.242 -66.86,-5.852 -90.31,-30.449c-13.98,-14.68 -33.66,-23.981 -55.42,-26.211c-1.4,-0.141 -2.81,0.32 -3.86,1.261c-1.05,0.95 -1.65,2.301 -1.65,3.707l0,275.153l-263.19,0c3.52,-14.86 11.44,-28.699 23.17,-40.332c21.4,-21.227 33.19,-49.508 33.19,-79.617c0,-31.942 -13.67,-62.473 -37.48,-83.77c-24.14,-21.602 -55.35,-31.5 -87.79,-27.863c-49.26,5.5 -90.49,44.929 -98.04,93.761c-5.76,37.219 6.43,73.34 33.43,99.079c10.63,10.113 17.96,23.433 21.41,38.742l-263.06,0l0,-649.082zm643.36,-10l-648.36,0c-2.76,0 -5,2.23 -5,5l0,659.082c0,2.758 2.24,5 5,5l274.11,0c1.46,0 2.85,-0.641 3.79,-1.75c0.95,-1.11 1.37,-2.59 1.15,-4.02c-3.14,-19.949 -11.96,-37.312 -25.5,-50.222c-24.6,-23.45 -35.69,-56.368 -30.45,-90.309c6.86,-44.43 44.41,-80.328 89.28,-85.34c29.6,-3.308 58.01,5.699 80.01,25.371c21.7,19.399 34.14,47.219 34.14,76.321c0,27.429 -10.74,53.179 -30.24,72.527c-14.74,14.621 -24.13,32.492 -27.14,51.652c-0.22,1.43 0.2,2.91 1.15,4.02c0.94,1.109 2.33,1.75 3.8,1.75l274.26,0c2.77,0 5,-2.242 5,-5l0,-274.442c17.17,2.871 32.53,10.723 43.68,22.43c25.75,26.992 61.88,39.18 99.09,33.43c48.81,-7.547 88.25,-48.778 93.76,-98.028c3.62,-32.48 -6.28,-63.671 -27.87,-87.812c-21.31,-23.809 -51.84,-37.469 -83.76,-37.469c-30.11,0 -58.38,11.789 -79.62,33.192c-12.86,12.957 -28.75,21.418 -45.28,24.207l0,-274.59c0,-2.77 -2.23,-5 -5,-5" id="path172"/>
    <path stroke="null" fill-rule="nonzero" fill="#17282f" d="m3874.5766,1254.26081l-290.89,0l-15.75,-791.84l70.53,0l90.67,601.93l90.67,-601.93l70.52,0l-15.75,791.84" id="path174"/>
    <path stroke="null" fill-rule="nonzero" fill="#17282f" d="m3824.1066,467.42081l61.12,0l-15.55,781.83l-281.09,0l-15.55,-781.83l61.12,0l90.04,597.672c0.36,2.449 2.47,4.258 4.94,4.258c2.47,0 4.58,-1.809 4.94,-4.258l90.03,-597.672zm66.22,-10l-70.53,0c-2.47,0 -4.58,1.801 -4.94,4.25l-85.72,569.121l-85.73,-569.121c-0.36,-2.449 -2.47,-4.25 -4.94,-4.25l-70.53,0c-1.35,0 -2.63,0.531 -3.58,1.5c-0.93,0.961 -1.45,2.262 -1.42,3.59l15.75,791.84c0.06,2.73 2.28,4.9 5,4.9l290.89,0c2.72,0 4.94,-2.17 5,-4.9l15.75,-791.84c0.03,-1.328 -0.49,-2.629 -1.42,-3.59c-0.95,-0.969 -2.23,-1.5 -3.58,-1.5" id="path176"/>
    <path stroke="null" fill-rule="nonzero" fill="#6ccb94" d="m3910.4766,1631.46081l78.52,-126.91l144.14,68.94l33.43,-22.98l-215.17,-194.27l-52.22,77.29l11.3,197.93" id="path178"/>
    <path stroke="null" fill-rule="nonzero" fill="#17282f" d="m3904.2666,1434.93081l48.05,-71.13l206.2,186.18l-25.83,17.75l-141.53,-67.69c-2.29,-1.08 -5.06,-0.3 -6.4,1.89l-70.19,113.42l-10.3,-180.42zm47.14,-83.69l-0.61,0.03c-1.44,0.18 -2.72,0.96 -3.54,2.16l-52.22,77.3c-0.62,0.91 -0.92,1.99 -0.85,3.08l11.3,197.93c0.12,2.18 1.64,4.03 3.76,4.56c2.09,0.57 4.33,-0.34 5.48,-2.21l76.17,-123.09l140.09,67c1.62,0.75 3.52,0.63 4.99,-0.39l33.42,-22.98c1.26,-0.87 2.06,-2.26 2.16,-3.79c0.1,-1.53 -0.51,-3.01 -1.64,-4.04l-215.16,-194.28c-0.92,-0.83 -2.12,-1.28 -3.35,-1.28" id="path180"/>
    <path stroke="null" fill-rule="nonzero" fill="#6ccb94" d="m3780.9966,1682.74081l-51.56,-10.88l-51.55,10.88l-129.48,-51.28l35.28,-377.2l291.5,0l35.29,377.2l-129.48,51.28" id="path182"/>
    <path stroke="null" fill-rule="nonzero" fill="#17282f" d="m3588.2366,1259.25081l282.4,0l34.51,368.94l-124.59,49.34l-50.08,-10.56l-2.07,0l-50.08,10.56l-124.59,-49.34l34.5,-368.94zm286.95,-10l-291.5,0c-2.58,0 -4.74,1.97 -4.98,4.53l-35.28,377.21c-0.21,2.22 1.07,4.3 3.13,5.12l129.48,51.28c0.93,0.36 1.92,0.44 2.88,0.24l50.52,-10.66l50.52,10.66c0.97,0.2 1.95,0.12 2.88,-0.24l129.48,-51.28c2.06,-0.82 3.34,-2.9 3.14,-5.12l-35.29,-377.21c-0.24,-2.56 -2.4,-4.53 -4.98,-4.53" id="path184"/>
    <path stroke="null" fill-rule="nonzero" fill="#17282f" d="m3697.3066,1604.39081l21.04,-52.05l-16.61,-224.62l26.58,-48.73l31.01,50.95l-25.47,220.18l22.15,45.41l-28.9,42.14l-29.8,-33.28" id="path186"/>
    <path stroke="null" fill-rule="nonzero" fill="#17282f" d="m3706.8266,1328.82081l21.72,-39.82l25.62,42.07l-25.28,218.48c-0.11,0.94 0.05,1.91 0.47,2.76l20.87,42.79l-23.65,34.49l-23.48,-26.21l19.89,-49.17l0.35,-2.24l-16.51,-223.15zm21.49,-54.83l-0.12,0c-1.79,0.04 -3.42,1.03 -4.27,2.61l-26.58,48.73c-0.47,0.84 -0.67,1.8 -0.6,2.76l16.53,223.46l-20.62,50.97c-0.71,1.77 -0.36,3.79 0.92,5.22l29.81,33.27c1.02,1.13 2.56,1.77 4.04,1.65c1.53,-0.1 2.93,-0.9 3.8,-2.16l28.9,-42.14c1.02,-1.48 1.16,-3.4 0.37,-5.02l-21.51,-44.1l25.32,-218.73c0.12,-1.1 -0.12,-2.22 -0.71,-3.17l-31.01,-50.95c-0.91,-1.49 -2.53,-2.4 -4.27,-2.4" id="path188"/>
    <path stroke="null" fill-rule="nonzero" fill="#ffffff" d="m3779.5966,1682.74081l-51.64,-65.27l-48.4,65.27l0,58.8l100.04,0l0,-58.8" id="path190"/>
    <path stroke="null" fill-rule="nonzero" fill="#17282f" d="m3779.5966,1682.74081l0.1,0l-0.1,0zm-95.04,1.65l43.52,-58.69l46.52,58.78l0,52.06l-90.04,0l0,-52.15zm43.4,-71.91l-0.08,0c-1.55,0.02 -3.01,0.77 -3.94,2.02l-48.39,65.26c-0.65,0.86 -0.99,1.9 -0.99,2.98l0,58.8c0,2.76 2.24,5 5,5l100.04,0c2.76,0 5,-2.24 5,-5l0,-58.8c0,-1.12 -0.38,-2.22 -1.08,-3.11l-51.64,-65.26c-0.95,-1.2 -2.4,-1.89 -3.92,-1.89" id="path192"/>
    <path stroke="null" fill-rule="nonzero" fill="#6ccb94" d="m3674.0466,1691.90081l-13.76,-16.93l15.54,-96.35l52.13,38.85l56.65,-37.3l9.32,94.8l-13.55,13.6l-53.27,-50.9l-53.06,54.23" id="path194"/>
    <path stroke="null" fill-rule="nonzero" fill="#17282f" d="m3665.5766,1673.55081l13.87,-86l45.52,33.94c1.7,1.24 3.97,1.32 5.74,0.17l49.73,-32.76l8.29,84.21l-8.44,8.46l-49.72,-47.51c-1.99,-1.91 -5.12,-1.86 -7.04,0.11l-49.14,50.23l-8.81,-10.85zm10.25,-99.93l-1.88,0.37c-1.62,0.65 -2.78,2.11 -3.05,3.83l-15.54,96.34c-0.23,1.42 0.16,2.86 1.05,3.96l13.76,16.93c0.9,1.11 2.23,1.78 3.65,1.84c1.49,0.17 2.81,-0.47 3.81,-1.49l49.6,-50.7l49.69,47.48c1.97,1.89 5.08,1.86 7,-0.09l13.56,-13.6c1.05,-1.05 1.58,-2.53 1.43,-4.01l-9.32,-94.8c-0.18,-1.75 -1.25,-3.27 -2.83,-4.02c-1.59,-0.75 -3.45,-0.63 -4.91,0.33l-53.72,35.38l-49.31,-36.76c-0.88,-0.65 -1.93,-0.99 -2.99,-0.99" id="path196"/>
    <path stroke="null" fill-rule="nonzero" fill="#ffffff" d="m3567.9366,462.42081c0,0 -29.9,-92.391 -25.46,-93.871c4.44,-1.481 100.66,0 100.66,0l-4.67,93.871l-70.53,0" id="path198"/>
    <path stroke="null" fill-rule="nonzero" fill="#17282f" d="m3547.3166,373.07281c13.03,-0.461 58.7,-0.062 90.57,0.399l-4.18,83.949l-62.13,0c-11.23,-34.91 -22.29,-72.551 -24.26,-84.348zm-0.29,-3.093l0.1,0l-0.1,0zm26.72,-7.098c-17.81,0 -30.81,0.238 -32.85,0.918c-5.31,1.773 -9.15,3.043 22.28,100.16c0.67,2.063 2.59,3.461 4.76,3.461l70.53,0c2.66,0 4.86,-2.09 4.99,-4.762l4.67,-93.867c0.07,-1.34 -0.41,-2.672 -1.33,-3.66c-0.93,-0.981 -2.22,-1.563 -3.58,-1.582c-23.43,-0.359 -49.48,-0.668 -69.47,-0.668" id="path200"/>
    <path stroke="null" fill-rule="nonzero" fill="#ffffff" d="m3891.5366,462.42081c0,0 29.91,-92.391 25.47,-93.871c-4.45,-1.481 -100.67,0 -100.67,0l4.68,93.871l70.52,0" id="path202"/>
    <path stroke="null" fill-rule="nonzero" fill="#17282f" d="m3821.5966,373.47181c31.64,-0.449 76.92,-0.84 90.55,-0.332c-1.99,11.863 -13.04,49.422 -24.25,84.281l-62.12,0l-4.18,-83.949zm64.19,-10.59c-20,0 -46.07,0.309 -69.52,0.668c-1.36,0.019 -2.65,0.601 -3.58,1.582c-0.92,0.988 -1.4,2.32 -1.33,3.66l4.67,93.867c0.13,2.672 2.33,4.762 4.99,4.762l70.52,0c2.17,0 4.09,-1.398 4.76,-3.461c31.43,-97.117 27.59,-98.387 22.27,-100.16c-2.03,-0.68 -15.01,-0.918 -32.78,-0.918" id="path204"/>
    <path stroke="null" fill-rule="nonzero" fill="#17282f" d="m3834.9866,1859.15081c0,0 24.49,-13 26.62,-28.85c2.13,-15.85 -28.22,-47.76 -28.22,-47.76l1.15,57.03l0.45,19.58" id="path206"/>
    <path stroke="null" fill-rule="nonzero" fill="#17282f" d="m3839.7766,1850.28081l-1.11,-54.13c9.48,11.66 18.98,26.09 17.99,33.48c-1.06,7.83 -9.76,15.64 -16.88,20.65zm-6.38,-72.74l-1.91,0.37c-1.9,0.8 -3.13,2.67 -3.09,4.73l1.59,76.62c0.04,1.73 0.98,3.32 2.47,4.2c1.49,0.87 3.33,0.92 4.87,0.1c2.74,-1.45 26.82,-14.71 29.23,-32.6c2.38,-17.71 -26.27,-48.42 -29.54,-51.86c-0.97,-1.02 -2.28,-1.56 -3.62,-1.56" id="path208"/>
    <path stroke="null" fill-rule="nonzero" fill="#ffffff" d="m3809.5566,1881.58081c10.52,-4.71 19.48,-11.88 25.43,-22.43c15.12,-26.82 2.71,-56.22 -4.11,-84.54c-3.86,-16.05 -24.32,-103.25 -39.6,-109.05c-15.27,-5.81 -34.99,-2.53 -53.36,8.88c-18.37,11.4 -49.31,40.39 -55.89,51.02c-6.57,10.62 -0.8,45.37 -0.79,45.43c0.73,4.37 -4.18,13.69 -5.03,18.19c-1.88,10.01 -3.19,20.68 -2.35,30.85c2.89,34.54 27.05,61.2 61.06,66.82c23.33,3.85 52.66,4.67 74.64,-5.17" id="path210"/>
    <path stroke="null" fill-rule="nonzero" fill="#17282f" d="m3766.3766,1884.44081c-11.91,0 -22.88,-1.35 -30.64,-2.63c-31.84,-5.26 -54.18,-29.72 -56.89,-62.3c-0.69,-8.2 0.04,-17.57 2.27,-29.51c0.29,-1.47 1.09,-3.51 1.92,-5.71c1.87,-5 3.81,-10.16 3.13,-14.23c-2.62,-16.03 -3.47,-36.2 0.11,-41.98c6.24,-10.07 36.43,-38.32 54.28,-49.39c16.92,-10.52 35.24,-13.68 48.95,-8.45c2.06,0.78 13.46,9.45 36.09,103.81l0.42,1.74c1.15,4.72 2.44,9.48 3.73,14.25c6.43,23.69 12.5,46.05 0.88,66.64c-4.99,8.86 -12.76,15.7 -23.11,20.34c-12.63,5.65 -27.49,7.42 -41.14,7.42zm8.7,-226.73c-12.74,0 -26.54,4.25 -39.8,12.48c-19.16,11.89 -50.62,41.51 -57.5,52.64c-7.12,11.49 -2.48,42.71 -1.48,48.84c0.21,1.55 -1.63,6.46 -2.63,9.11c-1.06,2.82 -2.02,5.47 -2.37,7.37c-2.41,12.85 -3.18,23.08 -2.41,32.2c3.05,36.73 29.26,65.39 65.22,71.32c17.76,2.93 51.46,6.15 77.49,-5.53c12.35,-5.53 21.69,-13.78 27.74,-24.54c13.64,-24.16 6.73,-49.59 0.06,-74.18c-1.27,-4.68 -2.54,-9.34 -3.65,-13.98l-0.42,-1.73c-25.02,-104.26 -37.55,-109.03 -42.26,-110.83c-5.6,-2.13 -11.66,-3.17 -17.99,-3.17" id="path212"/>
    <path stroke="null" fill-rule="nonzero" fill="#17282f" d="m3816.9266,1884.23081c0,0 25.52,-11.4 25.14,-28.03c-0.38,-16.62 -21.84,-30.94 -67.27,-31.72c-45.43,-0.79 -52.2,1.53 -52.2,1.53c0,0 14.5,-13.15 7.74,-17.98c-6.77,-4.84 -16.24,-11.61 -16.24,-11.61l-1.34,-22.42c0,0 -12.57,-11.03 -13.34,-1.36c-0.78,9.66 -3.49,22.04 -6.78,23.78c-3.29,1.74 -16.43,-7.34 -16.43,-7.34c0,0 -1.55,28.21 4.82,52.19c6.37,23.97 17.13,33.31 53.89,45.48c36.76,12.16 82.01,-2.52 82.01,-2.52" id="path214"/>
    <path stroke="null" fill-rule="nonzero" fill="#17282f" d="m3691.7466,1801.66081c1.7,0 2.64,-0.5 3.23,-0.82c6.54,-3.46 8.7,-19.96 9.32,-26.61c1.04,0.52 2.35,1.35 3.59,2.27l1.22,20.22c0.09,1.51 0.86,2.89 2.08,3.77l16.24,11.6c-0.2,1.2 -4.04,6.43 -8.19,10.21c-1.76,1.59 -2.15,4.2 -0.95,6.24c1.22,2.05 3.68,2.96 5.93,2.19c0.11,-0.01 8.16,-1.98 50.5,-1.25c45.58,0.78 62.08,14.95 62.35,26.84c0.24,10.72 -15.5,20.28 -21.92,23.24c-3.63,1.1 -45.3,13.48 -78.66,2.44c-37.01,-12.25 -45.1,-21.23 -50.63,-42.02c-4,-15.01 -4.76,-32 -4.81,-41.99c5.27,2.88 8.58,3.67 10.7,3.67zm10.91,-37.97c-1.05,0 -2.09,0.17 -3.09,0.57c-1.73,0.71 -4.71,2.68 -5.14,7.98c-0.69,8.6 -2.62,16.17 -4.01,19.09c-2.49,-0.9 -7.32,-3.57 -11.37,-6.36c-1.48,-1.04 -3.43,-1.19 -5.04,-0.39c-1.63,0.81 -2.69,2.42 -2.79,4.22c-0.07,1.19 -1.52,29.29 4.97,53.74c6.88,25.86 19.16,36.38 57.16,48.95c37.88,12.56 83.21,-1.89 85.13,-2.5l0.49,-0.2c1.17,-0.51 28.55,-12.98 28.1,-32.7c-0.39,-17.1 -19.56,-35.7 -72.18,-36.61c-19.85,-0.36 -32.49,-0.11 -40.51,0.3c1.7,-2.82 2.91,-5.91 2.74,-8.85c-0.16,-2.82 -1.54,-5.3 -3.87,-6.97l-14.31,-10.21l-1.2,-20.05c-0.08,-1.33 -0.69,-2.58 -1.69,-3.46c-2.47,-2.17 -8.12,-6.55 -13.39,-6.55" id="path216"/>
    <path stroke="null" fill-rule="nonzero" fill="#ffffff" d="m3783.1466,1724.14081l15.46,-0.19l-3.88,41.18l6.76,19.14" id="path218"/>
    <path stroke="null" fill-rule="nonzero" fill="#17282f" d="m3798.6066,1721.45081l-0.03,0l-15.47,0.19c-1.37,0.02 -2.49,1.15 -2.47,2.52c0.02,1.37 1.14,2.48 2.5,2.48l0.03,0l12.69,-0.16l-3.61,38.42l0.13,1.06l6.76,19.14c0.45,1.3 1.88,2 3.18,1.53c1.31,-0.46 1.99,-1.89 1.53,-3.19l-6.58,-18.62l3.83,-40.64l-0.65,-1.92l-1.84,-0.81" id="path220"/>
    <path stroke="null" fill-rule="nonzero" fill="#17282f" d="m3807.3866,1769.58081c-0.9,-5.45 0.44,-10.21 3,-10.63c2.57,-0.43 5.38,3.64 6.29,9.08c0.9,5.45 -0.44,10.21 -3,10.64c-2.57,0.42 -5.38,-3.65 -6.29,-9.09" id="path222"/>
    <path stroke="null" fill-rule="nonzero" fill="#17282f" d="m3765.9166,1771.11081c-0.9,-5.44 0.44,-10.2 3,-10.63c2.57,-0.43 5.38,3.64 6.28,9.09c0.91,5.44 -0.43,10.2 -3,10.63c-2.56,0.43 -5.37,-3.64 -6.28,-9.09" id="path224"/>
    <path stroke="null" fill-rule="nonzero" fill="#ffffff" d="m3790.4966,1710.99081c0,0 -16.63,-13.92 -39.06,8.88" id="path226"/>
    <path stroke="null" fill-rule="nonzero" fill="#17282f" d="m3777.1466,1704.35081c-7.35,0 -16.9,3 -27.5,13.77c-0.97,0.99 -0.95,2.57 0.03,3.54c0.98,0.96 2.56,0.95 3.54,-0.02c20.41,-20.77 35.06,-9.21 35.69,-8.73c1.05,0.88 2.62,0.73 3.51,-0.33c0.87,-1.06 0.73,-2.62 -0.32,-3.5c-0.1,-0.09 -5.82,-4.73 -14.95,-4.73" id="path228"/>
    <path stroke="null" fill-rule="nonzero" fill="#ffffff" d="m3823.5266,1787.76081c0,0 -4.25,10.24 -16.05,3.86" id="path230"/>
    <path stroke="null" fill-rule="nonzero" fill="#17282f" d="m3823.5266,1785.26081c-0.97,0 -1.9,0.57 -2.3,1.52c-0.06,0.14 -1.4,3.06 -4.33,4.06c-2.25,0.8 -5.02,0.31 -8.23,-1.42c-1.22,-0.67 -2.73,-0.2 -3.39,1c-0.65,1.22 -0.2,2.74 1.01,3.39c4.52,2.44 8.69,3.02 12.32,1.73c5.09,-1.79 7.15,-6.62 7.23,-6.82c0.54,-1.27 -0.07,-2.74 -1.35,-3.27l-0.96,-0.19" id="path232"/>
    <path stroke="null" fill-rule="nonzero" fill="#ffffff" d="m3785.0566,1792.96081c0,0 -18.57,10.25 -30.74,-5.61" id="path234"/>
    <path stroke="null" fill-rule="nonzero" fill="#17282f" d="m3754.3166,1784.85081l-1.53,0.52c-1.09,0.84 -1.3,2.41 -0.46,3.5c13.34,17.37 33.73,6.4 33.94,6.28c1.2,-0.66 1.64,-2.18 0.98,-3.39c-0.66,-1.2 -2.17,-1.69 -3.39,-0.98c-0.69,0.36 -16.87,8.98 -27.56,-4.95l-1.98,-0.98" id="path236"/>
    <path stroke="null" fill-rule="nonzero" fill="#ffffff" d="m3703.8366,1757.13081c0,0 7.25,35.53 -11.2,39.29c-18.44,3.76 -16.43,-7.34 -18.01,-23.89c-1.94,-20.2 12.8,-27.13 12.8,-27.13" id="path238"/>
    <path stroke="null" fill-rule="nonzero" fill="#17282f" d="m3687.4066,1740.41081l-2.11,0.47c-0.73,0.35 -17.89,8.69 -15.65,32.12c0.2,2.1 0.34,4.12 0.48,6.03c0.6,8.64 1.13,16.1 6.67,20.31c3.83,2.92 9.2,3.53 16.84,1.98c18.43,-3.77 18.16,-30.17 15.1,-45.18c-0.56,-2.72 -3.17,-4.45 -5.9,-3.91c-2.7,0.56 -4.45,3.19 -3.91,5.9c1.62,7.95 3.73,31.14 -7.29,33.39c-5.88,1.21 -8.04,0.42 -8.79,-0.15c-1.93,-1.46 -2.32,-7.09 -2.74,-13.04c-0.15,-1.99 -0.3,-4.09 -0.5,-6.28c-1.56,-16.24 9.52,-21.91 9.99,-22.14c2.46,-1.21 3.5,-4.19 2.31,-6.66c-0.86,-1.79 -2.63,-2.84 -4.5,-2.84" id="path240"/>
    <path stroke="null" fill-rule="nonzero" fill="#ffffff" d="m4752.7466,1482.58081c-5.28,47.28 -42.54,86.39 -89.55,93.66c-37.27,5.76 -71.58,-7.7 -94.7,-31.95c-13.74,-14.42 -32.56,-22.67 -52.3,-24.68l0,280.14l-273.96,0c3.22,-17.77 12.32,-34.04 25.41,-47.03c19.58,-19.42 31.72,-46.31 31.72,-76.07c0,-63.36 -54.89,-113.9 -119.72,-106.66c-47.27,5.28 -86.39,42.53 -93.65,89.55c-5.77,37.27 7.69,71.59 31.94,94.7c12.76,12.15 20.68,28.29 23.74,45.51l-273.84,0l0,-659.08l274.1,0c-2.81,-17.91 -10.79,-34.77 -24,-47.36c-24.25,-23.12 -37.71,-57.429 -31.94,-94.699c7.26,-47.019 46.38,-84.269 93.65,-89.55c64.83,-7.243 119.72,43.3 119.72,106.66c0,29.758 -12.14,56.648 -31.72,76.069c-13.54,13.44 -22.82,30.39 -25.71,48.88l274.26,0l0,280.28c20.42,-1.87 39.19,-11.63 53.82,-26.37c19.42,-19.58 46.31,-31.72 76.07,-31.72c63.37,0 113.9,54.9 106.66,119.72" id="path242"/>
    <path stroke="null" fill-rule="nonzero" fill="#17282f" d="m3872.8366,1145.68081l269.1,0c1.47,0 2.85,-0.64 3.8,-1.75c0.95,-1.11 1.37,-2.59 1.14,-4.02c-3.13,-19.95 -11.94,-37.32 -25.49,-50.23c-24.6,-23.44 -35.7,-56.362 -30.45,-90.311c6.86,-44.429 44.41,-80.328 89.27,-85.34c29.55,-3.308 58.02,5.7 80.01,25.383c21.7,19.41 34.14,47.227 34.14,76.309c0,27.429 -10.73,53.179 -30.23,72.531c-14.75,14.628 -24.13,32.488 -27.14,51.658c-0.22,1.44 0.2,2.91 1.14,4.02c0.95,1.11 2.34,1.75 3.8,1.75l269.27,0l0,275.27c0,1.41 0.6,2.75 1.63,3.69c1.05,0.96 2.41,1.39 3.83,1.29c20.78,-1.91 40.99,-11.78 56.9,-27.82c19.34,-19.5 45.1,-30.24 72.53,-30.24c29.09,0 56.91,12.44 76.32,34.14c19.67,22 28.68,50.42 25.37,80.02c-5.01,44.85 -40.91,82.4 -85.34,89.26c-33.91,5.2 -66.86,-5.85 -90.31,-30.45c-13.99,-14.67 -33.66,-23.98 -55.42,-26.21c-1.4,-0.17 -2.81,0.33 -3.86,1.26c-1.05,0.95 -1.65,2.3 -1.65,3.71l0,275.15l-262.72,0c3.72,-14.17 11.49,-27.36 22.69,-38.47c21.41,-21.24 33.19,-49.52 33.19,-79.63c0,-31.94 -13.66,-62.47 -37.47,-83.76c-24.15,-21.61 -55.26,-31.47 -87.79,-27.87c-49.27,5.5 -90.5,44.93 -98.05,93.75c-5.75,37.24 6.44,73.35 33.44,99.09c10.2,9.71 17.39,22.37 21.02,36.89l-262.67,0l0,-649.07zm319.36,-242.33c-4.34,0 -8.7,0.25 -13.1,0.742c-49.27,5.5 -90.5,44.93 -98.05,93.758c-5.75,37.222 6.44,73.34 33.44,99.08c10.63,10.12 17.96,23.43 21.41,38.75l-268.06,0c-2.76,0 -5,2.23 -5,5l0,659.07c0,2.76 2.24,5 5,5l273.84,0c1.47,0 2.88,-0.65 3.83,-1.79c0.95,-1.13 1.35,-2.62 1.09,-4.08c-3.39,-19.09 -12.11,-35.78 -25.21,-48.27c-24.6,-23.44 -35.7,-56.36 -30.45,-90.31c6.86,-44.45 44.41,-80.33 89.27,-85.33c29.61,-3.31 58.02,5.7 80.01,25.37c21.7,19.4 34.14,47.21 34.14,76.31c0,27.43 -10.73,53.19 -30.23,72.53c-14.2,14.08 -23.48,31.25 -26.81,49.68c-0.26,1.46 0.14,2.96 1.09,4.09c0.94,1.15 2.35,1.8 3.84,1.8l273.95,0c2.76,0 5,-2.24 5,-5l0,-274.43c17.17,2.86 32.53,10.71 43.68,22.42c25.74,27 61.87,39.19 99.08,33.44c48.82,-7.55 88.26,-48.78 93.76,-98.04c3.63,-32.47 -6.27,-63.65 -27.86,-87.79c-21.31,-23.82 -51.83,-37.48 -83.77,-37.48c-30.11,0 -58.4,11.78 -79.63,33.2c-12.85,12.94 -28.75,21.41 -45.26,24.19l0,-274.58c0,-2.77 -2.24,-5 -5,-5l-268.19,0c3.51,-14.86 11.44,-28.71 23.17,-40.34c21.4,-21.229 33.18,-49.51 33.18,-79.619c0,-31.93 -13.66,-62.461 -37.47,-83.762c-20.88,-18.668 -47.01,-28.609 -74.69,-28.609" id="path244"/>
    <path stroke="null" fill-rule="nonzero" fill="#6ccb94" d="m3548.4066,1631.46081c0,0 -19.99,-117.81 -19.99,-128.04c0,-10.22 59.94,-208.09 59.94,-208.09l234.02,-136.05l18.4,49.07l-179.78,174.15l-32.39,172.04" id="path246"/>
    <path stroke="null" fill-rule="nonzero" fill="#17282f" d="m3822.3666,1154.27081l-2.51,0.68l-234.01,136.05c-1.1,0.64 -1.91,1.67 -2.28,2.88c-10.05,33.16 -60.15,199.1 -60.15,209.54c0,10.35 18,116.77 20.06,128.88c0.47,2.71 3.11,4.51 5.77,4.09c2.71,-0.47 4.55,-3.05 4.09,-5.77c-8.01,-47.19 -19.92,-120 -19.92,-127.2c0.52,-8.61 35.44,-126.44 59.16,-204.76l227.18,-132.09l15.19,40.48l-177.42,171.86c-0.74,0.72 -1.25,1.65 -1.44,2.67l-32.39,172.04c-0.51,2.71 1.27,5.33 3.98,5.84c2.65,0.49 5.34,-1.26 5.84,-3.99l32.1,-170.47l178.64,-173.05c1.43,-1.39 1.9,-3.49 1.2,-5.35l-18.41,-49.09c-0.52,-1.37 -1.61,-2.46 -3,-2.94l-1.68,-0.3" id="path248"/>
    <path stroke="null" fill-rule="nonzero" fill="#ffffff" d="m3840.7766,1208.35081l29.67,-7.13l36,-16.5l-3,-13.51l-24,3.01l36.01,-33.01l-12.01,-16.5l-27,3c0,0 -25.5,6 -30,7.5c-4.5,1.5 -24.07,24.07 -24.07,24.07l18.4,49.07" id="path250"/>
    <path stroke="null" fill-rule="nonzero" fill="#17282f" d="m3828.0966,1160.32081c8.16,-9.26 17.66,-19.17 20.16,-20.46c3.28,-1.09 22.31,-5.63 29.34,-7.29l23.52,-2.57l7.67,10.54l-32.72,29.99c-1.6,1.47 -2.07,3.81 -1.16,5.78c0.92,1.98 3.04,3.17 5.16,2.86l19.49,-2.43l1.13,5.11l-32.32,14.82l-24.46,5.81l-15.81,-42.16zm75.36,-40.61l-0.55,0.03l-27.01,3c-3.23,0.72 -26.46,6.19 -31.04,7.72c-4.79,1.61 -16.93,14.77 -26.27,25.53c-1.2,1.39 -1.54,3.32 -0.9,5.04l18.41,49.08c0.88,2.35 3.39,3.65 5.85,3.11l29.67,-7.14l36.91,-16.83c2.15,-0.97 3.31,-3.32 2.81,-5.62l-3,-13.5c-0.57,-2.52 -3,-4.2 -5.5,-3.88l-8.46,1.06l24.46,-22.42c1.87,-1.72 2.16,-4.57 0.66,-6.62l-12,-16.5c-0.95,-1.31 -2.45,-2.06 -4.04,-2.06" id="path252"/>
    <path stroke="null" fill-rule="nonzero" fill="#ffffff" d="m4137.4166,1586.53081l18.2,16.37l43.66,-6.37l10.01,-32.75c0,0 -10.01,-4.54 -17.28,-3.63c-7.28,0.9 -26.39,12.73 -26.39,12.73c0,0 -20.01,1.82 -28.2,13.65" id="path254"/>
    <path stroke="null" fill-rule="nonzero" fill="#17282f" d="m4144.4666,1586.15081c6.57,-5.71 17.4,-7.9 21.6,-8.28l2.18,-0.74c7.56,-4.66 20.11,-11.49 24.38,-12.03c3.05,-0.38 7.29,0.63 10.51,1.68l-7.71,25.27l-38.21,5.57l-12.75,-11.47zm49.55,-31.13l-2.63,0.16c-7.38,0.93 -22.58,9.9 -27.45,12.87c-4.83,0.64 -22.38,3.72 -30.63,15.63c-1.44,2.07 -1.1,4.88 0.76,6.57l18.19,16.38c1.12,0.99 2.6,1.39 4.08,1.23l43.67,-6.37c1.91,-0.28 3.5,-1.64 4.06,-3.49l10,-32.76c0.73,-2.39 -0.43,-4.97 -2.71,-6.01c-1.04,-0.47 -9.51,-4.21 -17.34,-4.21" id="path256"/>
   </g>
  </g>
 </g>
</svg>