<svg width="500" height="500" xmlns="http://www.w3.org/2000/svg" version="1.1" xml:space="preserve">
 <metadata id="metadata8">image/svg+xml</metadata>

 <g>
  <title>Layer 1</title>
  <g id="g10" transform="matrix(2.45558 0 0 -2.45558 -15.792 1089.83)">
   <g id="g12" transform="translate(-126 -28.5) scale(0.1 0.1)">
    <path fill-rule="nonzero" fill="#ffffff" d="m2738.09,2840.85936l-18.54,0l-33.03,417.31l18.55,0l33.02,-417.31" id="path510"/>
    <path fill-rule="nonzero" fill="#17282f" d="m2724.16,2845.85936l8.52,0l-32.23,407.31l-8.52,0l32.23,-407.31zm13.93,-10l-18.54,0c-2.61,0 -4.78,2.01 -4.98,4.61l-33.03,417.3c-0.12,1.39 0.36,2.77 1.31,3.79c0.94,1.03 2.27,1.61 3.67,1.61l18.55,0c2.61,0 4.78,-2.01 4.98,-4.61l33.02,-417.3c0.12,-1.39 -0.36,-2.77 -1.31,-3.79c-0.94,-1.03 -2.27,-1.61 -3.67,-1.61" id="path512"/>
    <path fill-rule="nonzero" fill="#ffffff" d="m2523.75,2840.85936l-18.55,0l-33.02,417.31l18.54,0l33.03,-417.31" id="path514"/>
    <path fill-rule="nonzero" fill="#17282f" d="m2509.82,2845.85936l8.51,0l-32.23,407.31l-8.51,0l32.23,-407.31zm13.92,-10l-18.54,0c-2.61,0 -4.78,2.01 -4.99,4.61l-33.02,417.3c-0.11,1.39 0.37,2.77 1.32,3.79c0.94,1.03 2.27,1.61 3.67,1.61l18.54,0c2.61,0 4.78,-2.01 4.99,-4.61l33.02,-417.3c0.11,-1.39 -0.37,-2.77 -1.31,-3.79c-0.95,-1.03 -2.28,-1.61 -3.68,-1.61" id="path516"/>
    <path fill-rule="nonzero" fill="#ffffff" d="m2265.07,2840.85936l18.54,0l33.03,417.31l-18.55,0l-33.02,-417.31" id="path518"/>
    <path fill-rule="nonzero" fill="#17282f" d="m2270.48,2845.85936l8.51,0l32.24,407.31l-8.52,0l-32.23,-407.31zm13.13,-10l-18.54,0c-1.4,0 -2.73,0.58 -3.67,1.61c-0.95,1.02 -1.42,2.4 -1.32,3.79l33.03,417.3c0.2,2.6 2.37,4.61 4.98,4.61l18.55,0c1.4,0 2.72,-0.58 3.67,-1.61c0.95,-1.02 1.42,-2.4 1.32,-3.79l-33.03,-417.3c-0.21,-2.6 -2.38,-4.61 -4.99,-4.61" id="path520"/>
    <path fill-rule="nonzero" fill="#ffffff" d="m2479.41,2840.85936l18.55,0l33.03,417.31l-18.55,0l-33.03,-417.31" id="path522"/>
    <path fill-rule="nonzero" fill="#17282f" d="m2484.82,2845.85936l8.52,0l32.23,407.31l-8.51,0l-32.24,-407.31zm13.14,-10l-18.55,0c-1.39,0 -2.72,0.58 -3.67,1.61c-0.95,1.02 -1.42,2.4 -1.31,3.79l33.02,417.3c0.21,2.6 2.38,4.61 4.99,4.61l18.54,0c1.4,0 2.73,-0.58 3.67,-1.61c0.95,-1.02 1.43,-2.4 1.31,-3.79l-33.02,-417.3c-0.2,-2.6 -2.37,-4.61 -4.98,-4.61" id="path524"/>
    <path fill-rule="nonzero" fill="#ffffff" d="m2735.98,3309.33936l61.06,328.75c3.61,19.44 -11.31,37.39 -31.08,37.39l-222.3,0c-15.62,0 -28.89,-11.41 -31.25,-26.85l-51.54,-337.91l275.11,-1.38" id="path526"/>
    <path fill-rule="nonzero" fill="#17282f" d="m2466.68,3315.68936l265.15,-1.33l60.3,324.65c1.45,7.8 -0.63,15.77 -5.71,21.87c-5.07,6.1 -12.53,9.6 -20.46,9.6l-222.3,0c-13.25,0 -24.3,-9.51 -26.31,-22.61l-50.67,-332.18zm269.3,-11.35l-0.03,0l-275.11,1.38c-1.46,0.01 -2.83,0.65 -3.77,1.75c-0.95,1.11 -1.37,2.57 -1.15,4l51.55,337.91c2.75,18.02 17.97,31.1 36.19,31.1l222.3,0c10.91,0 21.17,-4.81 28.16,-13.2c6.97,-8.4 9.83,-19.36 7.84,-30.1l-61.07,-328.75c-0.44,-2.37 -2.5,-4.09 -4.91,-4.09" id="path528"/>
    <path fill-rule="nonzero" fill="#ffffff" d="m2735.98,3245.79936l-465.59,0l0,63.54l465.59,0l0,-63.54" id="path530"/>
    <path fill-rule="nonzero" fill="#17282f" d="m2275.39,3250.79936l455.59,0l0,53.54l-455.59,0l0,-53.54zm460.59,-10l-465.59,0c-2.77,0 -5,2.24 -5,5l0,63.54c0,2.77 2.23,5 5,5l465.59,0c2.76,0 5,-2.23 5,-5l0,-63.54c0,-2.76 -2.24,-5 -5,-5" id="path532"/>
    <path fill-rule="nonzero" fill="#6ccb94" d="m2585.03,3878.04936l-51.56,-10.88l-51.56,10.88l-111.31,-51.28l17.12,-337.63l291.5,0l17.25,337.63l-111.44,51.28" id="path534"/>
    <path fill-rule="nonzero" fill="#17282f" d="m2392.47,3494.13936l281.99,0l16.84,329.5l-106.86,49.17l-49.93,-10.53l-2.07,0l-49.94,10.53l-106.73,-49.17l16.7,-329.5zm286.74,-10l-291.49,0c-2.66,0 -4.86,2.08 -5,4.74l-17.11,337.63c-0.11,2.04 1.04,3.94 2.9,4.8l111.31,51.28c0.98,0.46 2.06,0.59 3.12,0.35l50.53,-10.66l50.52,10.66c1.06,0.22 2.16,0.1 3.12,-0.35l111.45,-51.28c1.85,-0.86 3.01,-2.76 2.9,-4.8l-17.26,-337.63c-0.13,-2.66 -2.32,-4.74 -4.99,-4.74" id="path536"/>
    <path fill-rule="nonzero" fill="#6ccb94" d="m2649.61,3761.71936l-4.57,-149.34l44.55,-36.2l36.93,24.87c0,0 13.18,178.39 4.83,197.87c-5.94,13.88 -41.03,31 -49.27,34.59" id="path538"/>
    <path fill-rule="nonzero" fill="#17282f" d="m2689.58,3571.17936c-1.12,0 -2.23,0.38 -3.15,1.12l-44.55,36.19c-1.21,0.99 -1.89,2.48 -1.85,4.04l4.57,149.34c0.09,2.71 2.31,4.85 5,4.85l0.16,0c2.75,-0.09 4.92,-2.4 4.84,-5.15l-4.49,-146.87l39.76,-32.3l31.85,21.44c5.21,71.28 10.75,179.79 5.03,193.12c-4.59,10.71 -33.96,26.43 -46.66,31.96c-2.54,1.1 -3.69,4.05 -2.59,6.58c1.11,2.54 4.11,3.67 6.58,2.59c0.45,-0.2 44.25,-19.44 51.87,-37.2c8.58,-20.03 -3.07,-181.83 -4.43,-200.21c-0.12,-1.53 -0.93,-2.92 -2.2,-3.78l-36.94,-24.87c-0.85,-0.57 -1.83,-0.85 -2.8,-0.85" id="path540"/>
    <path fill-rule="nonzero" fill="#17282f" d="m2501.33,3799.70936l21.05,-52.06l-16.62,-185.05l26.59,-48.73l31.01,50.95l-25.48,180.61l22.16,45.42l-28.9,42.13l-29.81,-33.27" id="path542"/>
    <path fill-rule="nonzero" fill="#17282f" d="m2510.88,3563.66936l21.7,-39.8l25.57,42.03l-25.22,178.83c-0.13,0.99 0.02,2 0.46,2.89l20.87,42.8l-23.65,34.48l-23.47,-26.21l19.88,-49.17l0.34,-2.32l-16.48,-183.53zm21.47,-54.8l-0.12,0c-1.79,0.04 -3.42,1.04 -4.27,2.61l-26.59,48.73c-0.47,0.87 -0.68,1.86 -0.59,2.84l16.51,183.84l-20.59,50.94c-0.72,1.77 -0.36,3.79 0.91,5.21l29.81,33.27c1.02,1.15 2.55,1.71 4.04,1.66c1.53,-0.1 2.93,-0.9 3.8,-2.16l28.89,-42.14c1.03,-1.48 1.17,-3.4 0.38,-5.02l-21.48,-44.03l25.26,-179.1c0.16,-1.14 -0.08,-2.31 -0.69,-3.3l-31,-50.95c-0.91,-1.49 -2.53,-2.4 -4.27,-2.4" id="path544"/>
    <path fill-rule="nonzero" fill="#a7aaa8" d="m2583.62,3878.04936l-51.63,-65.27l-48.41,65.27l0,58.8l100.04,0l0,-58.8" id="path546"/>
    <path fill-rule="nonzero" fill="#17282f" d="m2583.62,3878.04936l0.1,0l-0.1,0zm-95.04,1.65l43.53,-58.69l46.51,58.78l0,52.06l-90.04,0l0,-52.15zm43.41,-71.92l-0.08,0c-1.55,0.03 -3.01,0.77 -3.94,2.02l-48.4,65.27c-0.64,0.86 -0.99,1.9 -0.99,2.98l0,58.8c0,2.76 2.24,5 5,5l100.04,0c2.76,0 5,-2.24 5,-5l0,-58.8c0,-1.13 -0.38,-2.22 -1.08,-3.1l-51.63,-65.27c-0.95,-1.2 -2.4,-1.9 -3.92,-1.9" id="path548"/>
    <path fill-rule="nonzero" fill="#6ccb94" d="m2478.07,3887.20936l-13.75,-16.93l15.54,-96.35l52.13,38.85l56.64,-37.29l9.33,94.79l-13.56,13.6l-53.26,-50.9l-53.07,54.23" id="path550"/>
    <path fill-rule="nonzero" fill="#17282f" d="m2469.61,3868.85936l13.87,-85.99l45.52,33.92c1.7,1.26 3.98,1.32 5.74,0.17l49.73,-32.74l8.28,84.2l-8.44,8.47l-49.72,-47.52c-1.98,-1.91 -5.12,-1.84 -7.03,0.12l-49.14,50.21l-8.81,-10.84zm10.25,-99.92l-1.88,0.36c-1.62,0.66 -2.78,2.12 -3.06,3.84l-15.54,96.34c-0.23,1.41 0.16,2.84 1.05,3.95l13.76,16.93c0.9,1.1 2.23,1.77 3.65,1.84c1.43,0.02 2.81,-0.48 3.81,-1.5l49.6,-50.69l49.69,47.49c1.97,1.88 5.07,1.84 7,-0.08l13.56,-13.61c1.05,-1.06 1.58,-2.54 1.43,-4.02l-9.31,-94.79c-0.18,-1.74 -1.25,-3.27 -2.82,-4.03c-1.59,-0.75 -3.45,-0.62 -4.92,0.34l-53.72,35.37l-49.31,-36.76c-0.88,-0.65 -1.93,-0.98 -2.99,-0.98" id="path552"/>
    <path fill-rule="nonzero" fill="#a7aaa8" d="m2511.26,4104.36936c-11.51,-0.46 -22.51,-3.78 -31.96,-11.36c-24.02,-19.25 -13.79,-70.68 -28.26,-95.96c-12.94,-22.62 -15.29,-88.9 -3.28,-99.97c12.01,-11.08 31.53,-15.38 52.83,-11.64c21.29,3.74 60.81,19.12 70.87,26.53c10.06,7.41 17.64,41.81 17.66,41.87c0.95,4.33 8.97,11.14 11.44,15.01c5.47,8.59 10.67,18 13.67,27.75c10.19,33.14 4.74,74.17 -24.73,92.05c-20.22,12.26 -54.18,16.66 -78.24,15.72" id="path554"/>
    <path fill-rule="nonzero" fill="#17282f" d="m2511.45,4099.36936c-11.33,-0.45 -21.09,-3.9 -29.02,-10.25c-12.27,-9.84 -14.61,-30.79 -16.87,-51.05c-1.75,-15.7 -3.56,-31.94 -10.17,-43.5c-12.59,-22 -13.65,-85.14 -4.24,-93.81c10.79,-9.95 28.94,-13.84 48.58,-10.39c20.69,3.63 59.24,18.6 68.76,25.62c5.46,4.03 12.05,22.61 15.73,38.89c0.9,4.06 4.62,8.13 8.21,12.06c1.59,1.73 3.1,3.33 3.9,4.59c6.53,10.23 10.7,18.66 13.12,26.55c9.06,29.47 5.88,69.05 -22.55,86.3c-19.1,11.59 -52.54,15.89 -75.45,14.99zm-25.79,-220.27c-16.59,0 -31.14,4.95 -41.29,14.3c-14.61,13.48 -10.93,82.95 2.33,106.13c5.59,9.77 7.21,24.28 8.92,39.65c2.49,22.28 5.05,45.31 20.55,57.74c9.64,7.72 21.37,11.91 34.89,12.44c25.19,1.03 60.05,-3.71 81.03,-16.43c33,-20.03 37.08,-64.73 26.91,-97.8c-2.69,-8.76 -7.21,-17.97 -14.23,-28.98c-1.15,-1.8 -3,-3.82 -4.96,-5.96c-1.9,-2.08 -5.44,-5.96 -5.81,-7.43c-1.95,-8.63 -9.07,-37.08 -19.57,-44.81c-10.51,-7.75 -50.75,-23.53 -72.98,-27.44c-5.4,-0.95 -10.69,-1.41 -15.79,-1.41" id="path556"/>
    <path fill-rule="nonzero" fill="#17282f" d="m2558.31,4076.12936c-26.45,14.88 -56.03,15.46 -67.52,16.17c-2.98,0.19 -6.05,1.1 -8.86,2.46c8.85,6.23 18.84,9.19 29.33,9.61c24.06,0.94 58.02,-3.46 78.24,-15.72c29.47,-17.88 34.92,-58.91 24.73,-92.05c-3,-9.75 -8.2,-19.16 -13.67,-27.75l-1.92,-2.39l-11.52,-0.06c0,0 -19.84,-2.09 -21.22,3.39c-1.38,5.47 0.52,14.1 0.1,18.07c-0.42,3.97 -23.44,16.79 -21,27.88c2.45,11.09 24.72,35.91 24.72,35.91c0,0 15.04,9.61 -11.41,24.48" id="path558"/>
    <path fill-rule="nonzero" fill="#17282f" d="m2570.56,3971.91936c2.4,-0.95 9.59,-1.21 16.05,-0.54l9.66,0.06l0.05,0.07c6.54,10.25 10.71,18.68 13.14,26.57c9.06,29.47 5.87,69.05 -22.56,86.3c-19.1,11.59 -52.54,15.89 -75.45,14.99c-4.96,-0.2 -9.66,-1.01 -14.07,-2.43c14.4,-0.87 39.9,-3.24 63.38,-16.44c12.05,-6.78 17.99,-13.64 18.21,-20.97c0.18,-6.37 -4.14,-10.29 -5.9,-11.62c-8.3,-9.31 -21.63,-26.21 -23.18,-33.24c-0.96,-4.36 8.04,-12.07 12.88,-16.22c5.06,-4.34 7.85,-6.73 8.2,-10.07c0.22,-2.03 0.01,-4.45 -0.22,-7.26c-0.26,-3 -0.56,-6.65 -0.19,-9.2zm8.2,-11c-8.29,0 -16.21,1.68 -17.71,7.64c-1.05,4.15 -0.64,9.07 -0.27,13.4c0.14,1.72 0.31,3.3 0.29,4.54c-0.92,1.02 -3.13,2.92 -4.81,4.35c-7.76,6.65 -18.38,15.77 -16.14,25.97c2.65,12.03 23.5,35.53 25.87,38.17l1.03,0.88c0,0 2.04,1.44 1.95,3.44c-0.06,1.22 -1.16,5.75 -13.12,12.47c-23.52,13.23 -49.89,14.68 -62.57,15.37l-2.8,0.16c-3.5,0.22 -7.22,1.24 -10.74,2.96c-1.59,0.78 -2.66,2.33 -2.8,4.09c-0.14,1.77 0.67,3.47 2.11,4.49c9.26,6.5 20.02,10.04 32.01,10.51c25.18,1.02 60.05,-3.71 81.03,-16.43c33,-20.03 37.08,-64.73 26.92,-97.8c-2.7,-8.76 -7.23,-17.98 -14.24,-28.98c-0.45,-0.71 -1.2,-1.63 -1.98,-2.55c-0.95,-1.11 -2.66,-2.14 -4.12,-2.14l-11.53,-0.06c-2.67,-0.28 -5.54,-0.48 -8.38,-0.48" id="path560"/>
    <path fill-rule="nonzero" fill="#17282f" d="m2477.13,3945.89936l-0.9,0.18l-14.43,5.58l-1.43,1.44l0.11,2.03l18.69,36.29l0.83,19.73c0.06,1.39 1.04,2.46 2.61,2.4c1.37,-0.06 2.44,-1.23 2.39,-2.61l-0.85,-20.28l-0.28,-1.04l-17.67,-34.3l11.83,-4.58c1.29,-0.5 1.93,-1.95 1.43,-3.24c-0.38,-0.99 -1.33,-1.6 -2.33,-1.6" id="path562"/>
    <path fill-rule="nonzero" fill="#17282f" d="m2471.55,3999.60936c-1.19,-5.39 -4.21,-9.31 -6.74,-8.75c-2.54,0.56 -3.63,5.38 -2.45,10.77c1.19,5.4 4.21,9.31 6.75,8.75c2.53,-0.55 3.63,-5.38 2.44,-10.77" id="path564"/>
    <path fill-rule="nonzero" fill="#17282f" d="m2510.61,3985.58936c-1.19,-5.39 -4.21,-9.31 -6.75,-8.75c-2.53,0.56 -3.63,5.38 -2.44,10.77c1.19,5.4 4.21,9.31 6.75,8.75c2.53,-0.56 3.63,-5.38 2.44,-10.77" id="path566"/>
    <path fill-rule="nonzero" fill="#17282f" d="m2486.46,3925.74936c-16.56,0 -23.16,11.86 -23.25,12.02c-0.65,1.22 -0.19,2.73 1.02,3.38c1.21,0.65 2.72,0.2 3.38,-1.01c0.39,-0.69 9.66,-16.84 36.35,-5.21c1.28,0.54 2.74,-0.03 3.3,-1.29c0.55,-1.26 -0.03,-2.74 -1.29,-3.29c-7.65,-3.34 -14.11,-4.6 -19.51,-4.6" id="path568"/>
    <path fill-rule="nonzero" fill="#17282f" d="m2479.68,4017.59936l-1.93,0.91c-2.32,2.79 -4.7,4.27 -7.09,4.38c-3.07,0.23 -5.52,-2.13 -5.54,-2.16c-0.98,-0.97 -2.56,-0.97 -3.53,0c-0.98,0.97 -0.99,2.53 -0.03,3.51c0.15,0.16 4.03,3.91 9.26,3.65c3.87,-0.16 7.5,-2.24 10.78,-6.19c0.89,-1.07 0.74,-2.64 -0.33,-3.52l-1.59,-0.58" id="path570"/>
    <path fill-rule="nonzero" fill="#17282f" d="m2527.43,3993.83936c-1.1,0 -2.1,0.72 -2.42,1.82c-4.72,16.91 -22.95,14.92 -23.72,14.86c-1.28,-0.19 -2.61,0.81 -2.78,2.18c-0.17,1.36 0.81,2.61 2.18,2.78c0.21,0.03 23.24,2.62 29.15,-18.47c0.37,-1.33 -0.41,-2.71 -1.74,-3.08l-0.67,-0.09" id="path572"/>
    <path fill-rule="nonzero" fill="#a7aaa8" d="m2574.29,3954.70936c0,0 11.61,34.34 29.45,28.31c17.83,-6.03 10.5,-14.61 3.54,-29.71c-8.49,-18.42 -24.71,-17 -24.71,-17" id="path574"/>
    <path fill-rule="nonzero" fill="#17282f" d="m2583.35,3931.28936l-1.23,0.04c-2.74,0.24 -4.78,2.67 -4.54,5.42c0.25,2.74 2.77,4.77 5.42,4.54c0.49,-0.04 12.92,-0.69 19.74,14.11c0.93,2.01 1.85,3.9 2.73,5.68c2.63,5.36 5.12,10.42 4.19,12.65c-0.36,0.87 -1.82,2.62 -7.53,4.55c-10.76,3.6 -20.5,-17.5 -23.1,-25.18c-0.89,-2.6 -3.73,-4.02 -6.34,-3.13c-2.62,0.89 -4.02,3.72 -3.13,6.34c0.12,0.37 3.17,9.29 8.58,17.56c10.25,15.62 20.44,16.18 27.2,13.89c7.4,-2.51 11.71,-5.75 13.56,-10.19c2.67,-6.42 -0.63,-13.13 -4.46,-20.9c-0.84,-1.71 -1.73,-3.53 -2.62,-5.45c-8.53,-18.52 -23.96,-19.93 -28.47,-19.93" id="path576"/>
    <path fill-rule="nonzero" fill="#17282f" d="m2706.29,3403.55936l-27.07,85.58l-291.5,0l-9.8,-44.9c-4.01,0.06 -7.8,-0.48 -11.31,-1.7l-105.64,-24.01c-15.58,-3.54 -29.71,-12.54 -38.25,-26.04c-3.74,-5.91 -6.46,-12.6 -6.46,-19.56c0,-22.28 16.7,-431.61 16.7,-431.61l75.18,0l47.56,368.02l82.25,0c4.61,-109.04 14.32,-368.02 14.32,-368.02l75.18,0l47.56,368.02l111.53,0c0,0 -0.25,0.87 -0.71,2.33l0.71,0l19.75,91.89" id="path578"/>
    <path fill-rule="nonzero" fill="#17282f" d="m2457.09,2946.31936l65.96,0l46.99,363.66c0.33,2.5 2.45,4.36 4.96,4.36l106.61,0l0.2,0.3l0.35,0.43l18.97,88.24l-25.58,80.83l-283.8,0l-8.95,-40.96c-0.5,-2.3 -2.53,-3.93 -4.88,-3.93l-0.54,0c-3.33,0 -6.4,-0.48 -9.12,-1.43l-106.19,-24.17c-14.88,-3.38 -27.69,-12.07 -35.13,-23.84c-3.77,-5.95 -5.68,-11.64 -5.68,-16.88c0,-20.62 14.63,-380.61 16.5,-426.61l65.98,0l47,363.66c0.32,2.5 2.44,4.36 4.96,4.36l82.25,0c2.68,0 4.88,-2.11 4.99,-4.79c4.22,-99.63 12.8,-327.25 14.15,-363.23zm70.36,-10l-75.17,0c-2.7,0 -4.9,2.12 -5,4.81c-0.1,2.55 -9.49,252.79 -14.13,363.21l-73.06,0l-46.99,-363.66c-0.32,-2.5 -2.45,-4.36 -4.96,-4.36l-75.18,0c-2.68,0 -4.88,2.11 -4.99,4.79c-0.69,16.72 -16.71,409.69 -16.71,431.82c0,7.17 2.43,14.65 7.23,22.23c8.85,13.98 23.93,24.28 41.37,28.24l105.64,24.01c2.39,0.86 5.25,1.45 8.36,1.7l8.98,41.09c0.49,2.3 2.53,3.94 4.88,3.94l291.49,0c2.18,0 4.11,-1.41 4.77,-3.49l27.08,-85.58l0.13,-2.56l-19.75,-91.89l-0.03,-0.11c0.34,-1.43 0.04,-2.95 -0.85,-4.14c-0.94,-1.27 -2.43,-2.03 -4.01,-2.03l-107.15,0l-46.99,-363.66c-0.33,-2.5 -2.45,-4.36 -4.96,-4.36" id="path580"/>
    <path fill-rule="nonzero" fill="#6ccb94" d="m2370.6,3826.76936l-85.07,-177.86l-182.89,-41.03l-0.54,-34.48l225.53,0l55.69,38.98l-12.72,214.39" id="path582"/>
    <path fill-rule="nonzero" fill="#17282f" d="m2107.18,3578.39936l218.87,0l52.11,36.47l-11.4,192.27l-76.72,-160.39c-0.66,-1.39 -1.92,-2.39 -3.41,-2.72l-179.05,-40.16l-0.4,-25.47zm220.45,-10l-225.53,0c-1.33,0 -2.62,0.53 -3.56,1.49c-0.94,0.95 -1.46,2.25 -1.44,3.58l0.54,34.49c0.04,2.31 1.65,4.3 3.91,4.8l180.52,40.49l84.02,175.67c0.98,2.06 3.21,3.19 5.47,2.75c2.24,-0.44 3.9,-2.33 4.03,-4.61l12.72,-214.39c0.1,-1.73 -0.7,-3.39 -2.13,-4.39l-55.68,-38.98c-0.84,-0.59 -1.84,-0.9 -2.87,-0.9" id="path584"/>
    <path fill-rule="nonzero" fill="#6ccb94" d="m2636.69,3782.21936l-44.55,-27.84l44.55,-167.06c0,0 49.64,-32.23 60.78,-23.88c11.13,8.36 29.05,37.61 29.05,37.61l-89.83,181.17" id="path586"/>
    <path fill-rule="nonzero" fill="#17282f" d="m2641.02,3590.47936c23.99,-15.34 49.18,-26.22 53.45,-23.04c7.77,5.83 20.51,24.65 26.34,33.89l-86.16,173.73l-36.74,-22.96l43.11,-161.62zm51.36,-33.27c-16.46,0 -45.22,17.34 -58.42,25.91c-1.04,0.68 -1.79,1.71 -2.11,2.91l-44.55,167.06c-0.57,2.12 0.32,4.36 2.19,5.53l44.55,27.84c1.2,0.76 2.66,0.96 4,0.57c1.37,-0.38 2.49,-1.32 3.13,-2.59l89.84,-181.17c0.76,-1.54 0.68,-3.37 -0.21,-4.83c-0.76,-1.23 -18.56,-30.18 -30.34,-39c-2.07,-1.56 -4.84,-2.23 -8.08,-2.23" id="path588"/>
    <path fill-rule="nonzero" fill="#a7aaa8" d="m2636.69,3782.21936l-17.85,53l-34.44,48.66c0,0 -18.55,-11.06 -16.84,-16.19c0,0 -23.93,-27.35 -23.93,-35.89c0,-8.55 8.88,-42.59 16.41,-40.95c7.52,1.63 32.1,-36.47 32.1,-36.47l44.55,27.84" id="path590"/>
    <path fill-rule="nonzero" fill="#17282f" d="m2572.31,3869.27936l0,-0.01l0,0.01zm-11.76,-73.35c3.75,0 12.45,-3.51 33.09,-34.72l37.05,23.16l-16.35,48.56l-31.28,44.19c-5.06,-3.41 -9.48,-7.12 -10.53,-8.93c0.14,-1.36 -0.28,-2.74 -1.21,-3.79c-12.17,-13.93 -22.57,-28.86 -22.68,-32.61c0,-8.32 7.13,-31.99 11.37,-35.89l0.54,0.03zm31.58,-46.55c-1.64,0 -3.24,0.81 -4.2,2.29c-10,15.5 -23.56,32.97 -27.81,34.27c-0.7,-0.36 -3.29,-0.31 -6.04,1.91c-8.86,7.14 -15.44,36.57 -15.44,43.95c0,8.94 15.87,28.44 23.94,37.79c0.94,5.27 7.39,11.51 19.26,18.59c2.24,1.33 5.14,0.73 6.64,-1.4l34.44,-48.67l0.66,-1.3l17.84,-53c0.74,-2.19 -0.13,-4.6 -2.09,-5.83l-44.55,-27.84c-0.82,-0.52 -1.74,-0.76 -2.65,-0.76" id="path592"/>
    <path fill-rule="nonzero" fill="#a7aaa8" d="m2102.64,3607.87936l-73.49,3.42l-32.48,-39.31l105.43,0l0.54,35.89" id="path594"/>
    <path fill-rule="nonzero" fill="#17282f" d="m2007.28,3576.98936l89.9,0l0.39,26.12l-66.16,3.08l-24.13,-29.2zm94.82,-10l-105.43,0c-1.94,0 -3.7,1.12 -4.52,2.87c-0.83,1.75 -0.57,3.82 0.67,5.31l32.47,39.32c1,1.21 2.58,1.82 4.09,1.81l73.5,-3.42c2.69,-0.13 4.8,-2.37 4.76,-5.07l-0.54,-35.89c-0.03,-2.74 -2.26,-4.93 -5,-4.93" id="path596"/>
    <path fill-rule="nonzero" fill="#ffffff" d="m2232.96,2941.31936l-31.96,-46.04l-69.44,-36.68l0,-14.42l187.34,0l-10.76,97.14l-75.18,0" id="path598"/>
    <path fill-rule="nonzero" fill="#17282f" d="m2201,2895.27936l0.09,0l-0.09,0zm-64.44,-46.1l176.76,0l-9.66,87.14l-68.08,0l-30.48,-43.9l-1.77,-1.56l-66.77,-35.28l0,-6.4zm182.34,-10l-187.34,0c-2.76,0 -5,2.24 -5,5l0,14.42c0,1.85 1.03,3.55 2.67,4.42l68.35,36.11l31.28,45.04c0.93,1.35 2.46,2.15 4.1,2.15l75.18,0c2.55,0 4.69,-1.92 4.97,-4.45l10.76,-97.14c0.16,-1.41 -0.3,-2.82 -1.24,-3.88c-0.95,-1.06 -2.31,-1.67 -3.73,-1.67" id="path600"/>
    <path fill-rule="nonzero" fill="#ffffff" d="m2454.37,2941.31936l-31.97,-46.04l-69.43,-36.68l0,-14.42l187.33,0l-10.76,97.14l-75.17,0" id="path602"/>
    <path fill-rule="nonzero" fill="#17282f" d="m2422.4,2895.27936l0.09,0l-0.09,0zm-64.44,-46.1l176.76,0l-9.65,87.14l-68.09,0l-30.48,-43.9l-1.77,-1.56l-66.77,-35.28l0,-6.4zm182.35,-10l-187.35,0c-2.76,0 -5,2.24 -5,5l0,14.42c0,1.85 1.03,3.55 2.67,4.42l68.35,36.11l31.28,45.04c0.93,1.35 2.46,2.15 4.1,2.15l75.19,0c2.54,0 4.68,-1.92 4.97,-4.45l10.76,-97.14c0.15,-1.41 -0.29,-2.82 -1.25,-3.88c-0.95,-1.06 -2.3,-1.67 -3.72,-1.67" id="path604"/>
    <path fill-rule="nonzero" fill="#17282f" d="m1744,3727.51936l-290.88,0l-15.76,-791.83l70.53,0l90.67,601.93l90.67,-601.93l70.52,0l-15.75,791.83" id="path606"/>
    <path fill-rule="nonzero" fill="#17282f" d="m1693.53,2940.68936l61.11,0l-15.54,781.83l-281.08,0l-15.55,-781.83l61.11,0l90.03,597.68c0.37,2.44 2.47,4.25 4.94,4.25c2.48,0 4.58,-1.81 4.95,-4.25l90.03,-597.68zm66.22,-10l-70.52,0c-2.48,0 -4.58,1.8 -4.95,4.25l-85.73,569.11l-85.72,-569.11c-0.37,-2.45 -2.47,-4.25 -4.94,-4.25l-70.53,0c-1.34,0 -2.63,0.54 -3.57,1.5c-0.94,0.96 -1.45,2.25 -1.43,3.59l15.75,791.84c0.06,2.72 2.28,4.9 5,4.9l290.89,0c2.72,0 4.95,-2.18 5,-4.9l15.75,-791.84c0.02,-1.34 -0.49,-2.63 -1.43,-3.59c-0.94,-0.96 -2.23,-1.5 -3.57,-1.5" id="path608"/>
    <path fill-rule="nonzero" fill="#6ccb94" d="m1650.42,4155.99936l-51.56,-10.88l-51.55,10.88l-129.48,-51.28l35.29,-377.2l291.49,0l35.29,377.2l-129.48,51.28" id="path610"/>
    <path fill-rule="nonzero" fill="#17282f" d="m1457.67,3732.51936l282.39,0l34.51,368.94l-124.59,49.34l-50.09,-10.57l-2.06,0l-50.08,10.57l-124.6,-49.34l34.52,-368.94zm286.94,-10l-291.5,0c-2.58,0 -4.73,1.96 -4.98,4.53l-35.28,377.21c-0.21,2.21 1.07,4.29 3.14,5.11l129.48,51.28c0.91,0.36 1.92,0.45 2.87,0.25l50.52,-10.66l50.53,10.66c0.95,0.2 1.95,0.11 2.87,-0.25l129.48,-51.28c2.07,-0.82 3.35,-2.9 3.14,-5.11l-35.29,-377.21c-0.24,-2.57 -2.39,-4.53 -4.98,-4.53" id="path612"/>
    <path fill-rule="nonzero" fill="#17282f" d="m1566.73,4077.65936l21.04,-52.06l-16.61,-224.61l26.58,-48.74l31.01,50.96l-25.47,220.17l22.15,45.42l-28.9,42.14l-29.8,-33.28" id="path614"/>
    <path fill-rule="nonzero" fill="#17282f" d="m1576.25,3802.08936l21.73,-39.83l25.61,42.08l-25.27,218.47c-0.12,0.95 0.05,1.91 0.47,2.77l20.87,42.79l-23.65,34.49l-23.48,-26.22l19.88,-49.16l0.35,-2.25l-16.51,-223.14zm21.49,-54.84l-0.12,0c-1.79,0.05 -3.42,1.04 -4.27,2.61l-26.58,48.74c-0.46,0.84 -0.67,1.8 -0.6,2.76l16.53,223.45l-20.61,50.97c-0.71,1.77 -0.36,3.79 0.91,5.21l29.81,33.28c1.03,1.15 2.53,1.7 4.05,1.66c1.53,-0.1 2.93,-0.9 3.8,-2.17l28.9,-42.14c1.01,-1.48 1.15,-3.4 0.36,-5.02l-21.5,-44.09l25.3,-218.73c0.13,-1.11 -0.12,-2.22 -0.69,-3.17l-31.02,-50.95c-0.91,-1.5 -2.53,-2.41 -4.27,-2.41" id="path616"/>
    <path fill-rule="nonzero" fill="#ffffff" d="m1649.02,4155.99936l-51.64,-65.26l-48.4,65.26l0,58.8l100.04,0l0,-58.8" id="path618"/>
    <path fill-rule="nonzero" fill="#17282f" d="m1649.02,4156.00936l0.1,0l-0.1,0zm-95.05,1.64l43.54,-58.69l46.51,58.78l0,52.06l-90.05,0l0,-52.15zm43.41,-71.91l-0.08,0c-1.55,0.02 -3.01,0.77 -3.93,2.02l-48.41,65.27c-0.64,0.85 -0.99,1.9 -0.99,2.98l0,58.79c0,2.76 2.24,5 5,5l100.05,0c2.76,0 5,-2.24 5,-5l0,-58.79c0,-1.13 -0.38,-2.22 -1.08,-3.11l-51.64,-65.27c-0.94,-1.19 -2.39,-1.89 -3.92,-1.89" id="path620"/>
    <path fill-rule="nonzero" fill="#6ccb94" d="m1543.47,4165.15936l-13.76,-16.93l15.54,-96.35l52.13,38.86l56.65,-37.3l9.32,94.79l-13.55,13.61l-53.27,-50.9l-53.06,54.22" id="path622"/>
    <path fill-rule="nonzero" fill="#17282f" d="m1535.01,4146.80936l13.87,-85.99l45.51,33.92c1.68,1.26 3.98,1.33 5.74,0.17l49.73,-32.74l8.29,84.21l-8.44,8.46l-49.72,-47.52c-1.99,-1.89 -5.11,-1.84 -7.03,0.12l-49.15,50.21l-8.8,-10.84zm10.24,-99.92l-1.88,0.37c-1.62,0.65 -2.77,2.11 -3.05,3.83l-15.54,96.35c-0.22,1.4 0.16,2.84 1.05,3.94l13.75,16.93c0.9,1.11 2.23,1.78 3.66,1.84c1.35,0.03 2.8,-0.47 3.8,-1.5l49.61,-50.69l49.7,47.49c1.96,1.89 5.07,1.85 6.99,-0.08l13.56,-13.61c1.05,-1.06 1.58,-2.53 1.43,-4.02l-9.33,-94.79c-0.17,-1.74 -1.24,-3.27 -2.82,-4.02c-1.58,-0.76 -3.44,-0.63 -4.9,0.34l-53.72,35.36l-49.32,-36.75c-0.88,-0.66 -1.93,-0.99 -2.99,-0.99" id="path624"/>
    <path fill-rule="nonzero" fill="#ffffff" d="m1437.36,2935.68936c0,0 -29.9,-92.4 -25.46,-93.88c4.44,-1.48 100.66,0 100.66,0l-4.67,93.88l-70.53,0" id="path626"/>
    <path fill-rule="nonzero" fill="#17282f" d="m1416.75,2846.33936c13,-0.49 58.67,-0.07 90.56,0.39l-4.18,83.96l-62.12,0c-11.23,-34.92 -22.3,-72.56 -24.26,-84.35zm-0.3,-3.1l0.1,0l-0.1,0zm26.7,-7.1c-17.8,0 -30.79,0.24 -32.83,0.92c-5.31,1.78 -9.14,3.06 22.29,100.16c0.66,2.07 2.59,3.47 4.75,3.47l70.53,0c2.66,0 4.86,-2.09 4.99,-4.75l4.68,-93.88c0.07,-1.35 -0.42,-2.68 -1.35,-3.67c-0.93,-0.99 -2.22,-1.56 -3.57,-1.58c-23.43,-0.36 -49.49,-0.67 -69.49,-0.67" id="path628"/>
    <path fill-rule="nonzero" fill="#ffffff" d="m1760.96,2935.68936c0,0 29.91,-92.4 25.47,-93.88c-4.44,-1.48 -100.67,0 -100.67,0l4.68,93.88l70.52,0" id="path630"/>
    <path fill-rule="nonzero" fill="#17282f" d="m1691.02,2846.72936c31.66,-0.46 76.95,-0.85 90.55,-0.34c-1.99,11.87 -13.04,49.44 -24.25,84.3l-62.12,0l-4.18,-83.96zm64.13,-10.59c-19.99,0 -46.04,0.31 -69.47,0.67c-1.35,0.02 -2.64,0.59 -3.57,1.58c-0.92,0.99 -1.41,2.32 -1.34,3.67l4.67,93.88c0.14,2.66 2.33,4.75 5,4.75l70.52,0c2.17,0 4.09,-1.4 4.76,-3.47c31.43,-97.1 27.6,-98.38 22.29,-100.15c-2.04,-0.69 -15.05,-0.93 -32.86,-0.93" id="path632"/>
    <path fill-rule="nonzero" fill="#17282f" d="m1678.01,4356.48936c0,0 26.28,-8.8 30.98,-24.09c4.71,-15.28 -19.99,-51.74 -19.99,-51.74l-8.23,56.45l-2.76,19.38" id="path634"/>
    <path fill-rule="nonzero" fill="#17282f" d="m1684.19,4348.51936l7.78,-53.57c7.44,13.06 14.44,28.85 12.24,35.99c-2.31,7.5 -12.17,13.79 -20.02,17.58zm4.81,-72.86l-1.11,0.13c-2.02,0.46 -3.53,2.11 -3.83,4.15l-11,75.84c-0.25,1.72 0.42,3.44 1.74,4.55c1.34,1.11 3.16,1.47 4.79,0.9c2.94,-0.98 28.88,-10.11 34.18,-27.35c5.26,-17.09 -17.96,-52.09 -20.63,-56.02c-0.94,-1.39 -2.5,-2.2 -4.14,-2.2" id="path636"/>
    <path fill-rule="nonzero" fill="#ffffff" d="m1649.24,4374.44936c11.14,-2.92 21.17,-8.53 28.77,-17.96c19.31,-23.97 11.89,-55.01 9.82,-84.06c-1.18,-16.47 -7.06,-105.84 -21.17,-114.08c-14.12,-8.23 -34.11,-8.23 -54.1,0c-19.99,8.24 -55.27,31.76 -63.5,41.16c-8.23,9.41 -8.24,44.62 -8.24,44.7c0,4.42 -6.37,12.8 -7.94,17.11c-3.5,9.56 -6.55,19.87 -7.38,30.05c-2.83,34.54 16.64,64.8 49.27,75.93c22.37,7.62 51.17,13.25 74.47,7.15" id="path638"/>
    <path fill-rule="nonzero" fill="#17282f" d="m1627.35,4372.04936c-19.55,0 -39.21,-5.48 -50.97,-9.49c-30.55,-10.41 -48.56,-38.19 -45.9,-70.79c0.68,-8.21 2.93,-17.35 7.09,-28.73c0.52,-1.41 1.65,-3.3 2.83,-5.33c2.66,-4.61 5.42,-9.39 5.42,-13.5c0.01,-13.88 2.18,-35.9 7,-41.4c7.8,-8.92 42.22,-31.84 61.64,-39.83c18.43,-7.6 37,-7.69 49.68,-0.31c1.9,1.11 11.74,11.55 18.57,108.38l0.13,1.74c0.34,4.84 0.84,9.73 1.33,14.64c2.46,24.43 4.78,47.51 -10.05,65.93c-6.38,7.91 -15.17,13.38 -26.14,16.25c-6.62,1.74 -13.62,2.44 -20.63,2.44zm14.48,-224.91c-9.89,0 -20.5,2.19 -31.18,6.59c-20.85,8.59 -56.75,32.65 -65.36,42.49c-9.01,10.3 -9.47,41.78 -9.47,47.98c-0.04,1.52 -2.67,6.06 -4.08,8.51c-1.52,2.62 -2.9,5.08 -3.56,6.89c-4.48,12.26 -6.92,22.22 -7.67,31.36c-3,36.73 18.16,69.32 52.64,81.07c17.05,5.81 49.78,14.47 77.36,7.26l0,0c13.08,-3.43 23.64,-10.04 31.39,-19.66c17.41,-21.62 14.77,-47.84 12.22,-73.2c-0.48,-4.81 -0.97,-9.61 -1.31,-14.36l-0.12,-1.73c-7.55,-107 -19.15,-113.76 -23.52,-116.31c-7.88,-4.59 -17.23,-6.89 -27.34,-6.89" id="path640"/>
    <path fill-rule="nonzero" fill="#17282f" d="m1656.07,4378.26936c0,0 27.05,-7.06 29.4,-23.52c2.36,-16.46 -16.46,-34.11 -61.15,-42.34c-44.69,-8.23 -51.74,-7.05 -51.74,-7.05c0,0 16.46,-10.59 10.58,-16.47c-5.88,-5.88 -14.11,-14.11 -14.11,-14.11l2.35,-22.34c0,0 -10.58,-12.94 -12.94,-3.53c-2.35,9.4 -7.05,21.17 -10.58,22.34c-3.53,1.18 -15,-9.93 -15,-9.93c0,0 -6.17,27.57 -3.82,52.27c2.36,24.7 11.44,35.67 45.71,53.71c34.26,18.03 81.3,10.97 81.3,10.97" id="path642"/>
    <path fill-rule="nonzero" fill="#17282f" d="m1547.36,4276.36936c0.97,0 1.64,-0.22 2.1,-0.38c7.01,-2.34 11.86,-18.25 13.56,-24.71c0.94,0.68 2.1,1.71 3.18,2.83l-2.12,20.15c-0.16,1.5 0.36,2.99 1.43,4.05l14.11,14.11c-0.39,1.14 -5.04,5.69 -9.75,8.73c-1.99,1.29 -2.81,3.79 -1.96,6c0.85,2.22 3.12,3.53 5.48,3.14c0.13,-0.02 8.4,-0.64 50.02,7.04c44.85,8.26 58.8,24.94 57.11,36.71c-1.52,10.67 -18.62,17.48 -25.44,19.32c-3.7,0.51 -46.86,5.88 -77.99,-10.49c-34.5,-18.15 -41.01,-28.34 -43.05,-49.76c-1.47,-15.47 0.56,-32.35 2.15,-42.21c5.75,4.51 9.14,5.47 11.17,5.47zm14.33,-35.88l-1.7,0.18c-1.83,0.41 -5.09,1.87 -6.38,7.03c-2.09,8.38 -5.24,15.52 -7.09,18.17c-2.3,-1.28 -6.56,-4.66 -10.17,-8.15c-1.3,-1.25 -3.16,-1.73 -4.91,-1.19c-1.73,0.52 -3.05,1.93 -3.44,3.7c-0.26,1.15 -6.31,28.64 -3.91,53.83c2.53,26.63 12.93,39.02 48.35,57.66c35.3,18.59 82.38,11.8 84.38,11.5l0.51,-0.11c1.24,-0.32 30.3,-8.12 33.09,-27.65c2.42,-16.94 -13.43,-38.43 -65.19,-47.97c-19.52,-3.59 -32.03,-5.43 -40.01,-6.34c2.14,-2.51 3.84,-5.35 4.15,-8.28c0.31,-2.82 -0.64,-5.49 -2.68,-7.52l-12.42,-12.42l2.1,-19.97c0.14,-1.33 -0.25,-2.66 -1.1,-3.69c-2.27,-2.78 -7.85,-8.78 -13.58,-8.78" id="path644"/>
    <path fill-rule="nonzero" fill="#ffffff" d="m1649.02,4214.79936l15.29,2.35l-10.59,39.99l3.53,19.99" id="path646"/>
    <path fill-rule="nonzero" fill="#17282f" d="m1649.01,4212.29936c-1.21,0 -2.27,0.89 -2.46,2.12c-0.21,1.37 0.73,2.64 2.09,2.85l12.54,1.93l-9.88,37.3l-0.04,1.08l3.53,19.98c0.24,1.36 1.56,2.29 2.9,2.03c1.36,-0.24 2.26,-1.53 2.02,-2.89l-3.43,-19.45l10.44,-39.45l-0.32,-2.01l-1.71,-1.1l-15.29,-2.36l-0.39,-0.03" id="path648"/>
    <path fill-rule="nonzero" fill="#17282f" d="m1665.48,4263.60936c0,-5.52 2.11,-10 4.71,-10c2.59,0 4.7,4.48 4.7,10c0,5.52 -2.11,9.99 -4.7,9.99c-2.6,0 -4.71,-4.47 -4.71,-9.99" id="path650"/>
    <path fill-rule="nonzero" fill="#17282f" d="m1624.32,4258.30936c0,-5.51 2.11,-9.99 4.7,-9.99c2.6,0 4.71,4.48 4.71,9.99c0,5.53 -2.11,10 -4.71,10c-2.59,0 -4.7,-4.47 -4.7,-10" id="path652"/>
    <path fill-rule="nonzero" fill="#ffffff" d="m1658.43,4203.04936c0,0 -14.12,-16.47 -39.99,2.35" id="path654"/>
    <path fill-rule="nonzero" fill="#17282f" d="m1641.78,4193.92936c-6.65,0 -14.98,2.3 -24.81,9.44c-1.12,0.81 -1.36,2.37 -0.55,3.49c0.81,1.13 2.38,1.36 3.49,0.56c23.74,-17.27 36.5,-2.9 36.62,-2.75c0.91,1.04 2.48,1.15 3.52,0.27c1.05,-0.89 1.18,-2.48 0.28,-3.52c-0.11,-0.12 -6.64,-7.49 -18.55,-7.49" id="path656"/>
    <path fill-rule="nonzero" fill="#ffffff" d="m1678.42,4284.18936c0,0 -5.88,9.41 -16.47,1.18" id="path658"/>
    <path fill-rule="nonzero" fill="#17282f" d="m1678.42,4281.68936l-2.11,1.16c-0.02,0.02 -1.83,2.77 -4.94,3.3c-2.33,0.4 -5.01,-0.53 -7.88,-2.76c-1.1,-0.84 -2.67,-0.65 -3.51,0.44c-0.85,1.09 -0.65,2.66 0.44,3.51c4.05,3.15 8.06,4.41 11.86,3.73c5.32,-0.95 8.14,-5.37 8.26,-5.56c0.73,-1.17 0.37,-2.71 -0.8,-3.44l-1.32,-0.38" id="path660"/>
    <path fill-rule="nonzero" fill="#ffffff" d="m1639.61,4283.00936c0,0 -19.99,7.06 -29.4,-10.58" id="path662"/>
    <path fill-rule="nonzero" fill="#17282f" d="m1610.21,4269.92936l-1.18,0.29c-1.21,0.65 -1.68,2.16 -1.03,3.39c10.31,19.3 32.23,11.83 32.44,11.76c1.3,-0.46 1.98,-1.89 1.53,-3.18c-0.46,-1.31 -1.91,-2.02 -3.19,-1.54c-0.73,0.27 -18.1,6.1 -26.36,-9.4l-2.21,-1.32" id="path664"/>
    <path fill-rule="nonzero" fill="#ffffff" d="m1565.37,4234.32936c0,0 1.32,36.24 -17.49,36.92c-18.81,0.69 -15,-9.93 -13.85,-26.52c1.4,-20.24 17.08,-24.66 17.08,-24.66" id="path666"/>
    <path fill-rule="nonzero" fill="#17282f" d="m1551.1,4215.06936l-1.35,0.19c-0.78,0.22 -19.08,5.64 -20.71,29.12c-0.15,2.12 -0.34,4.13 -0.52,6.03c-0.82,8.62 -1.52,16.07 3.25,21.12c3.3,3.51 8.42,5.03 16.29,4.72c7.13,-0.26 16.47,-4.4 20.5,-22.63c2.14,-9.66 1.82,-19.07 1.81,-19.47c-0.1,-2.76 -2.41,-4.85 -5.18,-4.81c-2.75,0.1 -4.91,2.42 -4.81,5.17c0.28,8.11 -1.44,31.34 -12.68,31.75c-6.03,0.2 -8,-0.91 -8.66,-1.59c-1.66,-1.76 -1.13,-7.37 -0.56,-13.32c0.19,-1.98 0.38,-4.07 0.54,-6.27c1.13,-16.28 12.99,-20.06 13.49,-20.21c2.63,-0.79 4.14,-3.56 3.37,-6.2c-0.64,-2.18 -2.61,-3.6 -4.78,-3.6" id="path668"/>
    <path fill-rule="nonzero" fill="#6ccb94" d="m1779.9,4104.71936l102.49,-120.5l119.94,106.6l37.81,-26.18l-131.44,-193.3c-9.21,-13.54 -27.86,-16.65 -40.96,-6.82l-103.94,77.95l16.1,162.25" id="path670"/>
    <path fill-rule="nonzero" fill="#17282f" d="m1769.05,3944.77936l101.68,-76.27c5.23,-3.92 11.69,-5.5 18.12,-4.41c6.45,1.07 12.03,4.64 15.71,10.05l128.66,189.2l-30.51,21.12l-117,-103.99c-1.01,-0.89 -2.32,-1.31 -3.67,-1.25c-1.34,0.1 -2.59,0.73 -3.46,1.75l-94.86,111.54l-14.67,-147.74zm115.8,-91.02c-7.22,0 -14.21,2.32 -20.11,6.76l-103.94,77.95c-1.4,1.05 -2.15,2.75 -1.98,4.49l16.11,162.25c0.2,2 1.56,3.68 3.48,4.28c1.9,0.61 4,0 5.3,-1.53l99.18,-116.61l116.11,103.2c1.73,1.55 4.27,1.7 6.17,0.38l37.82,-26.18c2.25,-1.56 2.83,-4.65 1.29,-6.92l-131.45,-193.3c-5.23,-7.69 -13.16,-12.77 -22.34,-14.3c-1.88,-0.31 -3.77,-0.47 -5.64,-0.47" id="path672"/>
    <path fill-rule="nonzero" fill="#ffffff" d="m2002.33,4090.81936c0,0 15.85,15.35 23.21,21.65c7.35,6.31 79.87,-4.2 79.87,-4.2c0,0 28.38,18.92 33.64,11.56c5.25,-7.36 -10.51,-37.84 -18.92,-47.3c-8.41,-9.45 -79.99,-7.89 -79.99,-7.89l-37.81,26.18" id="path674"/>
    <path fill-rule="nonzero" fill="#17282f" d="m2041.75,4069.60936c32.72,-0.61 70.11,1.7 74.65,6.26c9,10.13 20.78,36.28 18.53,41.14c-2.53,0.37 -15.49,-5.41 -26.74,-12.9c-1.03,-0.68 -2.28,-0.95 -3.49,-0.79c-32.37,4.69 -70.67,8.01 -76.18,5.16c-4.6,-3.97 -13.12,-12.06 -18.32,-17.03l31.55,-21.84zm13.06,-10.13c-5.64,0 -10.72,0.07 -14.78,0.16c-0.98,0.03 -1.93,0.33 -2.74,0.89l-37.81,26.18c-1.23,0.85 -2.02,2.21 -2.14,3.7c-0.12,1.49 0.43,2.96 1.51,4c0.65,0.63 16.04,15.53 23.43,21.86c7.71,6.63 53.82,1.25 81.97,-2.78c14.51,9.47 32.42,18.25 38.86,9.24c8.42,-11.77 -13.16,-46.67 -19.25,-53.52c-7.33,-8.25 -43.83,-9.73 -69.05,-9.73" id="path676"/>
    <path fill-rule="nonzero" fill="#ffffff" d="m1594.81,3855.81936c0,0 15.85,15.35 23.21,21.66c7.36,6.3 79.88,-4.21 79.88,-4.21c0,0 28.37,18.92 33.63,11.56c5.25,-7.35 -10.51,-37.83 -18.92,-47.29c-8.41,-9.46 -111.77,-14.98 -111.77,-14.98l-6.03,33.26" id="path678"/>
    <path fill-rule="nonzero" fill="#17282f" d="m1600.2,3854.07936l4.78,-26.28c47.37,2.69 98.17,8.22 103.99,13.16c8.92,10.04 20.7,36.19 18.44,41.05c-2.71,0.4 -15.51,-5.41 -26.74,-12.89c-1.03,-0.69 -2.28,-0.96 -3.49,-0.79c-32.36,4.69 -70.67,8 -76.18,5.15c-5.44,-4.69 -16.37,-15.15 -20.8,-19.4zm0.64,-36.52c-2.4,0 -4.48,1.72 -4.92,4.11l-6.03,33.26c-0.3,1.64 0.24,3.33 1.44,4.49c0.65,0.63 16.05,15.52 23.44,21.85c7.72,6.62 53.81,1.26 81.96,-2.78c14.53,9.47 32.44,18.24 38.87,9.25c8.41,-11.78 -13.16,-46.68 -19.25,-53.52c-8.84,-9.95 -83.54,-14.96 -115.24,-16.66l-0.27,0" id="path680"/>
    <path fill-rule="nonzero" fill="#6ccb94" d="m1417.83,4104.71936l-42.77,-19.25l-15.4,-300.44l243.78,32.07l-2.14,47.05l-156.1,0l17.11,113.33c0,0 -2.14,49.19 -8.56,79.12" id="path682"/>
    <path fill-rule="nonzero" fill="#17282f" d="m1359.66,3780.02936c-1.25,0 -2.46,0.47 -3.39,1.32c-1.09,1.01 -1.68,2.45 -1.6,3.93l15.39,300.45c0.1,1.87 1.24,3.54 2.95,4.31l42.77,19.24c2.5,1.13 5.47,0.02 6.61,-2.51c1.13,-2.52 0.01,-5.48 -2.51,-6.61l-39.98,-17.99l-14.93,-291.4l233.27,30.69l-1.72,37.69l-151.32,0c-1.46,0 -2.84,0.63 -3.79,1.74c-0.95,1.1 -1.37,2.57 -1.16,4.01l17.11,113.33l0,-0.01c-0.09,0 -2.28,48.3 -8.49,77.34c-0.58,2.7 1.14,5.36 3.84,5.93c2.67,0.63 5.35,-1.14 5.93,-3.84c6.43,-30 8.57,-77.93 8.66,-79.95l-16.29,-108.55l150.29,0c2.67,0 4.88,-2.1 5,-4.78l2.14,-47.04c0.11,-2.6 -1.77,-4.85 -4.34,-5.18l-243.78,-32.08l-0.66,-0.04" id="path684"/>
    <path fill-rule="nonzero" fill="#6ccb94" d="m2161.9,4387.91936c0,56.63 -49.03,101.81 -106.95,95.41c-44.59,-4.93 -80.54,-41.64 -84.66,-86.3c-2.66,-28.79 7.42,-55.25 25.24,-74.41c15.35,-16.51 23.87,-38.21 23.87,-60.75l0,-27.88l92.97,0l0,27.84c0,21.98 7.49,43.74 22.73,59.59c16.59,17.24 26.8,40.67 26.8,66.5" id="path686"/>
    <path fill-rule="nonzero" fill="#17282f" d="m2024.4,4238.98936l82.97,0l0,22.83c0,24.49 8.57,46.89 24.13,63.06c16.38,17.03 25.4,39.42 25.4,63.04c0,25.84 -11.05,50.56 -30.32,67.82c-19.53,17.5 -44.75,25.52 -71.09,22.62c-41.86,-4.63 -76.35,-39.79 -80.22,-81.8c-2.42,-26.28 6.07,-51.33 23.92,-70.54c16.26,-17.49 25.21,-40.27 25.21,-64.16l0,-22.87zm87.97,-10l-92.97,0c-2.76,0 -5,2.23 -5,5l0,27.87c0,21.36 -8,41.72 -22.53,57.35c-19.53,21.01 -29.21,49.54 -26.56,78.27c4.37,47.4 41.83,85.6 89.09,90.82c29.14,3.19 57.17,-5.7 78.85,-25.11c21.38,-19.15 33.65,-46.59 33.65,-75.27c0,-26.23 -10.02,-51.07 -28.19,-69.97c-13.76,-14.3 -21.34,-34.24 -21.34,-56.13l0,-27.83c0,-2.77 -2.24,-5 -5,-5" id="path688"/>
    <path fill-rule="nonzero" fill="#17282f" d="m2114.27,4195.87936l-96.01,0l0,25.92l96.01,0l0,-25.92" id="path690"/>
    <path fill-rule="nonzero" fill="#17282f" d="m2095.85,4163.11936l-59.17,0c-10.17,0 -18.42,8.25 -18.42,18.42l0,7.49l96.01,0l0,-7.49c0,-10.17 -8.24,-18.42 -18.42,-18.42" id="path692"/>
    <path fill-rule="nonzero" fill="#ffffff" d="m2061.82,4582.76936l0,-52.85" id="path694"/>
    <path fill-rule="nonzero" fill="#17282f" d="m2061.82,4527.41936c-1.38,0 -2.5,1.11 -2.5,2.5l0,52.85c0,1.38 1.12,2.5 2.5,2.5c1.38,0 2.5,-1.12 2.5,-2.5l0,-52.85c0,-1.39 -1.12,-2.5 -2.5,-2.5" id="path696"/>
    <path fill-rule="nonzero" fill="#ffffff" d="m2188.68,4379.26936l66.07,0" id="path698"/>
    <path fill-rule="nonzero" fill="#17282f" d="m2254.76,4376.76936l-66.08,0c-1.38,0 -2.5,1.11 -2.5,2.5c0,1.38 1.12,2.5 2.5,2.5l66.08,0c1.38,0 2.5,-1.12 2.5,-2.5c0,-1.39 -1.12,-2.5 -2.5,-2.5" id="path700"/>
    <path fill-rule="nonzero" fill="#ffffff" d="m1868.89,4379.26936l66.07,0" id="path702"/>
    <path fill-rule="nonzero" fill="#17282f" d="m1934.96,4376.76936l-66.07,0c-1.39,0 -2.5,1.11 -2.5,2.5c0,1.38 1.11,2.5 2.5,2.5l66.07,0c1.38,0 2.5,-1.12 2.5,-2.5c0,-1.39 -1.12,-2.5 -2.5,-2.5" id="path704"/>
    <path fill-rule="nonzero" fill="#ffffff" d="m1929.68,4495.55936l34.35,-23.79" id="path706"/>
    <path fill-rule="nonzero" fill="#17282f" d="m1964.03,4469.26936l-1.42,0.45l-34.35,23.78c-1.14,0.79 -1.42,2.34 -0.64,3.47c0.78,1.15 2.35,1.43 3.48,0.64l34.35,-23.78c1.14,-0.79 1.42,-2.35 0.64,-3.48l-2.06,-1.08" id="path708"/>
    <path fill-rule="nonzero" fill="#ffffff" d="m2191.32,4495.55936l-34.35,-23.79" id="path710"/>
    <path fill-rule="nonzero" fill="#17282f" d="m2156.97,4469.26936l-2.06,1.08c-0.78,1.13 -0.5,2.69 0.64,3.48l34.35,23.78c1.13,0.78 2.7,0.51 3.48,-0.64c0.78,-1.13 0.5,-2.68 -0.64,-3.47l-34.35,-23.78l-1.42,-0.45" id="path712"/>
    <path fill-rule="nonzero" fill="#ffffff" d="m1697.28,2838.44936l-48.22,0l0,720.93l48.22,0l0,-720.93" id="path714"/>
    <path fill-rule="nonzero" fill="#17282f" d="m1654.06,2843.44936l38.22,0l0,710.93l-38.22,0l0,-710.93zm43.22,-10l-48.22,0c-2.76,0 -5,2.24 -5,5l0,720.93c0,2.77 2.24,5 5,5l48.22,0c2.76,0 5,-2.23 5,-5l0,-720.93c0,-2.76 -2.24,-5 -5,-5" id="path716"/>
    <path fill-rule="nonzero" fill="#ffffff" d="m3267.73,2838.44936l-48.22,0l0,720.93l48.22,0l0,-720.93" id="path718"/>
    <path fill-rule="nonzero" fill="#17282f" d="m3224.51,2843.44936l38.22,0l0,710.93l-38.22,0l0,-710.93zm43.22,-10l-48.22,0c-2.77,0 -5,2.24 -5,5l0,720.93c0,2.77 2.23,5 5,5l48.22,0c2.76,0 5,-2.23 5,-5l0,-720.93c0,-2.76 -2.24,-5 -5,-5" id="path720"/>
    <path fill-rule="nonzero" fill="#ffffff" d="m3321.93,3547.24936l-1710.93,0l0,25.82l1710.93,0l0,-25.82" id="path722"/>
    <path fill-rule="nonzero" fill="#17282f" d="m1616,3552.24936l1700.93,0l0,15.82l-1700.93,0l0,-15.82zm1705.93,-10l-1710.93,0c-2.77,0 -5,2.24 -5,5l0,25.82c0,2.77 2.23,5 5,5l1710.93,0c2.76,0 5,-2.23 5,-5l0,-25.82c0,-2.76 -2.24,-5 -5,-5" id="path724"/>
    <path fill-rule="nonzero" fill="#ffffff" d="m1995.98,3768.11936l-250.45,0l21.79,-195.15l250.45,0l-21.79,195.15" id="path726"/>
    <path fill-rule="nonzero" fill="#17282f" d="m1771.79,3577.96936l240.39,0l-20.67,185.15l-240.39,0l20.67,-185.15zm245.98,-10l-250.45,0c-2.55,0 -4.69,1.91 -4.97,4.44l-21.79,195.15c-0.16,1.42 0.3,2.84 1.25,3.9c0.94,1.06 2.3,1.66 3.72,1.66l250.45,0c2.55,0 4.69,-1.91 4.97,-4.44l21.79,-195.16c0.16,-1.41 -0.29,-2.83 -1.24,-3.89c-0.95,-1.06 -2.31,-1.66 -3.73,-1.66" id="path728"/>
    <path fill-rule="nonzero" fill="#ffffff" d="m2198.17,3587.39936l-179.63,0l0,-14.43l179.63,0l0,14.43" id="path730"/>
    <path fill-rule="nonzero" fill="#17282f" d="m2023.53,3577.96936l169.64,0l0,4.43l-169.64,0l0,-4.43zm174.64,-10l-179.64,0c-2.76,0 -5,2.23 -5,5l0,14.43c0,2.76 2.24,5 5,5l179.64,0c2.76,0 5,-2.24 5,-5l0,-14.43c0,-2.77 -2.24,-5 -5,-5" id="path732"/>
    <path fill-rule="nonzero" fill="#6ccb94" d="m3205.57,3867.50936l38.36,191.66l-94.75,37.47l-50.34,17.29l-50.34,-17.29l-82.85,-29.2l26.33,-199.34l-1.74,-29.41l-33.4,-94.92c-5.91,-16.78 -8.92,-34.43 -8.92,-52.21l0,-91.75l149.92,-39.54l149.92,39.54l0,91.75c0,17.78 -3.02,35.43 -8.92,52.21l-33.41,94.92l0.14,28.82" id="path734"/>
    <path fill-rule="nonzero" fill="#17282f" d="m3247.76,3599.80936l0.1,0l-0.1,0zm-294.85,3.85l144.93,-38.22l144.92,38.22l0,87.9c0,17.25 -2.9,34.26 -8.63,50.55l-33.41,94.92l-0.29,1.69l0.14,28.82l0.1,0.95l37.54,187.56l-90.87,35.94l-48.51,16.66l-48.71,-16.74l-78.97,-27.84l25.79,-195.32l-1.7,-30.35l-0.27,-1.37l-33.41,-94.92c-5.74,-16.28 -8.65,-33.29 -8.65,-50.55l0,-87.9zm144.93,-48.39l-1.28,0.16l-149.92,39.54c-2.19,0.58 -3.73,2.57 -3.73,4.84l0,91.75c0,18.39 3.1,36.52 9.21,53.87l33.18,94.26l1.69,28.7l-26.29,198.4c-0.3,2.34 1.06,4.58 3.3,5.36l133.21,46.51c1.06,0.36 2.19,0.36 3.24,0l50.35,-17.29l94.97,-37.56c2.25,-0.88 3.54,-3.25 3.06,-5.62l-38.26,-191.18l-0.14,-27.47l33.13,-94.11c6.1,-17.36 9.2,-35.49 9.2,-53.87l0,-91.75c0,-2.27 -1.53,-4.26 -3.72,-4.84l-149.92,-39.54l-1.28,-0.16" id="path736"/>
    <path fill-rule="nonzero" fill="#ffffff" d="m3166.49,4088.66936l-17.31,7.97l-1.65,-0.35l-7.82,1.97l-11.34,85.33l-64.59,-1.62l-8.88,-85.33l-3.79,-1.33l-6.49,-0.46l-10.76,-4.95l-10.38,-77.34l122.7,0l20.31,76.11" id="path738"/>
    <path fill-rule="nonzero" fill="#17282f" d="m3029.19,4017.55936l113.15,0l18.23,68.33l-11.98,5.51l-0.02,0l-2.26,0.04l-7.82,1.96c-1.98,0.5 -3.47,2.16 -3.74,4.2l-10.75,80.87l-55.69,-1.39l-8.44,-80.96c-0.2,-1.92 -1.5,-3.56 -3.32,-4.2l-3.79,-1.32l-1.3,-0.27l-5.58,-0.4l-7.43,-3.43l-9.26,-68.94zm116.99,-10l-122.7,0c-1.44,0 -2.81,0.62 -3.76,1.71c-0.96,1.08 -1.39,2.53 -1.19,3.95l10.38,77.34c0.23,1.7 1.31,3.16 2.86,3.88l10.76,4.95l1.74,0.45l5.98,0.47l8.56,82.17c0.26,2.5 2.34,4.42 4.85,4.49l64.58,1.62c2.58,0.08 4.74,-1.81 5.08,-4.34l10.9,-81.97l3.41,-0.86l0.51,0.11c1.06,0.22 2.16,0.09 3.12,-0.35l17.32,-7.97c2.21,-1.02 3.37,-3.48 2.74,-5.83l-20.31,-76.11c-0.59,-2.19 -2.57,-3.71 -4.83,-3.71" id="path740"/>
    <path fill-rule="nonzero" fill="#ffffff" d="m2985.84,3403.62936c0,0 20.04,-149.17 22.26,-175.89c2.23,-26.72 24.5,-293.9 24.5,-293.9c0,0 -33.4,-53.44 -40.08,-57.89c-6.68,-4.45 -46.23,-34.56 -46.23,-34.56l73.07,0l55.54,41.24c0,0 20.04,2.23 20.04,11.13c0,8.91 -15.59,53.44 -15.59,53.44l8.91,296.13l-2.23,171.44l-100.19,-11.14" id="path742"/>
    <path fill-rule="nonzero" fill="#17282f" d="m2961.16,2846.38936l56.55,0l54.21,40.25l2.42,0.96c7.58,0.86 15.6,4.02 15.6,6.16c0,5.87 -9.39,34.88 -15.31,51.79l-0.28,1.8l8.91,296.13l-2.16,165.71l-89.63,-9.96c3.57,-26.73 19.61,-147.01 21.61,-171.07l24.49,-293.9c0.09,-1.08 -0.16,-2.15 -0.74,-3.07c-7.97,-12.75 -34.51,-54.71 -41.54,-59.4c-4.18,-2.79 -21.96,-16.18 -34.13,-25.4zm58.2,-10l-73.07,0c-2.14,0 -4.05,1.37 -4.73,3.4c-0.69,2.03 0,4.28 1.71,5.58c1.62,1.23 39.74,30.25 46.47,34.74c3.83,2.81 22.01,29.9 37.74,54.97l-24.36,292.25c-2.2,26.29 -22.04,174.15 -22.24,175.64c-0.18,1.33 0.19,2.68 1.02,3.75c0.82,1.06 2.04,1.74 3.38,1.89l100.19,11.13c1.4,0.14 2.82,-0.29 3.87,-1.23c1.06,-0.93 1.67,-2.27 1.69,-3.68l2.23,-171.44l-8.88,-295.41c3.22,-9.27 15.56,-45.25 15.56,-54.22c0,-11.65 -17.07,-15.08 -23.11,-15.93l-54.49,-40.45c-0.86,-0.64 -1.91,-0.99 -2.98,-0.99" id="path744"/>
    <path fill-rule="nonzero" fill="#ffffff" d="m3090.48,3437.02936l4.46,-153.63l44.53,-354.01c0,0 11.13,-55.66 20.04,-77.93c8.9,-22.26 40.07,-24.49 53.43,-15.59c13.36,8.91 -8.9,51.21 -20.04,73.48c-11.13,22.26 -13.35,35.62 -13.35,35.62l6.67,311.71l15.18,190.25l-110.92,-9.9" id="path746"/>
    <path fill-rule="nonzero" fill="#17282f" d="m3095.62,3432.46936l4.32,-148.92l44.49,-353.54c0.05,-0.19 11.08,-55.11 19.72,-76.69c3.76,-9.41 11.84,-13.64 17.96,-15.54c9.74,-3.02 21.55,-2.08 28.06,2.26c8.97,5.97 -12.73,49.14 -19.86,63.33l-1.88,3.74c-11.34,22.68 -13.72,36.47 -13.82,37.04l6.62,312.64l14.71,184.63l-100.32,-8.95zm98.48,-606.49c-4.99,0 -10.11,0.74 -14.95,2.25c-11.59,3.59 -20.21,11.19 -24.28,21.38c-8.98,22.42 -19.85,76.51 -20.3,78.8l-44.59,354.37l-4.5,154.11c-0.08,2.64 1.93,4.89 4.56,5.12l110.92,9.9c1.44,0.16 2.91,-0.39 3.96,-1.43c1.04,-1.04 1.58,-2.48 1.46,-3.95l-15.17,-190.24l-6.66,-311.39c0.09,0 2.55,-12.77 12.83,-33.32l1.86,-3.72c17.29,-34.39 31.56,-66.09 16.48,-76.14c-5.65,-3.77 -13.45,-5.74 -21.62,-5.74" id="path748"/>
    <path fill-rule="nonzero" fill="#17282f" d="m2992.52,2875.94936c-6.68,-4.45 -46.23,-34.56 -46.23,-34.56l73.07,0l55.54,41.24c0,0 20.04,2.23 20.04,11.13c0,4.47 -3.92,17.89 -7.83,30.17l-69.01,-54.17l-25.58,6.19" id="path750"/>
    <path fill-rule="nonzero" fill="#17282f" d="m2961.15,2846.38936l56.56,0l54.21,40.25l2.42,0.96c7.58,0.86 15.6,4.02 15.6,6.16c0,1 -0.43,5.36 -5.44,21.76l-63.31,-49.69c-1.2,-0.95 -2.8,-1.3 -4.26,-0.92l-23.41,5.65c-6.12,-4.35 -21.48,-15.92 -32.37,-24.17zm58.21,-10l-73.07,0c-2.14,0 -4.05,1.37 -4.73,3.4c-0.69,2.03 0,4.28 1.71,5.58c1.62,1.23 39.74,30.26 46.47,34.74c1.16,0.78 2.61,1.05 3.95,0.7l23.23,-5.62l67.11,52.67c1.28,1.01 2.97,1.34 4.56,0.85c1.56,-0.48 2.79,-1.71 3.29,-3.26c7.22,-22.7 8.06,-28.96 8.06,-31.69c0,-11.65 -17.07,-15.08 -23.11,-15.93l-54.49,-40.45c-0.86,-0.64 -1.91,-0.99 -2.98,-0.99" id="path752"/>
    <path fill-rule="nonzero" fill="#17282f" d="m3152.9,2872.99936l-0.21,-0.24c2.28,-8.24 4.61,-15.79 6.82,-21.3c8.9,-22.26 40.07,-24.49 53.43,-15.59c7.82,5.22 3.42,21.87 -3.8,39.25l-56.24,-2.12" id="path754"/>
    <path fill-rule="nonzero" fill="#17282f" d="m3159.17,2868.23936c1.83,-6.22 3.49,-11.22 4.98,-14.92c3.76,-9.41 11.84,-13.64 17.96,-15.54c9.74,-3.02 21.55,-2.08 28.06,2.26c1.43,0.95 5.17,5.89 -4.35,29.96l-46.65,-1.76zm34.93,-42.26c-4.98,0 -10.11,0.74 -14.95,2.25c-11.59,3.59 -20.21,11.19 -24.28,21.38c-2.09,5.21 -4.39,12.35 -7,21.82c-0.45,1.64 -0.04,3.4 1.1,4.67c0.91,1.01 2.39,1.85 3.75,1.9l56.24,2.12c2.04,0.18 4,-1.15 4.8,-3.08c7.06,-17.01 13.65,-37.53 1.96,-45.32c-5.65,-3.77 -13.45,-5.74 -21.62,-5.74" id="path756"/>
    <path fill-rule="nonzero" fill="#17282f" d="m3247.76,3691.55936c0,17.78 -3.02,35.43 -8.92,52.21l-29.97,85.17l-222.06,0l-29.97,-85.17c-5.91,-16.78 -8.92,-34.43 -8.92,-52.21l0.73,-303.75l298.1,0l1.01,303.75" id="path758"/>
    <path fill-rule="nonzero" fill="#17282f" d="m3247.76,3691.55936l0.1,0l-0.1,0zm-294.12,-298.74l288.13,0l0.99,298.76c0,17.24 -2.91,34.24 -8.63,50.53l-28.81,81.83l-214.96,0l-28.8,-81.83c-5.74,-16.28 -8.65,-33.29 -8.65,-50.55l0.73,-298.74zm293.11,-10l-298.1,0c-2.76,0 -4.99,2.23 -5,4.99l-0.74,303.74c0,18.4 3.1,36.53 9.21,53.88l29.97,85.17c0.71,2 2.6,3.34 4.72,3.34l222.05,0c2.12,0 4.02,-1.34 4.72,-3.34l29.98,-85.17c6.1,-17.36 9.2,-35.49 9.2,-53.87l0,-0.01l-1.01,-303.75c-0.01,-2.76 -2.24,-4.98 -5,-4.98" id="path760"/>
    <path fill-rule="nonzero" fill="#6ccb94" d="m2965.65,4067.43936l-17.83,-176.06l-124.8,53.49l-15.6,-42.35c0,0 122.58,-73.55 135.95,-82.46c13.37,-8.92 43.44,8.88 43.44,8.88l5.17,39.16l-26.33,199.34" id="path762"/>
    <path fill-rule="nonzero" fill="#17282f" d="m2813.54,3904.67936c20.61,-12.38 120.41,-72.33 132.6,-80.46c7.28,-4.87 25.1,1.83 36.04,7.83l4.76,36.05l-20.63,156.18l-13.51,-133.41c-0.16,-1.58 -1.07,-3 -2.43,-3.8c-1.38,-0.81 -3.04,-0.92 -4.52,-0.29l-119.96,51.42l-12.35,-33.52zm139.51,-92.09c-4.58,0 -8.9,0.93 -12.46,3.31c-13.11,8.75 -134.52,81.59 -135.74,82.33c-2.06,1.24 -2.95,3.76 -2.12,6.02l15.6,42.35c0.47,1.28 1.46,2.32 2.72,2.86c1.25,0.54 2.68,0.54 3.94,0l118.55,-50.81l17.15,169.29c0.25,2.53 2.35,4.46 4.89,4.5l0.08,0c2.51,0 4.63,-1.86 4.96,-4.34l26.32,-199.35l0,-1.31l-5.17,-39.16c-0.2,-1.52 -1.09,-2.86 -2.41,-3.64c-2.59,-1.54 -20.92,-12.05 -36.31,-12.05" id="path764"/>
    <path fill-rule="nonzero" fill="#ffffff" d="m2823.02,3944.86936l-37.89,26.74l-40.19,27.18c0,0 -12.91,-7.53 -6.46,-12.91c6.46,-5.38 26.89,-20.44 26.89,-20.44l-47.32,-12.9c0,0 -24.74,9.68 -25.82,3.22c-1.07,-6.45 24.74,-23.66 41.95,-34.41c17.21,-10.76 53.78,-3.23 53.78,-3.23l19.46,-15.6l15.6,42.35" id="path766"/>
    <path fill-rule="nonzero" fill="#17282f" d="m2787.95,3923.11936c1.13,0 2.24,-0.38 3.13,-1.1l14.04,-11.26l11.89,32.24l-34.76,24.52l-37.29,25.22c-1.72,-1.36 -3.12,-2.82 -3.3,-3.59c6.28,-4.65 26.48,-19.53 26.68,-19.68c1.55,-1.14 2.3,-3.06 1.95,-4.94c-0.35,-1.89 -1.75,-3.41 -3.6,-3.91l-47.32,-12.91c-1.02,-0.29 -2.14,-0.22 -3.13,0.17c-6.26,2.45 -13.02,4.34 -17.16,4.94c3.37,-3.44 12.58,-11.51 37.75,-27.24c12.7,-7.92 40.48,-4.53 50.12,-2.56l1,0.1zm19.47,-25.6c-1.13,0 -2.23,0.38 -3.13,1.1l-17.67,14.16c-8.69,-1.51 -38.86,-5.82 -55.08,4.33c-46.03,28.75 -44.9,35.46 -44.24,39.47c0.36,2.19 1.65,4 3.61,5.11c5.81,3.32 19.06,-0.75 27.41,-3.9l35.82,9.77c-6.49,4.84 -15,11.27 -18.86,14.47c-2.56,2.14 -3.83,4.98 -3.58,8.01c0.56,6.65 8.34,11.68 10.72,13.07c1.66,0.96 3.71,0.9 5.32,-0.18l40.19,-27.18l37.97,-26.79c1.86,-1.32 2.6,-3.7 1.81,-5.82l-15.61,-42.35c-0.55,-1.51 -1.79,-2.66 -3.35,-3.09l-1.33,-0.18" id="path768"/>
    <path fill-rule="nonzero" fill="#6ccb94" d="m3243.93,4059.16936l52.01,-197.66l-30.22,-248.14l-33.64,12.67l3.42,224.34l-20.68,57.26l29.11,151.53" id="path770"/>
    <path fill-rule="nonzero" fill="#17282f" d="m3237.12,3629.47936l24.41,-9.18l29.33,240.86l-46.17,175.47l-24.7,-128.59l20.22,-55.97l0.29,-1.77l-3.38,-220.82zm28.6,-21.11l-1.76,0.32l-33.64,12.67c-1.99,0.74 -3.27,2.65 -3.25,4.76l3.42,223.41l-20.38,56.41l-0.2,2.64l29.11,151.53c0.44,2.29 2.41,3.97 4.74,4.05c2.35,0.13 4.41,-1.45 5,-3.72l52.02,-197.66l0.12,-1.88l-30.22,-248.13c-0.19,-1.53 -1.06,-2.88 -2.37,-3.68l-2.59,-0.72" id="path772"/>
    <path fill-rule="nonzero" fill="#17282f" d="m3208.68,4196.25936c0,-24.34 -19.74,-44.08 -44.09,-44.08c-24.35,0 -44.08,19.74 -44.08,44.08c0,24.35 19.73,44.09 44.08,44.09c24.35,0 44.09,-19.74 44.09,-44.09" id="path774"/>
    <path fill-rule="nonzero" fill="#17282f" d="m3164.59,4235.34936c-21.55,0 -39.09,-17.54 -39.09,-39.09c0,-21.54 17.54,-39.08 39.09,-39.08c21.56,0 39.09,17.54 39.09,39.08c0,21.55 -17.53,39.09 -39.09,39.09zm0,-88.17c-27.07,0 -49.09,22.02 -49.09,49.08c0,27.07 22.02,49.09 49.09,49.09c27.06,0 49.09,-22.02 49.09,-49.09c0,-27.06 -22.03,-49.08 -49.09,-49.08" id="path776"/>
    <path fill-rule="nonzero" fill="#ffffff" d="m3079.54,4345.05936c0,0 -31.82,-7.96 -47.72,-35c-15.91,-27.04 -14.32,-73.16 -9.55,-106.57c4.78,-33.4 14.32,-58.85 22.27,-66.8c7.96,-7.96 20.45,-13.06 37.95,-9.88c17.5,3.19 44.29,29.53 49.06,32.72c4.78,3.18 11.61,24.87 11.61,24.87c0,0 33.4,36.59 34.99,66.81c1.6,30.22 -15.9,71.58 -41.35,84.3c-25.45,12.73 -57.26,9.55 -57.26,9.55" id="path778"/>
    <path fill-rule="nonzero" fill="#17282f" d="m3080.41,4340.11936c-3.37,-0.96 -30.53,-9.22 -44.28,-32.59c-17.18,-29.21 -11.96,-81.99 -8.91,-103.33c4.73,-33.04 14.07,-57.19 20.86,-63.97c5.64,-5.64 16.06,-11.67 33.52,-8.49c12.34,2.24 31.53,18.74 40.76,26.67c3.04,2.61 5.3,4.53 6.42,5.28c1.86,1.57 6.38,11.98 9.61,22.21l1.08,1.87c0.32,0.36 32.21,35.64 33.7,63.7c1.44,27.72 -14.76,67.65 -38.6,79.57c-22.36,11.18 -50.58,9.36 -54.16,9.08zm-7.93,-219.24c-12.49,0 -23.41,4.21 -31.47,12.27c-9.58,9.57 -19.1,37.56 -23.69,69.64c-3.97,27.79 -7.92,79.02 10.19,109.81c16.77,28.52 49.43,36.96 50.81,37.3l0.72,0.13c1.36,0.14 33.56,3.18 60,-10.05c28.01,-14 45.73,-58.16 44.11,-89.04c-1.54,-29.41 -30.37,-63.22 -35.55,-69.08c-2.84,-8.84 -8.05,-23.01 -13.27,-26.49c-0.96,-0.65 -2.86,-2.32 -5.46,-4.54c-10.64,-9.16 -30.47,-26.2 -45.48,-28.93c-3.75,-0.69 -7.39,-1.02 -10.91,-1.02" id="path780"/>
    <path fill-rule="nonzero" fill="#17282f" d="m3020.68,4273.47936c0,0 31.82,4.77 65.22,14.32c33.4,9.54 33.4,9.54 33.4,9.54c0,0 -9.54,-27.04 -6.36,-41.36c3.18,-14.31 17.5,-39.76 17.5,-39.76c0,0 9.21,17.08 17.13,15.36c27.09,-5.9 3.54,-34.45 3.54,-34.45c0,0 25.45,9.54 27.04,54.08c1.6,44.54 -11.13,93.85 -50.89,100.21c-39.77,6.36 -65.22,14.32 -97.03,-22.27c-31.81,-36.59 -35,-52.49 -9.55,-55.67" id="path782"/>
    <path fill-rule="nonzero" fill="#17282f" d="m3146.41,4236.69936l2.23,-0.24c8.49,-1.85 13.88,-5.91 16.02,-12.08c0.64,-1.81 0.92,-3.69 0.94,-5.58c3.87,7.46 7.04,17.96 7.56,32.59c1.5,42.12 -9.98,89.22 -46.7,95.09l-9.39,1.56c-34.71,5.82 -55.66,9.35 -83.07,-22.17c-23.55,-27.07 -26.56,-37.79 -24.94,-42.02c1.23,-3.21 6.81,-4.66 11.56,-5.32c4.78,0.75 33.89,5.49 63.91,14.07l33.39,9.55c1.83,0.5 3.73,-0.03 5.02,-1.39c1.28,-1.36 1.69,-3.32 1.08,-5.08c-2.52,-7.16 -8.55,-28.04 -6.19,-38.62c1.95,-8.83 8.61,-22.55 12.99,-30.97c3.84,5.14 9.39,10.61 15.59,10.61zm4.71,-44.57c-1.57,0 -3.11,0.75 -4.06,2.09c-1.32,1.84 -1.24,4.33 0.2,6.08c2.76,3.38 10.17,14.45 7.95,20.82c-0.92,2.64 -3.85,4.51 -8.7,5.57c-1.71,0.32 -7.75,-5.56 -11.67,-12.84c-0.87,-1.61 -2.54,-2.62 -4.37,-2.63c-1.87,-0.26 -3.5,0.96 -4.39,2.55c-0.61,1.06 -14.72,26.26 -18.02,41.13c-2.26,10.17 1.07,25.45 3.74,35.09l-24.52,-7c-33.34,-9.52 -65.54,-14.41 -65.86,-14.46l-1.36,-0.01c-11.2,1.4 -17.85,5.24 -20.35,11.76c-4.03,10.56 3.71,25.67 26.75,52.15c31.06,35.74 58.08,31.21 92.28,25.46l9.3,-1.54c43.15,-6.9 56.76,-58.93 55.12,-105.32c-1.7,-47.32 -29.12,-58.15 -30.28,-58.59l-1.76,-0.31" id="path784"/>
    <path fill-rule="nonzero" fill="#17282f" d="m3039.77,4183.48936l-1.88,0.86l-0.51,2.36c0.05,0.16 4.79,16 7.92,28.52c2.81,11.25 -1.02,16.78 -1.18,17.01c-0.8,1.11 -0.55,2.67 0.55,3.48c1.11,0.81 2.65,0.59 3.47,-0.51c0.22,-0.29 5.44,-7.47 2,-21.19c-2.22,-8.89 -5.24,-19.44 -6.85,-24.96l20.38,3.16c1.36,0.18 2.63,-0.73 2.85,-2.09c0.21,-1.36 -0.72,-2.64 -2.09,-2.85l-24.28,-3.76l-0.38,-0.03" id="path786"/>
    <path fill-rule="nonzero" fill="#17282f" d="m3082,4225.64936c0,-4.67 -2.13,-8.45 -4.75,-8.45c-2.63,0 -4.75,3.78 -4.75,8.45c0,4.66 2.12,8.44 4.75,8.44c2.62,0 4.75,-3.78 4.75,-8.44" id="path788"/>
    <path fill-rule="nonzero" fill="#17282f" d="m3039.24,4230.92936c0,-4.67 -2.13,-8.45 -4.75,-8.45c-2.63,0 -4.75,3.78 -4.75,8.45c0,4.66 2.12,8.44 4.75,8.44c2.62,0 4.75,-3.78 4.75,-8.44" id="path790"/>
    <path fill-rule="nonzero" fill="#17282f" d="m3054.58,4168.29936c-6.45,0 -9.75,2.38 -9.99,2.55c-1.1,0.83 -1.32,2.4 -0.49,3.5c0.81,1.09 2.35,1.34 3.47,0.53c0.18,-0.13 7.82,-5.08 23.75,3.36c1.21,0.63 2.74,0.17 3.38,-1.05c0.65,-1.22 0.19,-2.73 -1.03,-3.38c-8.05,-4.26 -14.4,-5.51 -19.09,-5.51" id="path792"/>
    <path fill-rule="nonzero" fill="#17282f" d="m3092.55,4238.97936l-1.88,0.86c-4.33,4.94 -8.79,7.49 -13.28,7.57l-0.22,0c-5.97,0 -10.19,-4.42 -10.24,-4.46c-0.93,-1 -2.51,-1.08 -3.53,-0.12c-1,0.93 -1.07,2.5 -0.13,3.52c0.23,0.25 5.69,6.06 13.89,6.06l0.24,0c5.99,-0.08 11.72,-3.2 17.04,-9.28c0.91,-1.04 0.8,-2.62 -0.24,-3.53l-1.65,-0.62" id="path794"/>
    <path fill-rule="nonzero" fill="#17282f" d="m3042.93,4242.14936l-1.84,0.82c-1.26,1.37 -5.3,4.96 -9.03,4.66c-1.89,-0.13 -3.53,-1.23 -5.02,-3.36c-0.8,-1.13 -2.37,-1.4 -3.49,-0.61c-1.13,0.79 -1.41,2.35 -0.62,3.48c2.4,3.42 5.37,5.26 8.82,5.48l0.67,0.02c6.55,0 12.13,-6.04 12.36,-6.31c0.93,-1.02 0.86,-2.59 -0.17,-3.52l-1.68,-0.66" id="path796"/>
    <path fill-rule="nonzero" fill="#ffffff" d="m3232.08,3626.03936l-14.52,-32.26l-1.61,-43.54l8.1,0.78l5.27,7.91l1.32,-39.54l19.77,0.66c0,0 13.84,33.6 15.81,37.56c1.98,3.95 -0.5,55.76 -0.5,55.76l-33.64,12.67" id="path798"/>
    <path fill-rule="nonzero" fill="#17282f" d="m3229.32,3563.91936l1.37,-0.19c2.09,-0.59 3.55,-2.47 3.63,-4.64l1.15,-34.54l11.55,0.39c3.56,8.64 13.01,31.48 14.73,34.91c0.69,3.02 0.16,27.33 -0.88,50l-26.16,9.86l-12.19,-27.09l-1.36,-36.86l0.05,0.01l3.95,5.93c0.95,1.41 2.52,2.22 4.16,2.22zm1.32,-49.53c-2.69,0 -4.9,2.13 -5,4.84l-0.89,26.84l-0.22,-0.03l-8.1,-0.77c-1.41,-0.14 -2.86,0.35 -3.91,1.33c-1.05,1 -1.62,2.39 -1.57,3.83l1.61,43.54l0.44,1.86l14.51,32.26c1.09,2.41 3.86,3.56 6.32,2.63l33.65,-12.67c1.87,-0.7 3.14,-2.45 3.23,-4.44c2.55,-53.11 0.62,-56.97 -0.01,-58.24c-1.4,-2.78 -10.14,-23.79 -15.68,-37.23c-0.74,-1.81 -2.49,-3.02 -4.45,-3.09l-19.76,-0.65l-0.17,-0.01" id="path800"/>
   </g>
  </g>
 </g>
</svg>